<svg width="8" height="8" viewBox="0 0 8 8" fill="none" xmlns="http://www.w3.org/2000/svg">
<path fill-rule="evenodd" clip-rule="evenodd" d="M3.27344 6.8843C3.27344 7.28194 3.59579 7.6043 3.99344 7.6043C4.39108 7.6043 4.71344 7.28194 4.71344 6.8843V4.72984H6.87063C7.26827 4.72984 7.59063 4.40749 7.59063 4.00984C7.59063 3.6122 7.26827 3.28984 6.87063 3.28984H4.71344V1.1243C4.71344 0.726652 4.39108 0.404297 3.99344 0.404297C3.59579 0.404297 3.27344 0.726652 3.27344 1.1243V3.28984H1.11063C0.71298 3.28984 0.390625 3.6122 0.390625 4.00984C0.390625 4.40749 0.71298 4.72984 1.11063 4.72984H3.27344V6.8843Z" fill="url(#paint0_linear_1348_36028)"/>
<defs>
<linearGradient id="paint0_linear_1348_36028" x1="3.99063" y1="0.404297" x2="3.99063" y2="7.6043" gradientUnits="userSpaceOnUse">
<stop stop-color="#0AC00A"/>
<stop offset="1" stop-color="#006400"/>
</linearGradient>
</defs>
</svg>
