<svg width="20" height="20" viewBox="0 0 20 20" fill="none" xmlns="http://www.w3.org/2000/svg">
<g clip-path="url(#clip0_2223_4839)">
<path d="M17.1719 1.41797C17.1719 0.957031 16.7969 0.585938 16.3398 0.585938C15.8789 0.585938 15.5078 0.960937 15.5078 1.41797V2.5H14.4258C13.9648 2.5 13.5938 2.875 13.5938 3.33203C13.5938 3.79297 13.9687 4.16406 14.4258 4.16406H15.5078V5.24609C15.5078 5.70703 15.8828 6.07812 16.3398 6.07812C16.8008 6.07812 17.1719 5.70312 17.1719 5.24609V4.16406H18.2539C18.7148 4.16406 19.0859 3.78906 19.0859 3.33203C19.0859 2.87109 18.7109 2.5 18.2539 2.5H17.1719V1.41797ZM11.0586 4.16797C12.9531 4.19531 14.5078 5.76953 14.5078 7.66797C14.5078 9.58594 12.9258 11.168 11.0078 11.168C10.4375 11.168 9.89453 11.0273 9.41406 10.7773C8.68359 10.3984 8.09766 9.76562 7.77734 9C7.75391 8.94531 7.73047 8.88672 7.71094 8.83203C7.57812 8.46484 7.50781 8.07422 7.50781 7.66406C7.50781 5.66406 9.08984 4.16406 11.0078 4.16406C11.0234 4.16797 11.0391 4.16797 11.0586 4.16797Z" fill="black"/>
<path d="M6.34065 8.53516C5.11409 7.99219 4.25862 6.76172 4.25862 5.33594C4.25862 3.40234 5.82503 1.83594 7.75862 1.83594C8.77815 1.83594 9.69612 2.27344 10.3367 2.96875C8.0594 3.30469 6.25862 5.3125 6.25862 7.66797C6.25862 7.96094 6.28597 8.25391 6.34065 8.53516ZM3.42268 16.082C4.368 13.9648 6.16097 12.3281 8.36409 11.5938C7.50081 11.0039 6.83284 10.1445 6.4969 9.14453C3.52425 9.74609 1.28597 12.2188 0.922684 15.25C0.840653 15.75 1.17268 16.082 1.59065 16.082H3.42268ZM8.34456 12.9336C6.83284 13.5469 5.58284 14.6641 4.8055 16.082C4.39143 16.8398 4.11409 17.6836 4.00862 18.582C3.92659 19.082 4.25862 19.4141 4.67659 19.4141H17.3446C17.7625 19.4141 18.0946 18.9961 18.0125 18.582C17.5946 15.082 14.5946 12.332 11.0125 12.332C10.4305 12.332 9.84456 12.4141 9.34456 12.582C9.26643 12.6016 9.20003 12.6289 9.14143 12.6641C8.86409 12.7422 8.60237 12.8281 8.34456 12.9336Z" fill="black"/>
</g>
<defs>
<clipPath id="clip0_2223_4839">
<rect width="20" height="20" fill="white"/>
</clipPath>
</defs>
</svg>
