<svg width="20" height="20" viewBox="0 0 20 20" fill="none" xmlns="http://www.w3.org/2000/svg">
<path d="M15.4173 16.25H12.084" stroke="black" stroke-width="1.5" stroke-linecap="round" stroke-linejoin="round"/>
<path d="M13.75 17.9166V14.5833" stroke="black" stroke-width="1.5" stroke-linecap="round" stroke-linejoin="round"/>
<path d="M10.1322 9.05841C10.0489 9.05008 9.94886 9.05008 9.85719 9.05841C7.87386 8.99175 6.29886 7.36675 6.29886 5.36675C6.29053 3.32508 7.94886 1.66675 9.99053 1.66675C12.0322 1.66675 13.6905 3.32508 13.6905 5.36675C13.6905 7.36675 12.1072 8.99175 10.1322 9.05841Z" stroke="black" stroke-width="1.5" stroke-linecap="round" stroke-linejoin="round"/>
<path d="M9.99023 18.1748C8.47357 18.1748 6.96523 17.7915 5.81523 17.0248C3.79857 15.6748 3.79857 13.4748 5.81523 12.1332C8.1069 10.5998 11.8652 10.5998 14.1569 12.1332" stroke="black" stroke-width="1.5" stroke-linecap="round" stroke-linejoin="round"/>
</svg>
