<svg width="131" height="32" viewBox="0 0 131 32" fill="none" xmlns="http://www.w3.org/2000/svg">
<g clip-path="url(#clip0_2364_3782)">
<g clip-path="url(#clip1_2364_3782)">
<path d="M31.7579 8.34027V23.4188C31.7579 28.0247 28.0247 31.7579 23.4188 31.7579H8.33908C3.73327 31.7579 0 28.0247 0 23.4188V8.34027C0 3.73446 3.7332 0 8.33908 0H23.4187C28.0246 0 31.7579 3.73446 31.7579 8.34027Z" fill="url(#paint0_linear_2364_3782)"/>
<path d="M31.7574 18.8166V23.4188C31.7574 28.0246 28.0242 31.7578 23.4183 31.7578H15.4776L10.4461 27.2079L10.4225 27.2179L8.43076 24.4071L9.20128 20.0353C9.17761 20.0005 9.15401 19.9668 9.13035 19.9307C8.05727 18.5129 7.41748 16.7491 7.41748 14.832C7.41748 10.1589 11.2055 6.37097 15.8785 6.37097C18.8325 6.37097 21.4317 7.88596 22.9454 10.1801L24.2624 12.0387L31.7574 18.8166Z" fill="#FCC80A" fill-opacity="0.66"/>
<path d="M15.644 6.08276C20.6111 6.08279 24.638 10.1124 24.6382 15.0837C24.6382 20.0548 20.6112 24.0846 15.644 24.0847C14.4012 24.0847 13.218 23.8301 12.1411 23.3738L8.56494 24.9539C8.17932 25.1242 7.75957 24.7958 7.83252 24.3806L8.50635 20.5544C7.34431 19.038 6.6499 17.1426 6.6499 15.0837C6.65013 10.1124 10.6769 6.08276 15.644 6.08276Z" stroke="#181818" stroke-width="0.310133"/>
<path d="M15.6382 6.67224C20.311 6.67224 24.099 10.4598 24.0991 15.1332C24.0991 19.8062 20.3111 23.5941 15.6382 23.5941C14.4459 23.5941 13.3116 23.3467 12.2827 22.9017L8.82861 24.4261C8.55652 24.5461 8.26071 24.3147 8.31201 24.0219L8.96338 20.3295C7.84555 18.8952 7.17725 17.0925 7.17725 15.1332C7.17746 10.4599 10.9655 6.67238 15.6382 6.67224ZM11.271 11.3334L13.5571 19.2152H13.9849L14.4468 17.807L12.5552 11.3334H11.271ZM14.9526 11.3334L14.064 14.5082L14.6382 16.4672H14.7505C15.0282 15.5066 15.3058 14.5385 15.5835 13.5629L17.1714 19.2152H17.5991L18.061 17.8295L16.2251 11.3334H14.9526ZM18.6802 11.3334L17.7456 14.5199L18.3198 16.4672H18.4321L19.9634 11.3334H18.6802Z" fill="#181818"/>
<path d="M12.415 11.2706L12.4277 11.3156L14.3193 17.7902L14.3252 17.8087L14.3193 17.8263L13.8574 19.2345L13.8438 19.2765H13.3242L13.3115 19.2325L11.0254 11.3507L11.002 11.2706H12.415ZM16.0859 11.2706L16.0986 11.3165L17.9346 17.8126L17.9395 17.8312L17.9336 17.8497L17.4717 19.2345L17.458 19.2765H16.9385L16.9248 19.2316L15.3965 13.7882C15.1386 14.6933 14.8819 15.5923 14.624 16.4845L14.6104 16.5294H14.4053L14.3916 16.4845L13.8174 14.5255L13.8125 14.5089L13.8174 14.4913L14.707 11.3165L14.7197 11.2706H16.0859ZM19.8604 11.2706L19.8369 11.3507L18.3057 16.4855L18.292 16.5294H18.0869L18.0742 16.4855L17.5 14.5372L17.4941 14.5197L17.5 14.5021L18.4346 11.3156L18.4473 11.2706H19.8604Z" stroke="white" stroke-width="0.124053"/>
</g>
<path d="M49.2239 17.6993L51.7759 10.2987H54.634L49.6152 22.8713L45.8724 15.0453L42.1125 22.8713L37.1107 10.2987H39.9689L42.5548 17.6993L45.8724 9.70322L49.2239 17.6993ZM58.0199 8.93763V22.2078H55.8082V8.93763H58.0199ZM60.8611 17.4441C60.8611 16.9224 60.759 16.5254 60.5548 16.2532C60.362 15.981 60.0331 15.8449 59.5681 15.8449C59.2618 15.8449 58.9896 15.913 58.7515 16.0491C58.5133 16.1738 58.3318 16.3553 58.207 16.5935C58.0823 16.8317 58.0199 17.1152 58.0199 17.4441H57.5776C57.5776 16.8203 57.6796 16.2589 57.8838 15.7598C58.0993 15.2608 58.4169 14.8638 58.8365 14.5689C59.2562 14.274 59.7722 14.1266 60.3847 14.1266C60.9972 14.1266 61.5019 14.24 61.8989 14.4669C62.2958 14.6937 62.5907 15.034 62.7835 15.4876C62.9763 15.93 63.0728 16.4744 63.0728 17.1209V22.2078H60.8611V17.4441ZM64.7177 18.2948C64.7177 17.4782 64.9048 16.7636 65.2791 16.1511C65.6648 15.5387 66.1808 15.0623 66.8273 14.722C67.4851 14.3818 68.228 14.2117 69.056 14.2117C69.884 14.2117 70.6212 14.3818 71.2677 14.722C71.9255 15.0623 72.4416 15.5387 72.8159 16.1511C73.2015 16.7636 73.3943 17.4782 73.3943 18.2948C73.3943 19.1001 73.2015 19.8146 72.8159 20.4384C72.4416 21.0509 71.9255 21.5272 71.2677 21.8675C70.6212 22.2078 69.884 22.3779 69.056 22.3779C68.228 22.3779 67.4851 22.2078 66.8273 21.8675C66.1808 21.5272 65.6648 21.0509 65.2791 20.4384C64.9048 19.8146 64.7177 19.1001 64.7177 18.2948ZM66.9634 18.2948C66.9634 18.7371 67.0541 19.1284 67.2356 19.4687C67.4284 19.7976 67.6836 20.0585 68.0012 20.2513C68.3188 20.4327 68.6704 20.5235 69.056 20.5235C69.4416 20.5235 69.7932 20.4327 70.1108 20.2513C70.4284 20.0585 70.6779 19.7976 70.8594 19.4687C71.0522 19.1284 71.1486 18.7371 71.1486 18.2948C71.1486 17.8524 71.0522 17.4611 70.8594 17.1209C70.6779 16.7806 70.4284 16.5198 70.1108 16.3383C69.7932 16.1568 69.4416 16.0661 69.056 16.0661C68.6704 16.0661 68.3188 16.1568 68.0012 16.3383C67.6836 16.5198 67.4284 16.7806 67.2356 17.1209C67.0541 17.4611 66.9634 17.8524 66.9634 18.2948ZM79.5619 14.3818H81.9948L79.1026 18.1757L82.1649 22.2078H79.7321L77.9627 19.7239L76.2274 22.2078H73.7095L76.8058 18.1757L73.8796 14.3818H76.3975L77.9627 16.6445L79.5619 14.3818ZM84.8201 19.7749C84.8201 20.0017 84.8768 20.2002 84.9903 20.3704C85.1037 20.5291 85.2568 20.6539 85.4496 20.7446C85.6538 20.824 85.8749 20.8637 86.1131 20.8637C86.4534 20.8637 86.7596 20.7957 87.0318 20.6596C87.304 20.5121 87.5252 20.308 87.6953 20.0471C87.8655 19.7749 87.9505 19.4517 87.9505 19.0774L88.2227 20.0982C88.2227 20.5972 88.081 21.0169 87.7974 21.3571C87.5252 21.6974 87.1679 21.9526 86.7256 22.1227C86.2946 22.2928 85.8409 22.3779 85.3645 22.3779C84.8768 22.3779 84.4232 22.2815 84.0035 22.0887C83.5839 21.8959 83.2436 21.618 82.9827 21.255C82.7332 20.8808 82.6084 20.4271 82.6084 19.894C82.6084 19.1341 82.875 18.533 83.4081 18.0906C83.9411 17.6483 84.6954 17.4271 85.6708 17.4271C86.1698 17.4271 86.6065 17.4782 86.9808 17.5802C87.3664 17.6823 87.6897 17.8071 87.9505 17.9545C88.2114 18.102 88.3985 18.2437 88.512 18.3798V19.4006C88.2057 19.1738 87.8598 19.0037 87.4742 18.8902C87.0999 18.7768 86.7029 18.7201 86.2833 18.7201C85.943 18.7201 85.6651 18.7655 85.4496 18.8562C85.2341 18.9356 85.0753 19.0547 84.9733 19.2135C84.8712 19.3609 84.8201 19.5481 84.8201 19.7749ZM83.9695 16.5935L83.1529 15.0963C83.5612 14.8808 84.0602 14.6767 84.65 14.4839C85.2398 14.2797 85.8976 14.1776 86.6235 14.1776C87.2927 14.1776 87.8881 14.274 88.4099 14.4669C88.9316 14.6597 89.3399 14.9432 89.6348 15.3175C89.9297 15.6804 90.0771 16.1285 90.0771 16.6615V22.2078H87.9505V17.1209C87.9505 16.9054 87.9165 16.7239 87.8484 16.5765C87.7804 16.4177 87.6726 16.2872 87.5252 16.1852C87.3891 16.0831 87.2246 16.0094 87.0318 15.964C86.839 15.9186 86.6235 15.8959 86.3853 15.8959C86.0224 15.8959 85.6765 15.9356 85.3475 16.015C85.0186 16.0944 84.7351 16.1908 84.4969 16.3043C84.2587 16.4177 84.0829 16.5141 83.9695 16.5935ZM99.3882 16.2532C99.3882 17.0358 99.564 17.722 99.9156 18.3118C100.279 18.8902 100.749 19.3382 101.328 19.6558C101.906 19.962 102.536 20.1152 103.216 20.1152C103.783 20.1152 104.288 20.0414 104.73 19.894C105.173 19.7466 105.57 19.5481 105.921 19.2985C106.284 19.049 106.596 18.7768 106.857 18.4819V21.221C106.369 21.6066 105.836 21.9072 105.258 22.1227C104.691 22.3382 103.97 22.4459 103.097 22.4459C102.19 22.4459 101.345 22.2985 100.562 22.0036C99.7908 21.7087 99.116 21.2834 98.5375 20.7276C97.9704 20.1719 97.5281 19.5197 97.2105 18.7711C96.9043 18.0112 96.7512 17.1719 96.7512 16.2532C96.7512 15.3345 96.9043 14.5009 97.2105 13.7523C97.5281 12.9924 97.9704 12.3346 98.5375 11.7788C99.116 11.223 99.7908 10.7977 100.562 10.5028C101.345 10.2079 102.19 10.0605 103.097 10.0605C103.97 10.0605 104.691 10.1682 105.258 10.3837C105.836 10.5992 106.369 10.8998 106.857 11.2854V14.0245C106.596 13.7296 106.284 13.4574 105.921 13.2079C105.57 12.9584 105.173 12.7599 104.73 12.6124C104.288 12.465 103.783 12.3913 103.216 12.3913C102.536 12.3913 101.906 12.5501 101.328 12.8676C100.749 13.1739 100.279 13.6162 99.9156 14.1946C99.564 14.7731 99.3882 15.4593 99.3882 16.2532ZM111.285 8.93763V22.2078H109.073V8.93763H111.285ZM114.126 17.4441C114.126 16.9224 114.024 16.5254 113.82 16.2532C113.627 15.981 113.298 15.8449 112.833 15.8449C112.527 15.8449 112.255 15.913 112.017 16.0491C111.779 16.1738 111.597 16.3553 111.472 16.5935C111.348 16.8317 111.285 17.1152 111.285 17.4441H110.843C110.843 16.8203 110.945 16.2589 111.149 15.7598C111.365 15.2608 111.682 14.8638 112.102 14.5689C112.521 14.274 113.038 14.1266 113.65 14.1266C114.262 14.1266 114.767 14.24 115.164 14.4669C115.561 14.6937 115.856 15.034 116.049 15.4876C116.242 15.93 116.338 16.4744 116.338 17.1209V22.2078H114.126V17.4441ZM120.076 19.7749C120.076 20.0017 120.132 20.2002 120.246 20.3704C120.359 20.5291 120.512 20.6539 120.705 20.7446C120.909 20.824 121.13 20.8637 121.369 20.8637C121.709 20.8637 122.015 20.7957 122.287 20.6596C122.559 20.5121 122.781 20.308 122.951 20.0471C123.121 19.7749 123.206 19.4517 123.206 19.0774L123.478 20.0982C123.478 20.5972 123.336 21.0169 123.053 21.3571C122.781 21.6974 122.423 21.9526 121.981 22.1227C121.55 22.2928 121.096 22.3779 120.62 22.3779C120.132 22.3779 119.679 22.2815 119.259 22.0887C118.839 21.8959 118.499 21.618 118.238 21.255C117.989 20.8808 117.864 20.4271 117.864 19.894C117.864 19.1341 118.13 18.533 118.663 18.0906C119.197 17.6483 119.951 17.4271 120.926 17.4271C121.425 17.4271 121.862 17.4782 122.236 17.5802C122.622 17.6823 122.945 17.8071 123.206 17.9545C123.467 18.102 123.654 18.2437 123.767 18.3798V19.4006C123.461 19.1738 123.115 19.0037 122.73 18.8902C122.355 18.7768 121.958 18.7201 121.539 18.7201C121.198 18.7201 120.921 18.7655 120.705 18.8562C120.49 18.9356 120.331 19.0547 120.229 19.2135C120.127 19.3609 120.076 19.5481 120.076 19.7749ZM119.225 16.5935L118.408 15.0963C118.817 14.8808 119.316 14.6767 119.905 14.4839C120.495 14.2797 121.153 14.1776 121.879 14.1776C122.548 14.1776 123.144 14.274 123.665 14.4669C124.187 14.6597 124.595 14.9432 124.89 15.3175C125.185 15.6804 125.333 16.1285 125.333 16.6615V22.2078H123.206V17.1209C123.206 16.9054 123.172 16.7239 123.104 16.5765C123.036 16.4177 122.928 16.2872 122.781 16.1852C122.645 16.0831 122.48 16.0094 122.287 15.964C122.094 15.9186 121.879 15.8959 121.641 15.8959C121.278 15.8959 120.932 15.9356 120.603 16.015C120.274 16.0944 119.991 16.1908 119.752 16.3043C119.514 16.4177 119.338 16.5141 119.225 16.5935ZM126.379 14.3818H131.21V16.2362H126.379V14.3818ZM127.723 11.6597H129.849V22.2078H127.723V11.6597Z" fill="black"/>
</g>
<defs>
<linearGradient id="paint0_linear_2364_3782" x1="15.8789" y1="0" x2="15.8789" y2="31.7579" gradientUnits="userSpaceOnUse">
<stop stop-color="#FFEDAB"/>
<stop offset="1" stop-color="#FCC604"/>
</linearGradient>
<clipPath id="clip0_2364_3782">
<rect width="131" height="31.7576" fill="white"/>
</clipPath>
<clipPath id="clip1_2364_3782">
<rect width="31.7576" height="31.7576" fill="white"/>
</clipPath>
</defs>
</svg>
