<svg width="24" height="24" viewBox="0 0 24 24" fill="none" xmlns="http://www.w3.org/2000/svg">
<path fill-rule="evenodd" clip-rule="evenodd" d="M20.5174 20.5917C21.2254 19.5118 21.4894 18.9598 22.0294 17.7478C18.0455 16.2359 17.4096 10.5601 21.3454 8.38815C20.1455 6.8762 18.4535 6.00024 16.8576 6.00024C15.7056 6.00024 14.9137 6.30025 14.2057 6.57624C13.6057 6.80423 13.0657 7.0082 12.3937 7.0082C11.6738 7.0082 11.0378 6.78023 10.3658 6.54024C9.63385 6.27625 8.86587 6.00024 7.9059 6.00024C6.11797 6.00024 4.21004 7.09221 2.99809 8.96414C1.29415 11.604 1.59414 16.5479 4.34204 20.7717C5.32601 22.2836 6.64596 23.9756 8.36189 23.9996C9.08187 24.0116 9.54985 23.7956 10.0658 23.5676C10.6538 23.3036 11.2898 23.0156 12.4057 23.0156C13.5217 23.0036 14.1457 23.3036 14.7337 23.5676C15.2376 23.7956 15.6936 24.0116 16.4016 23.9996C18.1415 23.9756 19.5335 22.1037 20.5174 20.5917Z" fill="black"/>
<path fill-rule="evenodd" clip-rule="evenodd" d="M16.9564 0C17.1701 1.25807 16.5692 2.50472 15.7813 3.37393C14.94 4.31177 13.471 5.04372 12.0555 4.99797C11.8017 3.78564 12.4561 2.539 13.2573 1.7041C14.1521 0.789142 15.6611 0.0800591 16.9564 0Z" fill="black"/>
</svg>
