<svg width="218" height="218" viewBox="0 0 218 218" fill="none" xmlns="http://www.w3.org/2000/svg">
<path d="M218 166.726H0V166.835H218V166.726Z" fill="#EBEBEB"/>
<path d="M137.633 169.694H126.533V169.803H137.633V169.694Z" fill="#EBEBEB"/>
<path d="M198.576 172.054H172.271V172.163H198.576V172.054Z" fill="#EBEBEB"/>
<path d="M124.17 169.75H96.9932V169.859H124.17V169.75Z" fill="#EBEBEB"/>
<path d="M79.3744 173.011H73.6885V173.12H79.3744V173.011Z" fill="#EBEBEB"/>
<path d="M110.779 173.011H84.8911V173.12H110.779V173.011Z" fill="#EBEBEB"/>
<path d="M39.6351 171.169H22.8691V171.278H39.6351V171.169Z" fill="#EBEBEB"/>
<path d="M103.333 147.281H19.1415C17.7694 147.281 16.6528 146.164 16.6528 144.792V26.4477C16.6528 25.0756 17.7694 23.959 19.1415 23.959H103.333C104.704 23.959 105.821 25.0756 105.821 26.4477V144.792C105.821 146.164 104.704 147.281 103.333 147.281ZM19.1415 24.0684C17.8292 24.0684 16.7618 25.1357 16.7618 26.4481V144.792C16.7618 146.105 17.8292 147.172 19.1415 147.172H103.333C104.645 147.172 105.712 146.105 105.712 144.792V26.4477C105.712 25.1357 104.645 24.068 103.333 24.068L19.1415 24.0684Z" fill="#EBEBEB"/>
<path d="M197.647 147.281H113.457C112.084 147.281 110.968 146.164 110.968 144.792V26.4477C110.968 25.0756 112.085 23.959 113.457 23.959H197.647C199.02 23.959 200.136 25.0756 200.136 26.4477V144.792C200.136 146.164 199.02 147.281 197.647 147.281ZM113.457 24.0684C112.145 24.0684 111.077 25.1357 111.077 26.4481V144.792C111.077 146.105 112.145 147.172 113.457 147.172H197.647C198.96 147.172 200.027 146.105 200.027 144.792V26.4477C200.027 25.1357 198.96 24.068 197.647 24.068L113.457 24.0684Z" fill="#EBEBEB"/>
<path d="M108.992 186.416C155.68 186.416 193.528 184.205 193.528 181.479C193.528 178.752 155.68 176.542 108.992 176.542C62.3044 176.542 24.4565 178.752 24.4565 181.479C24.4565 184.205 62.3044 186.416 108.992 186.416Z" fill="#F5F5F5"/>
<path d="M97.915 25.5C104.689 25.5001 110.23 30.8962 110.41 37.668L113.199 142.668C113.386 149.699 107.738 155.5 100.704 155.5H61.085C54.3108 155.5 48.7698 150.104 48.5898 143.332L45.8008 38.332C45.614 31.301 51.2624 25.5001 58.2959 25.5H97.915Z" fill="url(#paint0_linear_2348_3488)" stroke="black" stroke-width="3"/>
<path d="M91.3425 95.7381C97.972 88.9952 97.6907 77.9686 90.7142 71.1095C83.7377 64.2504 72.7079 64.1563 66.0784 70.8992C59.449 77.6422 59.7303 88.6688 66.7067 95.5279C73.6832 102.387 84.713 102.481 91.3425 95.7381Z" fill="url(#paint1_linear_2348_3488)"/>
<path d="M93.0766 83.3156C93.1612 85.7977 92.611 88.1281 91.5729 90.1621C89.3009 94.642 84.657 97.6887 79.1926 97.6887C73.7287 97.6887 68.8773 94.642 66.3001 90.1621C65.1238 88.1286 64.4149 85.7981 64.3303 83.3156C64.06 75.376 70.2751 68.9424 78.2143 68.9424C86.1534 68.9424 92.8063 75.376 93.0766 83.3156Z" fill="white"/>
<path opacity="0.6" d="M91.5721 90.1625C89.3001 94.6424 84.6562 97.6892 79.1918 97.6892C73.7279 97.6892 68.8765 94.6424 66.2993 90.1625C69.8357 87.7453 74.1299 86.334 78.8051 86.334C83.4812 86.334 87.8713 87.7449 91.5721 90.1625Z" fill="url(#paint2_linear_2348_3488)"/>
<path opacity="0.6" d="M83.1891 82.9636C85.6263 80.4846 85.5229 76.4307 82.9581 73.909C80.3932 71.3873 76.3382 71.3527 73.9009 73.8317C71.4636 76.3107 71.567 80.3646 74.1319 82.8863C76.6967 85.4079 80.7518 85.4426 83.1891 82.9636Z" fill="url(#paint3_linear_2348_3488)"/>
<path d="M99.634 118.27H60.1393L59.8721 110.422H99.3671L99.634 118.27Z" fill="white"/>
<path d="M145.587 75.9863C146.168 76.9172 146.648 77.8105 147.147 78.7379C147.644 79.6561 148.093 80.601 148.534 81.5527C149.401 83.4637 150.177 85.4353 150.757 87.5395C150.834 87.7976 150.894 88.0714 150.958 88.3395L151.054 88.7428L151.101 88.9442L151.158 89.2765C151.283 90.1624 151.173 90.8849 151.022 91.5223C150.709 92.7928 150.205 93.8061 149.665 94.7731C148.562 96.6876 147.275 98.3182 145.791 99.8626L143.955 98.4726C144.86 96.7547 145.755 94.9549 146.413 93.2245C146.731 92.3638 146.999 91.4879 147.078 90.7689C147.116 90.4153 147.091 90.1114 147.042 89.9985L146.869 89.4657C146.798 89.2468 146.734 89.0293 146.648 88.8087C146.02 87.0494 145.221 85.2823 144.351 83.54C143.493 81.8043 142.543 80.0372 141.607 78.3878L145.587 75.9863Z" fill="#FF8B7B"/>
<path d="M144.423 97.8486L142.421 98.9112L144.722 101.606C144.722 101.606 146.159 100.634 146.224 99.1497L144.423 97.8486Z" fill="#FF8B7B"/>
<path d="M139.724 100.573L142.19 102.53L144.719 101.607L142.418 98.9121L139.724 100.573Z" fill="#FF8B7B"/>
<path d="M131.304 61.7217C131.254 61.9641 131.086 62.1346 130.927 62.1023C130.769 62.07 130.681 61.8477 130.73 61.6053C130.779 61.3628 130.948 61.1924 131.106 61.2246C131.264 61.2569 131.353 61.4797 131.304 61.7217Z" fill="#263238"/>
<path d="M131.104 62.1387C131.104 62.1387 130.268 63.4249 129.524 63.9764C129.872 64.4639 130.638 64.429 130.638 64.429L131.104 62.1387Z" fill="#FF5652"/>
<path d="M130.319 70.6925L130.338 67.835L134.123 68.2923C134.123 68.2923 134.058 70.7496 131.944 71.4721L130.319 70.6925Z" fill="#FF8B7B"/>
<path d="M131.407 65.7764L134.072 66.542L134.123 68.2917L130.338 67.8343L131.407 65.7764Z" fill="#FF8B7B"/>
<path opacity="0.2" d="M134.07 66.5418L131.406 65.7744L130.887 66.7685C130.952 68.4558 131.981 69.8423 133.346 70.4658C134.087 69.4935 134.117 68.2901 134.117 68.2901L134.07 66.5418Z" fill="black"/>
<path d="M132.459 60.5561C132.494 60.5561 132.53 60.5434 132.557 60.5173C132.616 60.4628 132.62 60.3708 132.565 60.3119C132.02 59.7216 131.358 59.8267 131.329 59.8314C131.25 59.845 131.197 59.92 131.211 59.9989C131.224 60.0778 131.3 60.1305 131.378 60.1179C131.399 60.1144 131.917 60.0385 132.352 60.5094C132.381 60.5404 132.42 60.5561 132.459 60.5561Z" fill="#263238"/>
<path d="M138.034 66.1338C137.594 68.3774 137.328 71.4857 138.898 72.9829C138.898 72.9829 138.284 75.2588 134.116 75.2588C129.532 75.2588 131.91 73.2615 131.91 73.2615C133.816 72.6703 133.799 70.4999 133.363 68.7563L138.034 66.1338Z" fill="#FF8B7B"/>
<path d="M139.755 74.4825C140.163 73.9044 140.147 72.078 139.711 71.7558C139.007 71.2356 135.998 71.1162 131.943 72.0483C132.38 73.8176 131.445 74.745 131.445 74.745L139.755 74.4825Z" fill="url(#paint4_linear_2348_3488)"/>
<path d="M153.38 177.991C153.073 178.057 152.765 178.075 152.617 177.949C152.555 177.896 152.492 177.794 152.547 177.611C152.576 177.515 152.638 177.443 152.734 177.398C153.148 177.2 154.099 177.588 154.14 177.604C154.167 177.615 154.184 177.641 154.185 177.669C154.186 177.698 154.17 177.724 154.144 177.737C153.998 177.807 153.69 177.924 153.38 177.991ZM152.882 177.501C152.85 177.508 152.822 177.517 152.797 177.529C152.739 177.556 152.703 177.597 152.686 177.653C152.647 177.784 152.696 177.825 152.712 177.838C152.877 177.978 153.489 177.849 153.921 177.676C153.628 177.573 153.154 177.442 152.882 177.501Z" fill="url(#paint5_linear_2348_3488)"/>
<path d="M154.132 177.743C154.121 177.745 154.108 177.745 154.097 177.741C153.75 177.64 153.008 177.113 152.999 176.766C152.997 176.702 153.02 176.588 153.185 176.531C153.292 176.493 153.4 176.502 153.507 176.556C153.916 176.766 154.175 177.615 154.186 177.651C154.194 177.677 154.187 177.704 154.168 177.723C154.158 177.733 154.146 177.74 154.132 177.743ZM153.264 176.659C153.254 176.661 153.243 176.664 153.232 176.668C153.143 176.699 153.144 176.743 153.144 176.762C153.15 176.968 153.639 177.381 153.998 177.548C153.908 177.303 153.703 176.82 153.441 176.686C153.381 176.655 153.323 176.646 153.264 176.659Z" fill="url(#paint6_linear_2348_3488)"/>
<path d="M130.746 178.506C130.353 178.506 129.973 178.452 129.845 178.275C129.801 178.213 129.765 178.107 129.851 177.957C129.899 177.873 129.977 177.816 130.082 177.787C130.592 177.648 131.664 178.259 131.709 178.285C131.735 178.3 131.749 178.33 131.744 178.36C131.74 178.389 131.717 178.413 131.687 178.419C131.491 178.458 131.113 178.506 130.746 178.506ZM130.26 177.911C130.209 177.911 130.161 177.916 130.119 177.927C130.052 177.946 130.006 177.979 129.977 178.029C129.926 178.119 129.945 178.164 129.963 178.189C130.106 178.388 130.881 178.392 131.451 178.312C131.167 178.166 130.618 177.911 130.26 177.911Z" fill="url(#paint7_linear_2348_3488)"/>
<path d="M131.664 178.421C131.654 178.421 131.644 178.419 131.634 178.415C131.264 178.249 130.531 177.586 130.587 177.238C130.6 177.157 130.658 177.056 130.857 177.035C131.006 177.02 131.141 177.062 131.26 177.16C131.65 177.48 131.733 178.306 131.736 178.342C131.739 178.367 131.727 178.393 131.706 178.407C131.694 178.417 131.679 178.421 131.664 178.421ZM130.916 177.178C130.901 177.178 130.887 177.179 130.872 177.18C130.741 177.193 130.733 177.245 130.73 177.262C130.697 177.47 131.195 177.991 131.573 178.218C131.534 177.977 131.424 177.482 131.168 177.272C131.091 177.209 131.008 177.178 130.916 177.178Z" fill="url(#paint8_linear_2348_3488)"/>
<path d="M135.044 178.348H131.978L131.672 171.246H134.739L135.044 178.348Z" fill="#FF8B7B"/>
<path d="M157.548 176.928L154.551 177.577L151.542 170.963L154.539 170.313L157.548 176.928Z" fill="#FF8B7B"/>
<path d="M154.26 177.276L157.627 176.547C157.749 176.521 157.874 176.583 157.926 176.697L159.095 179.233C159.217 179.496 159.056 179.804 158.772 179.861C157.592 180.095 157.006 180.15 155.525 180.47C154.614 180.667 152.557 181.169 151.299 181.441C150.069 181.707 149.608 180.505 150.098 180.281C152.298 179.276 153.217 178.391 153.813 177.566C153.921 177.417 154.081 177.315 154.26 177.276Z" fill="#263238"/>
<path d="M131.992 177.994H135.341C135.467 177.994 135.575 178.081 135.602 178.203L136.208 180.929C136.271 181.212 136.056 181.48 135.767 181.475C134.559 181.454 132.813 181.383 131.295 181.383C129.519 181.383 127.986 181.48 125.904 181.48C124.644 181.48 124.295 180.207 124.822 180.092C127.222 179.567 129.18 179.511 131.253 178.233C131.479 178.094 131.728 177.994 131.992 177.994Z" fill="#263238"/>
<path d="M144.388 73.6753C147.263 74.3341 149.633 81.672 149.633 81.672L143.861 86.0713C143.861 86.0713 141.742 84.0739 140.8 80.4037C139.811 76.5577 141.449 73.0017 144.388 73.6753Z" fill="url(#paint9_linear_2348_3488)"/>
<path d="M129.275 82.4336C128.558 83.2075 127.843 83.8959 127.102 84.6044C126.734 84.9567 126.358 85.302 125.974 85.6408L125.395 86.1478L125.25 86.2738C125.179 86.3344 125.093 86.4064 125.001 86.4766C124.809 86.6183 124.599 86.7835 124.159 86.9741C123.926 87.0639 123.626 87.1829 123.098 87.1934C122.848 87.1973 122.508 87.1537 122.183 87.0307C121.851 86.9078 121.53 86.695 121.31 86.4761C120.854 86.0179 120.717 85.6159 120.627 85.3469C120.544 85.0696 120.52 84.8717 120.503 84.6986C120.475 84.3602 120.493 84.1313 120.511 83.9194C120.532 83.7102 120.561 83.5292 120.592 83.3583C120.721 82.686 120.902 82.1436 121.099 81.6004C121.298 81.0628 121.518 80.5465 121.776 80.0247C122.053 79.4692 122.32 79.0663 122.587 78.602C123.664 76.8013 124.928 75.1567 126.272 73.6067C127.644 72.0672 129.085 70.6598 130.741 69.3701L132.346 71.0213C131.219 72.5294 130.11 74.1456 129.086 75.7396C128.063 77.3454 127.114 78.9804 126.297 80.6429C126.108 81.0536 125.876 81.5036 125.745 81.8471C125.592 82.2225 125.452 82.6258 125.336 83.023C125.222 83.4154 125.13 83.8244 125.088 84.1244C125.079 84.1967 125.074 84.26 125.074 84.2966C125.073 84.3301 125.081 84.3489 125.077 84.256C125.073 84.2055 125.068 84.13 125.021 83.9704C124.968 83.8187 124.885 83.5314 124.518 83.1599C124.341 82.986 124.075 82.8037 123.799 82.7052C123.533 82.601 123.254 82.5705 123.065 82.5713C122.662 82.5805 122.482 82.6629 122.362 82.7056C122.148 82.798 122.144 82.8229 122.146 82.8133L122.314 82.6607L122.837 82.1811L123.88 81.2049C124.57 80.5548 125.264 79.8616 125.919 79.2181L129.275 82.4336Z" fill="#FF8B7B"/>
<path opacity="0.2" d="M141.92 79.0713C143.481 80.616 143.99 83.4295 144.111 85.8755L143.857 86.0717C143.857 86.0717 141.736 84.0722 140.793 80.4028C140.734 80.1735 140.684 79.9437 140.642 79.7183L141.92 79.0713Z" fill="black"/>
<path d="M126.235 76.7505C125.608 80.0637 125.216 86.867 127.036 100.34H143.439C143.552 97.8224 141.97 85.5394 144.399 73.6754C144.399 73.6754 141.587 73.1112 138.908 72.9822C136.812 72.881 133.777 72.8143 131.935 72.9826C131.166 73.0528 130.411 73.164 129.738 73.283C127.964 73.5965 126.57 74.9808 126.235 76.7505Z" fill="url(#paint10_linear_2348_3488)"/>
<path opacity="0.2" d="M128.734 81.6483L125.77 80.9385C125.678 82.7335 125.67 84.9584 125.803 87.7096C127.169 86.1565 128.909 83.7354 128.734 81.6483Z" fill="black"/>
<path opacity="0.2" d="M131.661 171.249L131.818 174.91H134.886L134.729 171.249H131.661Z" fill="black"/>
<path opacity="0.2" d="M154.53 170.315L151.531 170.965L153.083 174.374L156.082 173.725L154.53 170.315Z" fill="black"/>
<path d="M139.489 62.8503C138.701 65.7903 138.39 67.5509 136.575 68.7734C133.846 70.612 130.449 68.5018 130.343 65.3857C130.247 62.5809 131.552 58.2444 134.706 57.6519C137.814 57.0685 140.277 59.9104 139.489 62.8503Z" fill="#FF8B7B"/>
<path d="M132.611 62.964C132.465 62.5699 131.786 59.5318 132.423 58.7431C133.061 57.9544 140.32 58.5216 141.393 59.5781C143.174 61.3303 141.938 62.8943 139.989 64.9121C138.523 66.4294 138.466 68.1398 137.727 68.3905C136.431 68.8304 134.422 68.4171 134.019 67.0337C133.616 65.6507 132.611 62.964 132.611 62.964Z" fill="#263238"/>
<path d="M140.508 56.1224C137.942 55.0298 133.132 56.2384 130.534 55.6123C130.442 56.9574 131.253 59.1143 133.851 59.6941C133.851 59.6941 137.538 60.4131 140.391 60.2971C143.243 60.1811 142.687 57.0502 140.508 56.1224Z" fill="#263238"/>
<path d="M140.917 59.6719C140.917 59.6719 142.503 59.8507 143.629 59.1514C144.111 60.3107 141.474 60.629 140.917 59.6719Z" fill="#263238"/>
<path d="M134.006 63.0844C133.958 63.8801 133.589 64.6287 133.144 65.1188C132.476 65.8552 131.778 65.397 131.659 64.4997C131.553 63.6922 131.772 62.3358 132.589 61.9299C133.395 61.5292 134.06 62.1745 134.006 63.0844Z" fill="#FF8B7B"/>
<path d="M132.845 100.341C132.845 100.341 136.325 123.777 138.236 132.557C140.329 142.172 151.548 173.983 151.548 173.983L157.038 172.795C157.038 172.795 149.193 146.871 147.436 133.429C146.087 123.104 143.43 100.341 143.43 100.341H132.845Z" fill="black"/>
<path d="M150.237 172.15C150.213 172.156 151.26 174.136 151.26 174.136L157.436 172.798L156.916 170.941L150.237 172.15Z" fill="#263238"/>
<path opacity="0.3" d="M135.047 108.691C139.071 109.481 138.645 124.488 138.162 132.206C137.001 126.75 135.302 116.251 134.142 108.8C134.408 108.667 134.709 108.625 135.047 108.691Z" fill="black"/>
<path d="M127.026 100.341C127.026 100.341 126.603 123.27 126.937 132.622C127.284 142.349 130.682 174.2 130.682 174.2H135.877C135.877 174.2 136.067 142.918 136.298 133.364C136.55 122.95 137.808 100.341 137.808 100.341H127.026Z" fill="black"/>
<path d="M129.686 172.131C129.662 172.131 129.979 174.288 129.979 174.288H136.299L136.47 172.363L129.686 172.131Z" fill="#263238"/>
<path d="M132.652 77.757C134.123 81.7198 125.483 86.3876 125.483 86.3876L121.743 81.5794C121.743 81.5794 124.238 76.6134 127.3 74.3745C131.083 71.609 131.532 74.7403 132.652 77.757Z" fill="url(#paint11_linear_2348_3488)"/>
<path d="M62.7327 112.859V113.749H63.7791V114.154H62.7327V115.083H63.9099V115.488H62.2357V112.454H63.9099V112.859H62.7327ZM67.4303 113.047C67.6192 113.047 67.7878 113.086 67.936 113.164C68.0872 113.243 68.2049 113.359 68.2892 113.513C68.3764 113.667 68.42 113.853 68.42 114.071V115.488H67.9273V114.145C67.9273 113.93 67.8735 113.766 67.766 113.653C67.6584 113.536 67.5116 113.478 67.3256 113.478C67.1396 113.478 66.9914 113.536 66.8809 113.653C66.7734 113.766 66.7196 113.93 66.7196 114.145V115.488H66.2269V114.145C66.2269 113.93 66.1731 113.766 66.0656 113.653C65.958 113.536 65.8112 113.478 65.6252 113.478C65.4392 113.478 65.291 113.536 65.1805 113.653C65.073 113.766 65.0192 113.93 65.0192 114.145V115.488H64.5221V113.086H65.0192V113.361C65.1006 113.262 65.2038 113.185 65.3287 113.13C65.4537 113.074 65.5874 113.047 65.7299 113.047C65.9217 113.047 66.0932 113.087 66.2443 113.169C66.3955 113.25 66.5118 113.368 66.5931 113.522C66.6658 113.377 66.7792 113.262 66.9332 113.177C67.0873 113.09 67.253 113.047 67.4303 113.047ZM69.5495 113.439C69.6338 113.329 69.7486 113.236 69.8939 113.16C70.0393 113.084 70.2035 113.047 70.3866 113.047C70.5959 113.047 70.7863 113.099 70.9578 113.204C71.1322 113.305 71.2688 113.449 71.3676 113.635C71.4664 113.821 71.5158 114.035 71.5158 114.276C71.5158 114.517 71.4664 114.734 71.3676 114.926C71.2688 115.115 71.1322 115.263 70.9578 115.371C70.7863 115.475 70.5959 115.528 70.3866 115.528C70.2035 115.528 70.0407 115.491 69.8983 115.419C69.7559 115.343 69.6396 115.25 69.5495 115.139V116.631H69.0524V113.086H69.5495V113.439ZM71.0101 114.276C71.0101 114.111 70.9752 113.968 70.9054 113.849C70.8386 113.727 70.7485 113.635 70.6351 113.574C70.5247 113.51 70.4055 113.478 70.2776 113.478C70.1526 113.478 70.0334 113.51 69.9201 113.574C69.8096 113.638 69.7195 113.731 69.6498 113.853C69.5829 113.975 69.5495 114.119 69.5495 114.285C69.5495 114.451 69.5829 114.596 69.6498 114.721C69.7195 114.843 69.8096 114.936 69.9201 115C70.0334 115.064 70.1526 115.096 70.2776 115.096C70.4055 115.096 70.5247 115.064 70.6351 115C70.7485 114.933 70.8386 114.837 70.9054 114.712C70.9752 114.587 71.0101 114.442 71.0101 114.276ZM72.5873 113.491V114.821C72.5873 114.911 72.6076 114.977 72.6483 115.017C72.6919 115.055 72.7646 115.074 72.8663 115.074H73.1715V115.488H72.7791C72.5553 115.488 72.3838 115.436 72.2646 115.331C72.1454 115.227 72.0859 115.057 72.0859 114.821V113.491H71.8025V113.086H72.0859V112.489H72.5873V113.086H73.1715V113.491H72.5873ZM75.7922 113.086L74.3185 116.618H73.804L74.2923 115.449L73.3462 113.086H73.8999L74.5757 114.917L75.2777 113.086H75.7922ZM78.9218 113.932C79.0845 113.961 79.2226 114.047 79.336 114.189C79.4493 114.331 79.506 114.493 79.506 114.673C79.506 114.827 79.4653 114.967 79.3839 115.092C79.3054 115.214 79.1906 115.311 79.0395 115.384C78.8883 115.453 78.7125 115.488 78.5119 115.488H77.2998V112.458H78.4552C78.6616 112.458 78.8389 112.493 78.9872 112.563C79.1354 112.632 79.2473 112.727 79.3229 112.846C79.3984 112.962 79.4362 113.093 79.4362 113.239C79.4362 113.413 79.3897 113.558 79.2967 113.675C79.2037 113.791 79.0787 113.877 78.9218 113.932ZM77.7969 113.731H78.4116C78.5744 113.731 78.7008 113.695 78.791 113.622C78.884 113.547 78.9305 113.439 78.9305 113.3C78.9305 113.163 78.884 113.057 78.791 112.981C78.7008 112.903 78.5744 112.864 78.4116 112.864H77.7969V113.731ZM78.4683 115.083C78.6369 115.083 78.7692 115.042 78.8651 114.961C78.961 114.879 79.009 114.766 79.009 114.621C79.009 114.472 78.9581 114.355 78.8564 114.267C78.7546 114.18 78.6195 114.137 78.4509 114.137H77.7969V115.083H78.4683ZM80.5432 112.262V115.488H80.0461V112.262H80.5432ZM82.2378 115.528C82.0111 115.528 81.8061 115.477 81.623 115.375C81.4399 115.27 81.296 115.125 81.1914 114.939C81.0867 114.75 81.0344 114.532 81.0344 114.285C81.0344 114.041 81.0882 113.824 81.1957 113.635C81.3033 113.446 81.4501 113.301 81.6361 113.199C81.8221 113.098 82.0299 113.047 82.2596 113.047C82.4892 113.047 82.697 113.098 82.8831 113.199C83.0691 113.301 83.2159 113.446 83.3234 113.635C83.431 113.824 83.4847 114.041 83.4847 114.285C83.4847 114.529 83.4295 114.746 83.3191 114.935C83.2086 115.123 83.0575 115.27 82.8656 115.375C82.6767 115.477 82.4674 115.528 82.2378 115.528ZM82.2378 115.096C82.3657 115.096 82.4848 115.065 82.5953 115.004C82.7087 114.943 82.8002 114.852 82.87 114.73C82.9397 114.608 82.9746 114.459 82.9746 114.285C82.9746 114.111 82.9412 113.964 82.8743 113.845C82.8075 113.722 82.7188 113.631 82.6084 113.57C82.4979 113.509 82.3787 113.478 82.2509 113.478C82.123 113.478 82.0038 113.509 81.8933 113.57C81.7858 113.631 81.7 113.722 81.6361 113.845C81.5721 113.964 81.5402 114.111 81.5402 114.285C81.5402 114.544 81.6056 114.744 81.7364 114.887C81.8701 115.026 82.0372 115.096 82.2378 115.096ZM83.8104 114.285C83.8104 114.038 83.8598 113.821 83.9586 113.635C84.0604 113.446 84.1999 113.301 84.3772 113.199C84.5545 113.098 84.758 113.047 84.9876 113.047C85.2783 113.047 85.5181 113.116 85.707 113.256C85.8988 113.393 86.0282 113.589 86.095 113.845H85.5588C85.5152 113.725 85.4454 113.632 85.3495 113.566C85.2536 113.499 85.1329 113.465 84.9876 113.465C84.7841 113.465 84.6214 113.538 84.4993 113.683C84.3801 113.826 84.3205 114.026 84.3205 114.285C84.3205 114.544 84.3801 114.746 84.4993 114.891C84.6214 115.036 84.7841 115.109 84.9876 115.109C85.2754 115.109 85.4657 114.983 85.5588 114.73H86.095C86.0253 114.974 85.8945 115.169 85.7026 115.314C85.5108 115.456 85.2725 115.528 84.9876 115.528C84.758 115.528 84.5545 115.477 84.3772 115.375C84.1999 115.27 84.0604 115.125 83.9586 114.939C83.8598 114.75 83.8104 114.532 83.8104 114.285ZM87.5409 114.289L88.6483 115.488H87.9769L87.0874 114.455V115.488H86.5904V112.262H87.0874V114.137L87.9594 113.086H88.6483L87.5409 114.289ZM90.6342 115.087H91.6588V115.488H90.1371V112.458H90.6342V115.087ZM92.3273 112.768C92.2372 112.768 92.1616 112.737 92.1006 112.676C92.0396 112.615 92.009 112.539 92.009 112.449C92.009 112.359 92.0396 112.284 92.1006 112.223C92.1616 112.162 92.2372 112.131 92.3273 112.131C92.4145 112.131 92.4886 112.162 92.5497 112.223C92.6107 112.284 92.6412 112.359 92.6412 112.449C92.6412 112.539 92.6107 112.615 92.5497 112.676C92.4886 112.737 92.4145 112.768 92.3273 112.768ZM92.5715 113.086V115.488H92.0744V113.086H92.5715ZM94.0961 115.528C93.9071 115.528 93.7371 115.494 93.5859 115.427C93.4377 115.357 93.32 115.264 93.2328 115.148C93.1456 115.029 93.0991 114.897 93.0933 114.751H93.6077C93.6165 114.853 93.6644 114.939 93.7516 115.009C93.8417 115.076 93.9536 115.109 94.0873 115.109C94.2269 115.109 94.3344 115.083 94.41 115.03C94.4885 114.975 94.5277 114.905 94.5277 114.821C94.5277 114.731 94.4841 114.664 94.3969 114.621C94.3126 114.577 94.1774 114.529 93.9914 114.477C93.8112 114.427 93.6644 114.379 93.5511 114.333C93.4377 114.286 93.3389 114.215 93.2546 114.119C93.1732 114.023 93.1325 113.897 93.1325 113.74C93.1325 113.612 93.1703 113.496 93.2459 113.391C93.3214 113.284 93.429 113.199 93.5685 113.138C93.7109 113.077 93.8737 113.047 94.0568 113.047C94.33 113.047 94.5495 113.116 94.7152 113.256C94.8838 113.393 94.9739 113.58 94.9855 113.818H94.4885C94.4797 113.711 94.4361 113.625 94.3577 113.561C94.2792 113.497 94.1731 113.465 94.0394 113.465C93.9086 113.465 93.8083 113.49 93.7385 113.539C93.6688 113.589 93.6339 113.654 93.6339 113.736C93.6339 113.8 93.6571 113.853 93.7037 113.897C93.7502 113.94 93.8068 113.975 93.8737 114.002C93.9405 114.025 94.0394 114.055 94.1702 114.093C94.3446 114.14 94.487 114.188 94.5975 114.237C94.7108 114.283 94.8082 114.353 94.8896 114.446C94.971 114.539 95.0131 114.663 95.016 114.817C95.016 114.953 94.9782 115.076 94.9027 115.183C94.8271 115.291 94.7195 115.375 94.58 115.436C94.4434 115.497 94.2821 115.528 94.0961 115.528ZM96.133 113.491V114.821C96.133 114.911 96.1533 114.977 96.194 115.017C96.2376 115.055 96.3103 115.074 96.412 115.074H96.7172V115.488H96.3248C96.101 115.488 95.9295 115.436 95.8103 115.331C95.6911 115.227 95.6316 115.057 95.6316 114.821V113.491H95.3482V113.086H95.6316V112.489H96.133V113.086H96.7172V113.491H96.133Z" fill="black"/>
<rect x="68" y="31" width="23" height="6" rx="3" fill="black"/>
<defs>
<linearGradient id="paint0_linear_2348_3488" x1="79.5" y1="27" x2="79.5" y2="154" gradientUnits="userSpaceOnUse">
<stop stop-color="#FFEDAB"/>
<stop offset="1" stop-color="#FCC604"/>
</linearGradient>
<linearGradient id="paint1_linear_2348_3488" x1="66.0784" y1="70.8992" x2="91.3425" y2="95.7381" gradientUnits="userSpaceOnUse">
<stop stop-color="#FFEDAB"/>
<stop offset="1" stop-color="#FCC604"/>
</linearGradient>
<linearGradient id="paint2_linear_2348_3488" x1="78.9357" y1="86.334" x2="78.9357" y2="97.6892" gradientUnits="userSpaceOnUse">
<stop stop-color="#FFEDAB"/>
<stop offset="1" stop-color="#FCC604"/>
</linearGradient>
<linearGradient id="paint3_linear_2348_3488" x1="73.9009" y1="73.8317" x2="83.1891" y2="82.9636" gradientUnits="userSpaceOnUse">
<stop stop-color="#FFEDAB"/>
<stop offset="1" stop-color="#FCC604"/>
</linearGradient>
<linearGradient id="paint4_linear_2348_3488" x1="135.747" y1="71.3555" x2="135.747" y2="74.745" gradientUnits="userSpaceOnUse">
<stop stop-color="#FFEDAB"/>
<stop offset="1" stop-color="#FCC604"/>
</linearGradient>
<linearGradient id="paint5_linear_2348_3488" x1="153.355" y1="177.342" x2="153.355" y2="178.042" gradientUnits="userSpaceOnUse">
<stop stop-color="#FFEDAB"/>
<stop offset="1" stop-color="#FCC604"/>
</linearGradient>
<linearGradient id="paint6_linear_2348_3488" x1="153.594" y1="176.508" x2="153.594" y2="177.744" gradientUnits="userSpaceOnUse">
<stop stop-color="#FFEDAB"/>
<stop offset="1" stop-color="#FCC604"/>
</linearGradient>
<linearGradient id="paint7_linear_2348_3488" x1="130.772" y1="177.767" x2="130.772" y2="178.506" gradientUnits="userSpaceOnUse">
<stop stop-color="#FFEDAB"/>
<stop offset="1" stop-color="#FCC604"/>
</linearGradient>
<linearGradient id="paint8_linear_2348_3488" x1="131.16" y1="177.032" x2="131.16" y2="178.421" gradientUnits="userSpaceOnUse">
<stop stop-color="#FFEDAB"/>
<stop offset="1" stop-color="#FCC604"/>
</linearGradient>
<linearGradient id="paint9_linear_2348_3488" x1="145.072" y1="73.5928" x2="145.072" y2="86.0713" gradientUnits="userSpaceOnUse">
<stop stop-color="#FFEDAB"/>
<stop offset="1" stop-color="#FCC604"/>
</linearGradient>
<linearGradient id="paint10_linear_2348_3488" x1="135.055" y1="72.8799" x2="135.055" y2="100.34" gradientUnits="userSpaceOnUse">
<stop stop-color="#FFEDAB"/>
<stop offset="1" stop-color="#FCC604"/>
</linearGradient>
<linearGradient id="paint11_linear_2348_3488" x1="127.282" y1="73.3057" x2="127.282" y2="86.3876" gradientUnits="userSpaceOnUse">
<stop stop-color="#FFEDAB"/>
<stop offset="1" stop-color="#FCC604"/>
</linearGradient>
</defs>
</svg>
