<svg width="24" height="24" viewBox="0 0 24 24" fill="none" xmlns="http://www.w3.org/2000/svg">
<path d="M11.9366 8.91103L7.06795 7.5918L6 13.9601L11.9366 15.8133M11.9366 8.91103L16.8052 7.5918L17.9988 13.9601L15.3917 14.7165L11.9366 15.8133M11.9366 8.91103V15.8133M7.44488 17.1325L11.4968 15.8761H12.4077L16.4282 17.1011" stroke="black" stroke-width="1.5" stroke-linecap="round" stroke-linejoin="round"/>
<path d="M20.8615 18.5171C22.0621 16.8847 22.7884 14.9523 22.9603 12.9332C23.1322 10.9141 22.7431 8.88677 21.8358 7.07484C20.9285 5.26291 19.5383 3.73682 17.8186 2.66492C16.0989 1.59303 14.1166 1.017 12.0902 1.00037C10.0639 0.983745 8.07238 1.52717 6.33533 2.57071C4.59829 3.61424 3.18326 5.11732 2.24635 6.91411C1.30944 8.71091 0.887064 10.7316 1.02582 12.7532C1.16458 14.7749 1.85908 16.7189 3.03271 18.3708" stroke="black" stroke-width="1.5" stroke-linecap="round"/>
<path d="M18.6007 20.7997C16.6419 22.2736 14.2607 23.0406 11.8098 22.9981C9.35884 22.9555 6.99236 22.0956 5.08594 20.5547" stroke="black" stroke-width="1.5" stroke-linecap="round"/>
</svg>
