<svg width="16" height="14" viewBox="0 0 16 14" fill="none" xmlns="http://www.w3.org/2000/svg">
<path d="M8.35325 11.9117H4.13992C2.03325 11.9117 1.33325 10.6867 1.33325 9.45588V4.54421C1.33325 2.70088 2.03325 2.08838 4.13992 2.08838H8.35325C10.4599 2.08838 11.1599 2.70088 11.1599 4.54421V9.45588C11.1599 11.2992 10.4533 11.9117 8.35325 11.9117Z" stroke="#FF2525" stroke-linecap="round" stroke-linejoin="round"/>
<path d="M13.0132 9.97495L11.1599 8.83745V5.15662L13.0132 4.01912C13.9199 3.46495 14.6666 3.80329 14.6666 4.77745V9.22245C14.6666 10.1966 13.9199 10.535 13.0132 9.97495Z" stroke="#FF2525" stroke-linecap="round" stroke-linejoin="round"/>
<path d="M5 8.4175L7.62 6.125" stroke="#FF2525" stroke-linecap="round" stroke-linejoin="round"/>
<path d="M7.62 8.4175L5 6.125" stroke="#FF2525" stroke-linecap="round" stroke-linejoin="round"/>
</svg>
