<svg width="11" height="12" viewBox="0 0 11 12" fill="none" xmlns="http://www.w3.org/2000/svg">
<path d="M10.0694 9.40133C10.0694 9.56633 10.0328 9.73591 9.95484 9.90091C9.87692 10.0659 9.77609 10.2217 9.64317 10.3684C9.41859 10.6159 9.17109 10.7947 8.8915 10.9092C8.6165 11.0238 8.31859 11.0834 7.99775 11.0834C7.53025 11.0834 7.03067 10.9734 6.50359 10.7488C5.9765 10.5242 5.44942 10.2217 4.92692 9.84133C4.39984 9.45633 3.90025 9.03008 3.42359 8.558C2.9515 8.08133 2.52525 7.58175 2.14484 7.05925C1.769 6.53675 1.4665 6.01425 1.2465 5.49633C1.0265 4.97383 0.916504 4.47425 0.916504 3.99758C0.916504 3.68591 0.971504 3.388 1.0815 3.113C1.1915 2.83341 1.36567 2.57675 1.60859 2.34758C1.90192 2.05883 2.22275 1.91675 2.56192 1.91675C2.69025 1.91675 2.81859 1.94425 2.93317 1.99925C3.05234 2.05425 3.15775 2.13675 3.24025 2.25591L4.30359 3.75466C4.38609 3.86925 4.44567 3.97466 4.48692 4.0755C4.52817 4.17175 4.55109 4.268 4.55109 4.35508C4.55109 4.46508 4.519 4.57508 4.45484 4.6805C4.39525 4.78591 4.30817 4.89591 4.19817 5.00591L3.84984 5.368C3.79942 5.41841 3.7765 5.478 3.7765 5.55133C3.7765 5.588 3.78109 5.62008 3.79025 5.65675C3.804 5.69341 3.81775 5.72091 3.82692 5.74841C3.90942 5.89966 4.0515 6.09675 4.25317 6.33508C4.45942 6.57341 4.67942 6.81633 4.91775 7.05925C5.16525 7.30216 5.40359 7.52675 5.6465 7.733C5.88484 7.93466 6.08192 8.07216 6.23775 8.15466C6.26067 8.16383 6.28817 8.17758 6.32025 8.19133C6.35692 8.20508 6.39359 8.20966 6.43484 8.20966C6.51275 8.20966 6.57234 8.18217 6.62275 8.13175L6.97109 7.788C7.08567 7.67342 7.19567 7.58633 7.30109 7.53133C7.4065 7.46716 7.51192 7.43508 7.6265 7.43508C7.71359 7.43508 7.80525 7.45341 7.90609 7.49466C8.00692 7.53591 8.11234 7.5955 8.22692 7.67342L9.744 8.7505C9.86317 8.833 9.94567 8.92925 9.99609 9.04383C10.0419 9.15841 10.0694 9.273 10.0694 9.40133Z" stroke="#FF2525" stroke-miterlimit="10"/>
<path d="M7.43896 4.56122L9.06147 2.93872" stroke="#FF2525" stroke-linecap="round" stroke-linejoin="round"/>
<path d="M9.06147 4.56122L7.43896 2.93872" stroke="#FF2525" stroke-linecap="round" stroke-linejoin="round"/>
</svg>
