<svg width="17" height="17" viewBox="0 0 17 17" fill="none" xmlns="http://www.w3.org/2000/svg">
<path d="M15.4462 12.8874C15.4462 13.1405 15.39 13.4006 15.2705 13.6537C15.1509 13.9068 14.9963 14.1458 14.7924 14.3708C14.4479 14.7504 14.0682 15.0246 13.6394 15.2004C13.2175 15.3762 12.7606 15.4676 12.2684 15.4676C11.5513 15.4676 10.785 15.2988 9.97647 14.9543C9.16796 14.6098 8.35945 14.1458 7.55797 13.5623C6.74946 12.9717 5.98313 12.3179 5.25195 11.5937C4.52781 10.8626 3.87397 10.0962 3.29043 9.29475C2.71393 8.49327 2.24991 7.69179 1.91245 6.89734C1.57498 6.09586 1.40625 5.32953 1.40625 4.59836C1.40625 4.12028 1.49062 3.6633 1.65935 3.24146C1.82808 2.8126 2.09524 2.41889 2.46786 2.06736C2.91781 1.62444 3.40995 1.40649 3.93021 1.40649C4.12707 1.40649 4.32392 1.44868 4.49969 1.53304C4.68248 1.61741 4.84418 1.74396 4.97073 1.92675L6.60182 4.22574C6.72837 4.4015 6.81976 4.5632 6.88304 4.71788C6.94631 4.86552 6.98146 5.01316 6.98146 5.14674C6.98146 5.31547 6.93225 5.4842 6.83382 5.64591C6.74243 5.80761 6.60885 5.97634 6.44011 6.14507L5.90579 6.70049C5.82846 6.77782 5.7933 6.86922 5.7933 6.98171C5.7933 7.03795 5.80033 7.08717 5.8144 7.14341C5.83549 7.19965 5.85658 7.24184 5.87064 7.28402C5.99719 7.51603 6.21514 7.81834 6.52448 8.18393C6.84085 8.54952 7.17832 8.92213 7.54391 9.29475C7.92356 9.66737 8.28914 10.0119 8.66176 10.3282C9.02735 10.6376 9.32966 10.8485 9.5687 10.9751C9.60385 10.9891 9.64604 11.0102 9.69525 11.0313C9.75149 11.0524 9.80774 11.0594 9.87101 11.0594C9.99053 11.0594 10.0819 11.0172 10.1593 10.9399L10.6936 10.4126C10.8693 10.2368 11.0381 10.1033 11.1998 10.0189C11.3615 9.92047 11.5232 9.87126 11.699 9.87126C11.8325 9.87126 11.9731 9.89938 12.1278 9.96265C12.2825 10.0259 12.4442 10.1173 12.62 10.2368L14.9471 11.889C15.1299 12.0156 15.2564 12.1632 15.3337 12.339C15.404 12.5147 15.4462 12.6905 15.4462 12.8874Z" stroke="url(#paint0_linear_1348_31715)" stroke-width="0.937405" stroke-miterlimit="10"/>
<defs>
<linearGradient id="paint0_linear_1348_31715" x1="8.42624" y1="1.40649" x2="8.42624" y2="15.4676" gradientUnits="userSpaceOnUse">
<stop stop-color="#0AC00A"/>
<stop offset="1" stop-color="#006400"/>
</linearGradient>
</defs>
</svg>
