<svg width="11" height="11" viewBox="0 0 11 11" fill="none" xmlns="http://www.w3.org/2000/svg">
<path d="M10.0697 8.40121C10.0697 8.56621 10.033 8.73579 9.95508 8.90079C9.87716 9.06579 9.77633 9.22163 9.64341 9.36829C9.41883 9.61579 9.17133 9.79454 8.89175 9.90913C8.61675 10.0237 8.31883 10.0833 7.998 10.0833C7.5305 10.0833 7.03091 9.97329 6.50383 9.74871C5.97675 9.52413 5.44966 9.22163 4.92716 8.84121C4.40008 8.45621 3.9005 8.02996 3.42383 7.55788C2.95175 7.08121 2.5255 6.58163 2.14508 6.05913C1.76925 5.53663 1.46675 5.01413 1.24675 4.49621C1.02675 3.97371 0.916748 3.47413 0.916748 2.99746C0.916748 2.68579 0.971748 2.38788 1.08175 2.11288C1.19175 1.83329 1.36591 1.57663 1.60883 1.34746C1.90216 1.05871 2.223 0.916626 2.56216 0.916626C2.6905 0.916626 2.81883 0.944126 2.93341 0.999126C3.05258 1.05413 3.158 1.13663 3.2405 1.25579L4.30383 2.75454C4.38633 2.86913 4.44591 2.97454 4.48716 3.07538C4.52841 3.17163 4.55133 3.26788 4.55133 3.35496C4.55133 3.46496 4.51925 3.57496 4.45508 3.68038C4.3955 3.78579 4.30841 3.89579 4.19841 4.00579L3.85008 4.36788C3.79966 4.41829 3.77675 4.47788 3.77675 4.55121C3.77675 4.58788 3.78133 4.61996 3.7905 4.65663C3.80425 4.69329 3.818 4.72079 3.82716 4.74829C3.90966 4.89954 4.05175 5.09663 4.25341 5.33496C4.45966 5.57329 4.67966 5.81621 4.918 6.05913C5.1655 6.30204 5.40383 6.52663 5.64675 6.73288C5.88508 6.93454 6.08216 7.07204 6.238 7.15454C6.26091 7.16371 6.28841 7.17746 6.3205 7.19121C6.35716 7.20496 6.39383 7.20954 6.43508 7.20954C6.513 7.20954 6.57258 7.18204 6.623 7.13163L6.97133 6.78788C7.08591 6.67329 7.19591 6.58621 7.30133 6.53121C7.40675 6.46704 7.51216 6.43496 7.62675 6.43496C7.71383 6.43496 7.8055 6.45329 7.90633 6.49454C8.00716 6.53579 8.11258 6.59538 8.22716 6.67329L9.74425 7.75038C9.86341 7.83288 9.94591 7.92913 9.99633 8.04371C10.0422 8.15829 10.0697 8.27288 10.0697 8.40121Z" stroke="#FCC604" stroke-miterlimit="10"/>
<path d="M9.16655 1.83337H6.96655M9.16655 1.83337V4.03337V1.83337Z" stroke="#FCC604" stroke-linecap="round" stroke-linejoin="round"/>
</svg>
