<svg width="11" height="11" viewBox="0 0 11 11" fill="none" xmlns="http://www.w3.org/2000/svg">
<path d="M10.0694 8.40133C10.0694 8.56633 10.0328 8.73592 9.95484 8.90092C9.87692 9.06592 9.77609 9.22175 9.64317 9.36842C9.41859 9.61592 9.17109 9.79467 8.8915 9.90925C8.6165 10.0238 8.31859 10.0834 7.99775 10.0834C7.53025 10.0834 7.03067 9.97342 6.50359 9.74883C5.9765 9.52425 5.44942 9.22175 4.92692 8.84133C4.39984 8.45633 3.90025 8.03008 3.42359 7.558C2.9515 7.08133 2.52525 6.58175 2.14484 6.05925C1.769 5.53675 1.4665 5.01425 1.2465 4.49633C1.0265 3.97383 0.916504 3.47425 0.916504 2.99758C0.916504 2.68591 0.971504 2.388 1.0815 2.113C1.1915 1.83341 1.36567 1.57675 1.60859 1.34758C1.90192 1.05883 2.22275 0.916748 2.56192 0.916748C2.69025 0.916748 2.81859 0.944248 2.93317 0.999248C3.05234 1.05425 3.15775 1.13675 3.24025 1.25591L4.30359 2.75467C4.38609 2.86925 4.44567 2.97467 4.48692 3.0755C4.52817 3.17175 4.55109 3.268 4.55109 3.35508C4.55109 3.46508 4.519 3.57508 4.45484 3.6805C4.39525 3.78592 4.30817 3.89592 4.19817 4.00592L3.84984 4.368C3.79942 4.41842 3.7765 4.478 3.7765 4.55133C3.7765 4.588 3.78109 4.62008 3.79025 4.65675C3.804 4.69342 3.81775 4.72092 3.82692 4.74842C3.90942 4.89967 4.0515 5.09675 4.25317 5.33508C4.45942 5.57342 4.67942 5.81633 4.91775 6.05925C5.16525 6.30217 5.40359 6.52675 5.6465 6.733C5.88484 6.93467 6.08192 7.07217 6.23775 7.15467C6.26067 7.16383 6.28817 7.17758 6.32025 7.19133C6.35692 7.20508 6.39359 7.20967 6.43484 7.20967C6.51275 7.20967 6.57234 7.18217 6.62275 7.13175L6.97109 6.788C7.08567 6.67342 7.19567 6.58633 7.30109 6.53133C7.4065 6.46717 7.51192 6.43508 7.6265 6.43508C7.71359 6.43508 7.80525 6.45342 7.90609 6.49467C8.00692 6.53592 8.11234 6.5955 8.22692 6.67342L9.744 7.7505C9.86317 7.833 9.94567 7.92925 9.99609 8.04383C10.0419 8.15842 10.0694 8.273 10.0694 8.40133Z" stroke="#00C42B" stroke-miterlimit="10"/>
<path d="M7.4248 3.575H9.6248M7.4248 3.575V1.375V3.575Z" stroke="#00C42B" stroke-linecap="round" stroke-linejoin="round"/>
</svg>
