<svg width="20" height="16" viewBox="0 0 20 16" fill="none" xmlns="http://www.w3.org/2000/svg">
<path d="M17.6087 2.78261H15.5217L14.3696 1.04348C13.9348 0.391304 13.1739 0 12.3913 0H7.60871C6.8261 0 6.06523 0.391304 5.63044 1.04348L4.47827 2.78261H2.39131C2.07703 2.7817 1.76566 2.84293 1.47513 2.96279C1.18459 3.08264 0.920616 3.25875 0.698382 3.48098C0.476148 3.70321 0.300041 3.96719 0.180188 4.25773C0.0603352 4.54826 -0.000897989 4.85963 9.95075e-06 5.17391V13.6087C-0.000897989 13.923 0.0603352 14.2343 0.180188 14.5249C0.300041 14.8154 0.476148 15.0794 0.698382 15.3016C0.920616 15.5239 1.18459 15.7 1.47513 15.8198C1.76566 15.9397 2.07703 16.0009 2.39131 16H17.6087C17.923 16.0009 18.2344 15.9397 18.5249 15.8198C18.8154 15.7 19.0794 15.5239 19.3016 15.3016C19.5239 15.0794 19.7 14.8154 19.8198 14.5249C19.9397 14.2343 20.0009 13.923 20 13.6087V5.17391C20.0009 4.85963 19.9397 4.54826 19.8198 4.25773C19.7 3.96719 19.5239 3.70321 19.3016 3.48098C19.0794 3.25875 18.8154 3.08264 18.5249 2.96279C18.2344 2.84293 17.923 2.7817 17.6087 2.78261ZM10 14.0435C7.02175 14.0435 4.60871 11.6304 4.60871 8.65217C4.60871 5.67391 7.02175 3.28261 10 3.28261C12.9783 3.28261 15.3913 5.69565 15.3913 8.67391C15.3913 11.6304 12.9783 14.0435 10 14.0435ZM17.3044 6.15217H16.3478C15.9565 6.13043 15.6522 5.80435 15.6739 5.41304C15.6957 5.04348 15.9783 4.76087 16.3478 4.73913H17.2174C17.6087 4.71739 17.9348 5.02174 17.9565 5.41304C17.9783 5.80435 17.6957 6.13043 17.3044 6.15217Z" fill="black"/>
<path d="M10 5.67383C8.34783 5.67383 7 7.02165 7 8.67383C7 10.326 8.34783 11.6521 10 11.6521C11.6522 11.6521 13 10.3043 13 8.65209C13 6.99992 11.6522 5.67383 10 5.67383Z" fill="black"/>
</svg>
