<svg width="168" height="68" viewBox="0 0 168 68" fill="none" xmlns="http://www.w3.org/2000/svg">
<path d="M48.5628 21.1042L41.6772 23.1911C39.8411 21.2202 34.7918 17.1042 28.2506 19.713C21.6479 22.3461 21.0207 27.539 20.8486 30.8433C20.906 33.5679 21.8126 40.7563 27.7342 42.8432C33.6556 44.9302 38.0049 43.1331 39.4395 41.7998L46.1528 44.7563C40.5067 51.9911 31.5211 51.8288 27.7342 50.8433L15.3402 53.6258L17.4058 44.7563C13.4123 39.7477 13.0571 31.1911 13.2746 28.0607C13.6733 22.3216 18.542 13.4173 29.2834 11.8869C40.0248 10.3564 46.6119 17.3941 48.5628 21.1042Z" fill="url(#paint0_linear_203_3669)"/>
<path d="M27.0458 33.4518C27.9965 33.4518 28.7672 32.6732 28.7672 31.7127C28.7672 30.7522 27.9965 29.9736 27.0458 29.9736C26.0951 29.9736 25.3245 30.7522 25.3245 31.7127C25.3245 32.6732 26.0951 33.4518 27.0458 33.4518Z" fill="black"/>
<path d="M32.5541 33.4518C33.5048 33.4518 34.2755 32.6732 34.2755 31.7127C34.2755 30.7522 33.5048 29.9736 32.5541 29.9736C31.6034 29.9736 30.8328 30.7522 30.8328 31.7127C30.8328 32.6732 31.6034 33.4518 32.5541 33.4518Z" fill="black"/>
<path d="M38.0624 33.4518C39.0131 33.4518 39.7838 32.6732 39.7838 31.7127C39.7838 30.7522 39.0131 29.9736 38.0624 29.9736C37.1117 29.9736 36.3411 30.7522 36.3411 31.7127C36.3411 32.6732 37.1117 33.4518 38.0624 33.4518Z" fill="black"/>
<path d="M63.6826 31.9379H59.9185C59.8684 31.5475 59.7655 31.1952 59.6099 30.8808C59.4544 30.5665 59.2485 30.2977 58.9927 30.0746C58.7367 29.8514 58.433 29.6816 58.0818 29.565C57.7355 29.4433 57.3516 29.3825 56.9299 29.3825C56.1821 29.3825 55.5373 29.5675 54.9953 29.9376C54.4583 30.3078 54.0443 30.8427 53.7532 31.5424C53.4671 32.2421 53.324 33.0889 53.324 34.0827C53.324 35.1171 53.4697 35.9841 53.7607 36.6838C54.0568 37.3784 54.4709 37.9033 55.0029 38.2582C55.5398 38.608 56.1746 38.783 56.9074 38.783C57.3189 38.783 57.6928 38.7298 58.0291 38.6232C58.3703 38.5168 58.669 38.3621 58.9248 38.1593C59.1859 37.9515 59.3992 37.7005 59.5647 37.4064C59.7354 37.1072 59.8533 36.77 59.9185 36.3949L63.6826 36.4177C63.6173 37.1072 63.4191 37.7867 63.0879 38.456C62.7616 39.1252 62.3125 39.7362 61.7404 40.2888C61.1682 40.8365 60.4707 41.2725 59.6476 41.597C58.8296 41.9215 57.8911 42.0838 56.8321 42.0838C55.4369 42.0838 54.1872 41.7745 53.0832 41.1559C51.9841 40.5323 51.1159 39.6247 50.4785 38.4331C49.8412 37.2416 49.5225 35.7914 49.5225 34.0827C49.5225 32.3689 49.8462 30.9163 50.4936 29.7248C51.141 28.5332 52.0167 27.6281 53.1208 27.0096C54.225 26.3909 55.462 26.0817 56.8321 26.0817C57.7656 26.0817 58.6288 26.2135 59.4217 26.4771C60.2147 26.7357 60.9122 27.116 61.5145 27.6179C62.1167 28.1149 62.6061 28.7258 62.9825 29.4509C63.3589 30.176 63.5923 31.005 63.6826 31.9379ZM65.8149 41.8708V26.2946H69.5412V32.5464H75.6163V26.2946H79.3351V41.8708H75.6163V35.6114H69.5412V41.8708H65.8149ZM85.0073 41.8708H81.0025L86.2043 26.2946H91.1653L96.3671 41.8708H92.3622L88.7413 30.2191H88.6208L85.0073 41.8708ZM84.4729 35.7408H92.844V38.6004H84.4729V35.7408ZM95.5974 29.3521V26.2946H108.628V29.3521H103.953V41.8708H100.28V29.3521H95.5974ZM117.743 41.8708H115.786L121.446 26.2946H123.374L129.035 41.8708H127.077L122.47 28.7588H122.35L117.743 41.8708ZM118.465 35.7864H126.355V37.4596H118.465V35.7864ZM131.436 41.8708V26.2946H136.645C137.855 26.2946 138.844 26.5152 139.611 26.9562C140.384 27.3923 140.956 27.983 141.328 28.7284C141.699 29.4737 141.885 30.3053 141.885 31.223C141.885 32.1407 141.699 32.9748 141.328 33.7253C140.962 34.4756 140.394 35.0739 139.626 35.5202C138.859 35.9613 137.875 36.1819 136.675 36.1819H132.942V34.5086H136.616C137.444 34.5086 138.108 34.3642 138.611 34.0751C139.112 33.7861 139.475 33.3957 139.702 32.9038C139.932 32.407 140.048 31.8467 140.048 31.223C140.048 30.5993 139.932 30.0416 139.702 29.5498C139.475 29.0579 139.11 28.6726 138.603 28.3938C138.095 28.1098 137.423 27.9678 136.585 27.9678H133.303V41.8708H131.436ZM144.893 41.8708V26.2946H150.101C151.311 26.2946 152.3 26.5152 153.068 26.9562C153.841 27.3923 154.413 27.983 154.784 28.7284C155.155 29.4737 155.341 30.3053 155.341 31.223C155.341 32.1407 155.155 32.9748 154.784 33.7253C154.417 34.4756 153.85 35.0739 153.083 35.5202C152.314 35.9613 151.331 36.1819 150.132 36.1819H146.398V34.5086H150.072C150.899 34.5086 151.565 34.3642 152.066 34.0751C152.568 33.7861 152.932 33.3957 153.158 32.9038C153.389 32.407 153.505 31.8467 153.505 31.223C153.505 30.5993 153.389 30.0416 153.158 29.5498C152.932 29.0579 152.566 28.6726 152.059 28.3938C151.552 28.1098 150.879 27.9678 150.041 27.9678H146.759V41.8708H144.893Z" fill="black"/>
<defs>
<linearGradient id="paint0_linear_203_3669" x1="30.894" y1="11.6725" x2="30.894" y2="53.6258" gradientUnits="userSpaceOnUse">
<stop stop-color="#FCC604" stop-opacity="0.5"/>
<stop offset="1" stop-color="#FCC604"/>
</linearGradient>
</defs>
</svg>
