<svg width="16" height="16" viewBox="0 0 16 16" fill="none" xmlns="http://www.w3.org/2000/svg">
<path d="M14.6668 4.16659V7.56657C14.6668 8.41324 14.3868 9.12658 13.8868 9.61991C13.3935 10.1199 12.6802 10.3999 11.8335 10.3999V11.6066C11.8335 12.0599 11.3268 12.3332 10.9535 12.0799L10.3068 11.6532C10.3668 11.4466 10.3935 11.2199 10.3935 10.9799V8.2666C10.3935 6.9066 9.48683 5.99992 8.12683 5.99992H3.60016C3.50683 5.99992 3.42016 6.0066 3.3335 6.01326V4.16659C3.3335 2.46659 4.46683 1.33325 6.16683 1.33325H11.8335C13.5335 1.33325 14.6668 2.46659 14.6668 4.16659Z" stroke="black" stroke-miterlimit="10" stroke-linecap="round" stroke-linejoin="round"/>
<path d="M10.3935 8.26668V10.98C10.3935 11.22 10.3668 11.4467 10.3068 11.6533C10.0602 12.6333 9.24683 13.2467 8.12683 13.2467H6.3135L4.30016 14.5867C4.00016 14.7933 3.60016 14.5733 3.60016 14.2133V13.2467C2.92016 13.2467 2.3535 13.02 1.96016 12.6267C1.56016 12.2267 1.3335 11.66 1.3335 10.98V8.26668C1.3335 7.00002 2.12016 6.12668 3.3335 6.01335C3.42016 6.00668 3.50683 6 3.60016 6H8.12683C9.48683 6 10.3935 6.90668 10.3935 8.26668Z" stroke="black" stroke-miterlimit="10" stroke-linecap="round" stroke-linejoin="round"/>
</svg>
