<svg width="16" height="16" viewBox="0 0 16 16" fill="none" xmlns="http://www.w3.org/2000/svg">
<path d="M11.3333 14H4.66659C1.99992 14 1.33325 13.3333 1.33325 10.6667V5.33333C1.33325 2.66667 1.99992 2 4.66659 2H11.3333C13.9999 2 14.6666 2.66667 14.6666 5.33333V10.6667C14.6666 13.3333 13.9999 14 11.3333 14Z" stroke="black" stroke-linecap="round" stroke-linejoin="round"/>
<path d="M9.33325 5.33337H12.6666" stroke="black" stroke-linecap="round" stroke-linejoin="round"/>
<path d="M10 8H12.6667" stroke="black" stroke-linecap="round" stroke-linejoin="round"/>
<path d="M11.3333 10.6666H12.6666" stroke="black" stroke-linecap="round" stroke-linejoin="round"/>
<path d="M5.66663 7.52661C6.33305 7.52661 6.87329 6.98637 6.87329 6.31995C6.87329 5.65352 6.33305 5.11328 5.66663 5.11328C5.0002 5.11328 4.45996 5.65352 4.45996 6.31995C4.45996 6.98637 5.0002 7.52661 5.66663 7.52661Z" stroke="black" stroke-linecap="round" stroke-linejoin="round"/>
<path d="M7.99992 10.8867C7.90659 9.92001 7.13992 9.16001 6.17325 9.07334C5.83992 9.04001 5.49992 9.04001 5.15992 9.07334C4.19325 9.16667 3.42659 9.92001 3.33325 10.8867" stroke="black" stroke-linecap="round" stroke-linejoin="round"/>
</svg>
