<svg width="17" height="16" viewBox="0 0 17 16" fill="none" xmlns="http://www.w3.org/2000/svg">
<path d="M11.8335 14H5.16683C2.50016 14 1.8335 13.3333 1.8335 10.6667V5.33333C1.8335 2.66667 2.50016 2 5.16683 2H11.8335C14.5002 2 15.1668 2.66667 15.1668 5.33333V10.6667C15.1668 13.3333 14.5002 14 11.8335 14Z" stroke="black" stroke-linecap="round" stroke-linejoin="round"/>
<path d="M9.8335 5.33301H13.1668" stroke="black" stroke-linecap="round" stroke-linejoin="round"/>
<path d="M10.5 8H13.1667" stroke="black" stroke-linecap="round" stroke-linejoin="round"/>
<path d="M11.8335 10.667H13.1668" stroke="black" stroke-linecap="round" stroke-linejoin="round"/>
<path d="M6.16663 7.52661C6.83305 7.52661 7.37329 6.98637 7.37329 6.31995C7.37329 5.65352 6.83305 5.11328 6.16663 5.11328C5.5002 5.11328 4.95996 5.65352 4.95996 6.31995C4.95996 6.98637 5.5002 7.52661 6.16663 7.52661Z" stroke="black" stroke-linecap="round" stroke-linejoin="round"/>
<path d="M8.50016 10.8862C8.40683 9.91952 7.64016 9.15952 6.6735 9.07285C6.34016 9.03952 6.00016 9.03952 5.66016 9.07285C4.6935 9.16618 3.92683 9.91952 3.8335 10.8862" stroke="black" stroke-linecap="round" stroke-linejoin="round"/>
</svg>
