<svg width="22" height="22" viewBox="0 0 22 22" fill="none" xmlns="http://www.w3.org/2000/svg">
<path d="M11.0007 1.83325C8.59898 1.83325 6.64648 3.78575 6.64648 6.18742C6.64648 8.54325 8.48898 10.4499 10.8907 10.5324C10.964 10.5233 11.0373 10.5233 11.0923 10.5324C11.1107 10.5324 11.1198 10.5324 11.1382 10.5324C11.1473 10.5324 11.1473 10.5324 11.1565 10.5324C13.5032 10.4499 15.3457 8.54325 15.3548 6.18742C15.3548 3.78575 13.4023 1.83325 11.0007 1.83325Z" fill="black"/>
<path d="M15.6569 12.9709C13.0994 11.2659 8.92854 11.2659 6.35271 12.9709C5.18854 13.7501 4.54688 14.8042 4.54688 15.9317C4.54688 17.0592 5.18854 18.1042 6.34354 18.8742C7.62688 19.7359 9.31354 20.1667 11.0002 20.1667C12.6869 20.1667 14.3735 19.7359 15.6569 18.8742C16.8119 18.0951 17.4535 17.0501 17.4535 15.9134C17.4444 14.7859 16.8119 13.7409 15.6569 12.9709Z" fill="black"/>
</svg>
