<svg width="50" height="50" viewBox="0 0 50 50" fill="none" xmlns="http://www.w3.org/2000/svg">
<g clip-path="url(#clip0_2223_4844)">
<path d="M8.33398 18.75C11.7858 18.75 14.584 15.9518 14.584 12.5C14.584 9.04822 11.7858 6.25 8.33398 6.25C4.8822 6.25 2.08398 9.04822 2.08398 12.5C2.08398 15.9518 4.8822 18.75 8.33398 18.75Z" fill="black" fill-opacity="0.36"/>
<path d="M15.1875 23.0625C13.0906 24.371 11.3612 26.1916 10.1621 28.3529C8.96303 30.5142 8.33368 32.9451 8.33333 35.4167H4.16667C3.06261 35.4134 2.00472 34.9734 1.22403 34.1927C0.443343 33.412 0.00329735 32.3541 0 31.25L0 27.0834C0.00494602 25.4273 0.665014 23.8405 1.83605 22.6694C3.00708 21.4984 4.59392 20.8383 6.25 20.8334H10.4167C11.3262 20.8354 12.2243 21.036 13.0483 21.421C13.8723 21.806 14.6024 22.3662 15.1875 23.0625Z" fill="black" fill-opacity="0.36"/>
<path d="M41.666 18.75C45.1178 18.75 47.916 15.9518 47.916 12.5C47.916 9.04822 45.1178 6.25 41.666 6.25C38.2142 6.25 35.416 9.04822 35.416 12.5C35.416 15.9518 38.2142 18.75 41.666 18.75Z" fill="black" fill-opacity="0.36"/>
<path d="M50 27.0834V31.25C49.9967 32.3541 49.5567 33.412 48.776 34.1927C47.9953 34.9734 46.9374 35.4134 45.8333 35.4167H41.6667C41.6663 32.9451 41.037 30.5142 39.8379 28.3529C38.6388 26.1916 36.9094 24.371 34.8125 23.0625C35.3976 22.3662 36.1277 21.806 36.9517 21.421C37.7757 21.036 38.6738 20.8354 39.5833 20.8334H43.75C45.4061 20.8383 46.9929 21.4984 48.164 22.6694C49.335 23.8405 49.9951 25.4273 50 27.0834Z" fill="black" fill-opacity="0.36"/>
<path d="M24.9993 22.9167C29.6017 22.9167 33.3327 19.1857 33.3327 14.5833C33.3327 9.98096 29.6017 6.25 24.9993 6.25C20.397 6.25 16.666 9.98096 16.666 14.5833C16.666 19.1857 20.397 22.9167 24.9993 22.9167Z" fill="black" fill-opacity="0.36"/>
<path d="M37.5 35.4167V37.5C37.4951 39.1561 36.835 40.7429 35.664 41.914C34.4929 43.085 32.9061 43.7451 31.25 43.75H18.75C17.0939 43.7451 15.5071 43.085 14.336 41.914C13.165 40.7429 12.5049 39.1561 12.5 37.5V35.4167C12.5 32.654 13.5975 30.0045 15.551 28.051C17.5045 26.0975 20.154 25 22.9167 25H27.0833C29.846 25 32.4955 26.0975 34.449 28.051C36.4025 30.0045 37.5 32.654 37.5 35.4167Z" fill="black" fill-opacity="0.36"/>
</g>
<defs>
<clipPath id="clip0_2223_4844">
<rect width="50" height="50" fill="white"/>
</clipPath>
</defs>
</svg>
