<svg width="22" height="22" viewBox="0 0 22 22" fill="none" xmlns="http://www.w3.org/2000/svg">
<path d="M14.4837 2.02579C14.1079 1.64995 13.457 1.90662 13.457 2.42912V5.62829C13.457 6.96662 14.5937 8.07579 15.9779 8.07579C16.8487 8.08495 18.0587 8.08495 19.0945 8.08495C19.617 8.08495 19.892 7.47079 19.5254 7.10412C18.2054 5.77495 15.8404 3.38245 14.4837 2.02579Z" fill="black"/>
<path d="M18.791 9.34075H16.1418C13.9693 9.34075 12.2002 7.57159 12.2002 5.39909V2.74992C12.2002 2.24575 11.7877 1.83325 11.2835 1.83325H7.39685C4.57352 1.83325 2.29102 3.66659 2.29102 6.93909V15.0608C2.29102 18.3333 4.57352 20.1666 7.39685 20.1666H14.6018C17.4252 20.1666 19.7077 18.3333 19.7077 15.0608V10.2574C19.7077 9.75325 19.2952 9.34075 18.791 9.34075ZM10.541 16.2708H6.87435C6.49852 16.2708 6.18685 15.9591 6.18685 15.5833C6.18685 15.2074 6.49852 14.8958 6.87435 14.8958H10.541C10.9168 14.8958 11.2285 15.2074 11.2285 15.5833C11.2285 15.9591 10.9168 16.2708 10.541 16.2708ZM12.3743 12.6041H6.87435C6.49852 12.6041 6.18685 12.2924 6.18685 11.9166C6.18685 11.5408 6.49852 11.2291 6.87435 11.2291H12.3743C12.7502 11.2291 13.0618 11.5408 13.0618 11.9166C13.0618 12.2924 12.7502 12.6041 12.3743 12.6041Z" fill="black"/>
</svg>
