<svg width="13" height="16" viewBox="0 0 13 16" fill="none" xmlns="http://www.w3.org/2000/svg">
<path d="M6.50521 2.44276H8.36946L7.6634 3.15004C7.48056 3.33326 7.48081 3.63004 7.66403 3.81301C7.8469 3.99551 8.14378 3.99586 8.32684 3.81239L9.83053 2.30614C10.0156 2.12073 10.014 1.81592 9.81978 1.63307L8.32687 0.137574C8.144 -0.0456443 7.84725 -0.0458631 7.66403 0.136949C7.48081 0.319949 7.48056 0.616699 7.6634 0.799949L8.36753 1.50526C6.24337 1.50526 6.50828 1.50514 6.48506 1.50514C1.52962 1.50514 -1.61588 6.89832 0.868996 11.2333C0.997652 11.4578 1.2839 11.5357 1.50875 11.4069C1.73337 11.2781 1.811 10.9917 1.68234 10.7671C-0.45266 7.04273 2.2734 2.42151 6.50521 2.44276ZM12.114 4.76661C11.9853 4.54214 11.6988 4.46436 11.4742 4.59304C11.2496 4.72179 11.172 5.00832 11.3007 5.23292C13.4231 8.93532 10.7445 13.5573 6.49153 13.5573H4.6135L5.31956 12.85C5.50253 12.6668 5.50228 12.37 5.31906 12.187C5.13584 12.0042 4.83896 12.0044 4.65609 12.1876L3.15243 13.6939C2.96481 13.8819 2.9709 14.1865 3.16378 14.3676L4.65609 15.8624C4.83896 16.0455 5.13571 16.046 5.31906 15.8631C5.50228 15.6801 5.50253 15.3833 5.31968 15.2001L4.61556 14.4948H6.4974C11.4554 14.4946 14.5983 9.10067 12.114 4.76661Z" fill="black"/>
<path d="M6.02246 6.59375H7.89746C8.15627 6.59375 8.36621 6.38378 8.36621 6.125C8.36621 5.86609 8.15627 5.65625 7.89746 5.65625H6.95996V5.1875C6.95996 4.92859 6.75002 4.71875 6.49121 4.71875C6.2323 4.71875 6.02246 4.92859 6.02246 5.1875V5.65625C5.24696 5.65625 4.61621 6.28712 4.61621 7.0625C4.61621 7.83787 5.24696 8.46875 6.02246 8.46875H6.95987C7.2184 8.46875 7.42871 8.67897 7.42871 8.9375C7.42871 9.19603 7.21965 9.40637 6.95987 9.40637L5.08496 9.40625C4.82605 9.40625 4.61621 9.61609 4.61621 9.87488C4.61612 10.1338 4.82593 10.3436 5.08487 10.3438H6.02246V10.8125C6.02246 11.0713 6.2323 11.2812 6.49121 11.2812C6.75002 11.2812 6.95996 11.0713 6.95996 10.8125V10.3439C7.73709 10.3439 8.36621 9.71509 8.36621 8.9375C8.36621 8.16213 7.73527 7.53125 6.95987 7.53125H6.02246C5.76393 7.53125 5.55371 7.32094 5.55371 7.0625C5.55371 6.80397 5.76393 6.59375 6.02246 6.59375Z" fill="black"/>
</svg>
