<svg width="10" height="6" viewBox="0 0 10 6" fill="none" xmlns="http://www.w3.org/2000/svg">
<path d="M6.87228 0.643868C6.67829 0.44771 6.36221 0.445236 6.16519 0.638354L2.46935 4.29108L0.862734 2.62784C0.671114 2.42812 0.35388 2.42157 0.154185 2.61319C-0.0455319 2.80481 -0.0520871 3.12204 0.139534 3.32174L0.142117 3.32441L2.10104 5.35448C2.14745 5.40184 2.2028 5.43951 2.26388 5.46531C2.32495 5.49112 2.39054 5.50455 2.45684 5.50482H2.46236C2.59375 5.50441 2.71973 5.4524 2.81315 5.36L6.86776 1.35096C7.06366 1.15669 7.06566 0.840632 6.87228 0.643868ZM5.1078 5.35448C5.15409 5.40171 5.20928 5.43931 5.27018 5.46512C5.33107 5.49092 5.39647 5.50441 5.46261 5.50482H5.46812C5.59951 5.50441 5.72549 5.4524 5.81891 5.36L9.87355 1.35096C10.0573 1.14402 10.0386 0.827283 9.83163 0.643499C9.64403 0.476883 9.36213 0.474691 9.17197 0.638354L5.47763 4.29108L5.34583 4.15427C5.15423 3.95455 4.837 3.94798 4.63728 4.1396C4.43756 4.3312 4.43098 4.64843 4.6226 4.84815L4.62521 4.85084L5.1078 5.35448Z" fill="black"/>
</svg>
