<svg width="12" height="12" viewBox="0 0 12 12" fill="none" xmlns="http://www.w3.org/2000/svg">
<path d="M9.49989 6.5H7.99989V1.5C7.99989 1.36739 7.94722 1.24021 7.85345 1.14645C7.75968 1.05268 7.6325 1 7.49989 1H4.49989C4.36729 1 4.24011 1.05268 4.14634 1.14645C4.05257 1.24021 3.99989 1.36739 3.99989 1.5V6.5H2.49989C2.40102 6.50002 2.30437 6.52936 2.22216 6.5843C2.13996 6.63924 2.07589 6.71732 2.03805 6.80867C2.00022 6.90002 1.99032 7.00054 2.0096 7.09752C2.02889 7.19449 2.07649 7.28357 2.14639 7.3535L5.64639 10.8535C5.74016 10.9472 5.86731 10.9999 5.99989 10.9999C6.13248 10.9999 6.25963 10.9472 6.35339 10.8535L9.85339 7.3535C9.9233 7.28357 9.9709 7.19449 9.99019 7.09752C10.0095 7.00054 9.99957 6.90002 9.96173 6.80867C9.9239 6.71732 9.85983 6.63924 9.77762 6.5843C9.69542 6.52936 9.59877 6.50002 9.49989 6.5Z" fill="#737373"/>
</svg>
