<svg width="24" height="24" viewBox="0 0 24 24" fill="none" xmlns="http://www.w3.org/2000/svg">
<g clip-path="url(#clip0_1603_22677)">
<path d="M17.9992 0.825195H5.99922C4.62715 0.826585 3.31168 1.37225 2.34148 2.34245C1.37128 3.31265 0.825609 4.62813 0.824219 6.0002V18.0002C0.824219 20.8539 3.14622 23.1752 5.99922 23.1752H17.9992C20.853 23.1752 23.1742 20.8532 23.1742 18.0002V6.0002C23.1742 3.14645 20.853 0.825195 17.9992 0.825195ZM5.99922 2.1752H17.9992C20.109 2.1752 21.8242 3.8912 21.8242 6.0002V7.20019H2.17422V6.0002C2.17422 3.8912 3.89022 2.1752 5.99922 2.1752ZM17.9992 21.8252H5.99922C4.98507 21.8242 4.01274 21.4209 3.29563 20.7038C2.57852 19.9867 2.17521 19.0143 2.17422 18.0002V8.55019H21.8242V18.0002C21.8242 20.1099 20.109 21.8252 17.9992 21.8252Z" fill="black"/>
<path d="M5.28242 5.3627H5.65142C5.83044 5.3627 6.00213 5.29158 6.12872 5.16499C6.25531 5.03841 6.32642 4.86672 6.32642 4.6877C6.32642 4.50867 6.25531 4.33699 6.12872 4.2104C6.00213 4.08381 5.83044 4.0127 5.65142 4.0127H5.28242C5.1034 4.0127 4.93171 4.08381 4.80512 4.2104C4.67854 4.33699 4.60742 4.50867 4.60742 4.6877C4.60742 4.86672 4.67854 5.03841 4.80512 5.16499C4.93171 5.29158 5.1034 5.3627 5.28242 5.3627ZM8.18867 5.3627H8.55767C8.73669 5.3627 8.90838 5.29158 9.03497 5.16499C9.16156 5.03841 9.23267 4.86672 9.23267 4.6877C9.23267 4.50867 9.16156 4.33699 9.03497 4.2104C8.90838 4.08381 8.73669 4.0127 8.55767 4.0127H8.18867C8.00965 4.0127 7.83796 4.08381 7.71137 4.2104C7.58479 4.33699 7.51367 4.50867 7.51367 4.6877C7.51367 4.86672 7.58479 5.03841 7.71137 5.16499C7.83796 5.29158 8.00965 5.3627 8.18867 5.3627ZM12.4989 5.3627H18.7179C18.8969 5.3627 19.0686 5.29158 19.1952 5.16499C19.3218 5.03841 19.3929 4.86672 19.3929 4.6877C19.3929 4.50867 19.3218 4.33699 19.1952 4.2104C19.0686 4.08381 18.8969 4.0127 18.7179 4.0127H12.4989C12.3199 4.0127 12.1482 4.08381 12.0216 4.2104C11.895 4.33699 11.8239 4.50867 11.8239 4.6877C11.8239 4.86672 11.895 5.03841 12.0216 5.16499C12.1482 5.29158 12.3199 5.3627 12.4989 5.3627Z" fill="black"/>
<path d="M17.8644 17.7002H6.13594C5.95692 17.7002 5.78523 17.7713 5.65864 17.8979C5.53205 18.0245 5.46094 18.1962 5.46094 18.3752C5.46094 18.5542 5.53205 18.7259 5.65864 18.8525C5.78523 18.9791 5.95692 19.0502 6.13594 19.0502H17.8652C17.9538 19.0501 18.0416 19.0326 18.1235 18.9987C18.2053 18.9647 18.2797 18.9149 18.3424 18.8522C18.405 18.7895 18.4547 18.7151 18.4886 18.6332C18.5225 18.5512 18.5399 18.4635 18.5398 18.3748C18.5398 18.2862 18.5223 18.1984 18.4883 18.1165C18.4543 18.0347 18.4046 17.9603 18.3418 17.8976C18.2791 17.835 18.2047 17.7853 18.1228 17.7514C18.0409 17.7176 17.9531 17.7001 17.8644 17.7002ZM17.8644 14.5127H6.13594C5.95692 14.5127 5.78523 14.5838 5.65864 14.7104C5.53205 14.837 5.46094 15.0087 5.46094 15.1877C5.46094 15.3667 5.53205 15.5384 5.65864 15.665C5.78523 15.7916 5.95692 15.8627 6.13594 15.8627H17.8652C18.0442 15.8626 18.2159 15.7914 18.3424 15.6647C18.4689 15.5381 18.5399 15.3663 18.5398 15.1873C18.5397 15.0083 18.4685 14.8366 18.3418 14.7101C18.2152 14.5836 18.0435 14.5126 17.8644 14.5127ZM6.13594 12.6752H12.0002C12.1792 12.6752 12.3509 12.6041 12.4775 12.4775C12.6041 12.3509 12.6752 12.1792 12.6752 12.0002C12.6752 11.8212 12.6041 11.6495 12.4775 11.5229C12.3509 11.3963 12.1792 11.3252 12.0002 11.3252H6.13594C5.95692 11.3252 5.78523 11.3963 5.65864 11.5229C5.53205 11.6495 5.46094 11.8212 5.46094 12.0002C5.46094 12.1792 5.53205 12.3509 5.65864 12.4775C5.78523 12.6041 5.95692 12.6752 6.13594 12.6752Z" fill="black"/>
</g>
<defs>
<clipPath id="clip0_1603_22677">
<rect width="24" height="24" fill="white"/>
</clipPath>
</defs>
</svg>
