<svg width="24" height="24" viewBox="0 0 24 24" fill="none" xmlns="http://www.w3.org/2000/svg">
<path d="M18 1.5H6C3.5175 1.5 1.5 3.5175 1.5 6V7.2H22.5V6C22.5 3.5175 20.4825 1.5 18 1.5ZM5.65125 5.3625H5.28225C5.10323 5.3625 4.93154 5.29138 4.80495 5.1648C4.67837 5.03821 4.60725 4.86652 4.60725 4.6875C4.60725 4.50848 4.67837 4.33679 4.80495 4.2102C4.93154 4.08362 5.10323 4.0125 5.28225 4.0125H5.65125C5.83027 4.0125 6.00196 4.08362 6.12855 4.2102C6.25513 4.33679 6.32625 4.50848 6.32625 4.6875C6.32625 4.86652 6.25513 5.03821 6.12855 5.1648C6.00196 5.29138 5.83027 5.3625 5.65125 5.3625ZM8.5575 5.3625H8.1885C8.00948 5.3625 7.83779 5.29138 7.7112 5.1648C7.58462 5.03821 7.5135 4.86652 7.5135 4.6875C7.5135 4.50848 7.58462 4.33679 7.7112 4.2102C7.83779 4.08362 8.00948 4.0125 8.1885 4.0125H8.5575C8.73652 4.0125 8.90821 4.08362 9.0348 4.2102C9.16138 4.33679 9.2325 4.50848 9.2325 4.6875C9.2325 4.86652 9.16138 5.03821 9.0348 5.1648C8.90821 5.29138 8.73652 5.3625 8.5575 5.3625ZM18.7178 5.3625H12.4988C12.3197 5.3625 12.148 5.29138 12.0215 5.1648C11.8949 5.03821 11.8238 4.86652 11.8238 4.6875C11.8238 4.50848 11.8949 4.33679 12.0215 4.2102C12.148 4.08362 12.3197 4.0125 12.4988 4.0125H18.7178C18.8968 4.0125 19.0685 4.08362 19.195 4.2102C19.3216 4.33679 19.3927 4.50848 19.3927 4.6875C19.3927 4.86652 19.3216 5.03821 19.195 5.1648C19.0685 5.29138 18.8968 5.3625 18.7178 5.3625ZM1.5 8.55V18C1.5 20.4825 3.5175 22.5 6 22.5H18C20.4825 22.5 22.5 20.4825 22.5 18V8.55H1.5ZM6.13575 11.325H12C12.179 11.325 12.3507 11.3961 12.4773 11.5227C12.6039 11.6493 12.675 11.821 12.675 12C12.675 12.179 12.6039 12.3507 12.4773 12.4773C12.3507 12.6039 12.179 12.675 12 12.675H6.13575C5.95673 12.675 5.78504 12.6039 5.65845 12.4773C5.53187 12.3507 5.46075 12.179 5.46075 12C5.46075 11.821 5.53187 11.6493 5.65845 11.5227C5.78504 11.3961 5.95673 11.325 6.13575 11.325ZM17.8643 19.05H6.13575C5.95673 19.05 5.78504 18.9789 5.65845 18.8523C5.53187 18.7257 5.46075 18.554 5.46075 18.375C5.46075 18.196 5.53187 18.0243 5.65845 17.8977C5.78504 17.7711 5.95673 17.7 6.13575 17.7H17.865C17.9536 17.7001 18.0414 17.7176 18.1233 17.7515C18.2052 17.7855 18.2795 17.8353 18.3422 17.898C18.4048 17.9607 18.4545 18.0351 18.4884 18.117C18.5223 18.1989 18.5397 18.2867 18.5396 18.3754C18.5396 18.464 18.5221 18.5518 18.4881 18.6337C18.4541 18.7155 18.4044 18.7899 18.3417 18.8526C18.2789 18.9152 18.2045 18.9649 18.1226 18.9988C18.0407 19.0326 17.9529 19.05 17.8643 19.05ZM17.8643 15.8625H6.13575C5.95673 15.8625 5.78504 15.7914 5.65845 15.6648C5.53187 15.5382 5.46075 15.3665 5.46075 15.1875C5.46075 15.0085 5.53187 14.8368 5.65845 14.7102C5.78504 14.5836 5.95673 14.5125 6.13575 14.5125H17.865C18.044 14.5126 18.2157 14.5838 18.3422 14.7105C18.4687 14.8371 18.5397 15.0089 18.5396 15.1879C18.5395 15.3669 18.4683 15.5385 18.3417 15.6651C18.215 15.7916 18.0433 15.8626 17.8643 15.8625Z" fill="url(#paint0_linear_1306_8036)"/>
<defs>
<linearGradient id="paint0_linear_1306_8036" x1="12" y1="1.5" x2="12" y2="22.5" gradientUnits="userSpaceOnUse">
<stop stop-color="#0AC00A"/>
<stop offset="1" stop-color="#006400"/>
</linearGradient>
</defs>
</svg>
