<svg width="84" height="84" viewBox="0 0 84 84" fill="none" xmlns="http://www.w3.org/2000/svg">
<path fill-rule="evenodd" clip-rule="evenodd" d="M42 10C59.6731 10 74 24.3269 74 42C74 59.6731 59.6731 74 42 74C24.3269 74 10 59.6731 10 42C10 24.3269 24.3269 10 42 10ZM57.4285 48.8714L51.7552 45.5961C50.6527 44.9596 49.2306 45.34 48.5941 46.4429C48.0334 47.4144 47.1829 48.2026 46.0549 48.4336C44.9463 48.6607 43.892 48.4244 42.987 47.745C42.8414 47.6357 42.6969 47.5247 42.5537 47.4121L37.8431 52.123C40.9977 54.7599 44.753 57.1781 48.4136 58.159C49.382 58.4185 50.3905 58.5859 51.395 58.5856C53.1596 58.585 54.7622 58.0666 56.0216 56.8073C56.8326 55.9963 57.9705 52.9022 58.395 51.799L58.4215 51.73C58.8364 50.6517 58.434 49.4519 57.4285 48.8714ZM25.8269 58.1756C26.3736 58.7224 27.2681 58.7224 27.8149 58.1756L37.4824 48.5078L40.4214 45.5685L54.2902 31.699C54.8369 31.1524 54.8369 30.2577 54.2901 29.711C53.7435 29.1643 52.8489 29.1644 52.3021 29.711L38.4335 43.5805C37.6644 42.7613 36.9233 41.9025 36.257 41.015C35.5777 40.1101 35.3408 39.0557 35.5678 37.9471C35.7988 36.819 36.5875 35.9688 37.5591 35.408C38.097 35.0976 38.4745 34.6014 38.6353 34.0018C38.7956 33.4038 38.7156 32.7831 38.4059 32.2467L35.1306 26.5736C34.551 25.5695 33.3568 25.1573 32.2782 25.5781L32.2086 25.6053C31.1206 26.0299 27.9905 27.1845 27.1947 27.9804C25.1419 30.0336 25.132 32.935 25.8429 35.5881C27.0531 40.1051 30.4516 44.766 33.7493 48.2649L25.8267 56.1876C25.2802 56.7344 25.2802 57.6289 25.8269 58.1756Z" fill="#FAE390"/>
</svg>
