<svg width="64" height="64" viewBox="0 0 64 64" fill="none" xmlns="http://www.w3.org/2000/svg">
<path d="M32 0C49.6731 0 64 14.3269 64 32C64 49.6731 49.6731 64 32 64C14.3269 64 0 49.6731 0 32C0 14.3269 14.3269 0 32 0ZM34.4609 14.0098C34.12 13.9686 33.7763 14.0623 33.5039 14.2715C33.2316 14.4808 33.052 14.7888 33.0039 15.1289C32.9559 15.4689 33.0434 15.8143 33.2471 16.0908C33.451 16.3674 33.7555 16.5537 34.0947 16.6084C37.0568 17.0267 39.7459 18.2962 41.9111 20.1582L20.3232 41.7461C18.0185 39.0658 16.6251 35.5795 16.625 31.7705C16.6249 31.4225 16.4863 31.0879 16.2402 30.8418C15.9941 30.5959 15.6604 30.458 15.3125 30.458C14.9646 30.458 14.6309 30.5959 14.3848 30.8418C14.1387 31.0879 14.0001 31.4225 14 31.7705C14.0001 36.3037 15.6861 40.4462 18.4639 43.6055L14.7227 47.3477C14.137 47.9334 14.137 48.884 14.7227 49.4697C15.3084 50.0551 16.258 50.0551 16.8438 49.4697L20.626 45.6865C23.7131 48.1996 27.6505 49.708 31.9375 49.708C33.215 49.708 34.4618 49.5739 35.6641 49.3193C36.0035 49.2461 36.3004 49.0414 36.4893 48.75C36.6779 48.4587 36.7436 48.1042 36.6719 47.7646C36.6 47.4251 36.396 47.1274 36.1055 46.9375C35.8149 46.7477 35.4609 46.6805 35.1211 46.751C34.0744 46.9719 33.0072 47.0834 31.9375 47.083C28.3749 47.083 25.0947 45.8638 22.4922 43.8203L43.9854 22.3271C46.0286 24.9298 47.2499 28.2084 47.25 31.7705C47.2499 37.2303 44.3848 42.0267 40.0791 44.7383C39.7935 44.9276 39.5936 45.2217 39.5215 45.5566C39.4495 45.8917 39.5118 46.2422 39.6943 46.5322C39.877 46.822 40.1659 47.0286 40.499 47.1084C40.8323 47.1882 41.1833 47.1347 41.4775 46.959C46.5217 43.7837 49.8749 38.1656 49.875 31.7705C49.8749 27.4836 48.3667 23.546 45.8535 20.459L47.9404 18.373C48.5257 17.7873 48.5257 16.8376 47.9404 16.252C47.3547 15.6663 46.4041 15.6663 45.8184 16.252L43.7725 18.2969C41.2099 16.0439 38.0007 14.5093 34.4609 14.0098ZM26.5088 14.7676C26.3368 14.7581 26.1645 14.7829 26.002 14.8398C23.593 15.6891 21.3913 17.0407 19.5449 18.8057C17.6986 20.5707 16.2488 22.7089 15.292 25.0771C15.1755 25.3972 15.1885 25.7505 15.3271 26.0615C15.4659 26.3725 15.7203 26.6179 16.0361 26.7451C16.352 26.8722 16.705 26.8712 17.0205 26.7432C17.336 26.615 17.5897 26.369 17.7275 26.0576C18.5443 24.0357 19.7822 22.2101 21.3584 20.7031C22.9346 19.1962 24.8136 18.0415 26.8701 17.3164C27.0327 17.2594 27.1831 17.1716 27.3115 17.0566C27.4399 16.9417 27.5445 16.8018 27.6191 16.6465C27.6936 16.4915 27.7365 16.3231 27.7461 16.1514C27.7556 15.9793 27.7318 15.8061 27.6748 15.6436C27.6178 15.4811 27.5289 15.3314 27.4141 15.2031C27.2992 15.0749 27.16 14.9701 27.0049 14.8955C26.8496 14.8209 26.6808 14.7771 26.5088 14.7676Z" fill="#FAE390"/>
</svg>
