<svg width="84" height="84" viewBox="0 0 84 84" fill="none" xmlns="http://www.w3.org/2000/svg">
<path d="M63 7.875H21C13.7629 7.875 7.875 13.7629 7.875 21V63C7.875 70.2371 13.7629 76.125 21 76.125H63C70.2371 76.125 76.125 70.2371 76.125 63V21C76.125 13.7629 70.2371 7.875 63 7.875ZM42.0079 20.5433C47.7986 20.5433 52.5079 25.2525 52.5079 31.0433C52.5079 36.834 47.7986 41.5433 42.0079 41.5433C36.2171 41.5433 31.5079 36.834 31.5079 31.0433C31.5079 25.2525 36.2171 20.5433 42.0079 20.5433ZM57.75 64.3702H26.25C25.5538 64.3702 24.8861 64.0937 24.3938 63.6014C23.9016 63.1091 23.625 62.4414 23.625 61.7452C23.625 51.6127 31.8701 43.3702 42 43.3702C52.1299 43.3702 60.375 51.6127 60.375 61.7452C60.375 62.4414 60.0984 63.1091 59.6062 63.6014C59.1139 64.0937 58.4462 64.3702 57.75 64.3702Z" fill="#FAE390"/>
</svg>
