<svg width="64" height="64" viewBox="0 0 64 64" fill="none" xmlns="http://www.w3.org/2000/svg">
<path d="M32 0C49.6731 0 64 14.3269 64 32C64 49.6731 49.6731 64 32 64C14.3269 64 0 49.6731 0 32C0 14.3269 14.3269 0 32 0ZM17.1084 16C16.9626 15.9988 16.8176 16.0258 16.6826 16.0811C16.5477 16.1363 16.4254 16.2183 16.3223 16.3213C16.2191 16.4245 16.1373 16.5476 16.082 16.6826C16.0268 16.8177 15.9987 16.9625 16 17.1084C16.0013 17.2544 16.0312 17.3991 16.0889 17.5332C16.1464 17.6671 16.2301 17.7883 16.335 17.8896L47.123 48.6758C47.2249 48.7782 47.3461 48.8596 47.4795 48.915C47.6129 48.9705 47.7559 48.999 47.9004 48.999C48.0449 48.999 48.1879 48.9705 48.3213 48.915C48.4547 48.8596 48.5759 48.7782 48.6777 48.6758C48.8838 48.4696 49 48.1899 49 47.8984C48.9999 47.607 48.8838 47.3272 48.6777 47.1211L45.5615 44.0059C45.6493 43.8519 45.6973 43.6781 45.7012 43.501V42.9512C45.7012 41.7527 45.0635 40.2021 44.2168 39.3555L43.249 38.3877C42.8093 37.9587 42.4023 36.9691 42.4023 36.3535V28.1074C42.4022 23.0279 38.5433 18.8282 33.6064 18.2783V17.1123C33.6063 16.5077 33.1114 16.0128 32.5068 16.0127C31.9021 16.0127 31.4073 16.5077 31.4072 17.1123V18.2783C28.4132 18.6159 25.8328 20.3012 24.2549 22.6992L17.8906 16.335C17.7892 16.2299 17.6674 16.1465 17.5332 16.0889C17.3991 16.0313 17.2544 16.0013 17.1084 16ZM29.4062 46.7988C29.8571 48.0743 31.0774 48.998 32.5068 48.998C33.9362 48.998 35.1566 48.0742 35.6074 46.7988H29.4062ZM22.6221 27.6572C22.6111 27.8109 22.6104 27.9537 22.6104 28.1074V36.3535C22.6104 36.9692 22.2035 37.9589 21.7637 38.3877L20.7959 39.3555C19.9493 40.2021 19.3115 41.7528 19.3115 42.9512V43.501C19.3116 44.1055 19.8066 44.6004 20.4111 44.6006H39.5654L22.6221 27.6572Z" fill="#FAE390"/>
</svg>
