<svg width="84" height="84" viewBox="0 0 84 84" fill="none" xmlns="http://www.w3.org/2000/svg">
<circle cx="42" cy="42" r="32" fill="#FAE390"/>
<path fill-rule="evenodd" clip-rule="evenodd" d="M45.9415 60.4455C44.6456 60.719 43.3247 60.8566 42.0003 60.8561C31.5364 60.8561 23.042 52.3617 23.042 41.8977C23.042 41.4668 22.8708 41.0534 22.566 40.7487C22.2613 40.4439 21.848 40.2727 21.417 40.2727C20.986 40.2727 20.5727 40.4439 20.2679 40.7487C19.9632 41.0534 19.792 41.4668 19.792 41.8977C19.792 54.1546 29.7435 64.1061 42.0003 64.1061C43.582 64.1061 45.1257 63.9403 46.6142 63.6251C47.0345 63.5345 47.4017 63.281 47.6355 62.9203C47.8692 62.5595 47.9505 62.1208 47.8615 61.7002C47.7726 61.2796 47.5205 60.9114 47.1607 60.6763C46.8008 60.4411 46.3624 60.3581 45.9415 60.4455ZM44.6707 23.1257C53.8715 24.4247 60.9587 32.3406 60.9587 41.8977C60.9587 48.6577 57.4118 54.5966 52.0807 57.9538C51.727 58.1883 51.4791 58.5518 51.3899 58.9667C51.3007 59.3816 51.3773 59.815 51.6035 60.1741C51.8296 60.5332 52.1872 60.7896 52.5999 60.8885C53.0126 60.9874 53.4476 60.921 53.8119 60.7033C60.0573 56.7719 64.2087 49.8158 64.2087 41.8977C64.2087 30.7015 55.9038 21.4292 45.1247 19.9082C44.7023 19.8572 44.2768 19.9738 43.9395 20.2329C43.6022 20.4921 43.38 20.8733 43.3205 21.2945C43.2611 21.7157 43.3692 22.1434 43.6217 22.4858C43.8741 22.8282 44.2508 23.058 44.6707 23.1257ZM24.407 34.8257C25.4182 32.3221 26.9506 30.0623 28.9022 28.1964C30.8539 26.3304 33.1802 24.9011 35.7267 24.0032C35.9281 23.9326 36.1136 23.823 36.2726 23.6807C36.4316 23.5384 36.5611 23.3661 36.6535 23.1738C36.746 22.9814 36.7996 22.7728 36.8114 22.5597C36.8232 22.3466 36.793 22.1333 36.7223 21.9319C36.6517 21.7305 36.5421 21.545 36.3998 21.386C36.2574 21.227 36.0852 21.0976 35.8929 21.0051C35.7005 20.9127 35.4918 20.859 35.2788 20.8472C35.0657 20.8354 34.8524 20.8657 34.651 20.9363C31.6684 21.9878 28.9437 23.6618 26.6577 25.8471C24.3717 28.0324 22.5767 30.6791 21.3921 33.6113C21.2478 34.0076 21.2631 34.4445 21.4349 34.8297C21.6066 35.2149 21.9213 35.5183 22.3125 35.6759C22.7037 35.8335 23.1408 35.8329 23.5316 35.6743C23.9224 35.5157 24.2363 35.2114 24.407 34.8257Z" fill="white"/>
<path d="M22 62.5L60.5 24" stroke="white" stroke-width="3" stroke-linecap="round"/>
</svg>
