<svg width="187" height="187" viewBox="0 0 187 187" fill="none" xmlns="http://www.w3.org/2000/svg">
<path d="M187 143.017H0V143.111H187V143.017Z" fill="#EBEBEB"/>
<path d="M162.243 146.996H149.855V147.089H162.243V146.996Z" fill="#EBEBEB"/>
<path d="M117.087 146.95H113.836V147.043H117.087V146.95Z" fill="#EBEBEB"/>
<path d="M168.264 149.036H161.086V149.13H168.264V149.036Z" fill="#EBEBEB"/>
<path d="M42.8651 150.274H26.7109V150.367H42.8651V150.274Z" fill="#EBEBEB"/>
<path d="M41.474 146.192H39.1055V146.285H41.474V146.192Z" fill="#EBEBEB"/>
<path d="M92.9165 146.59H70.1406V146.684H92.9165V146.59Z" fill="#EBEBEB"/>
<path d="M88.639 126.336H16.4199C15.243 126.336 14.2852 125.378 14.2852 124.201V22.6858C14.2852 21.5088 15.243 20.551 16.4199 20.551H88.639C89.8156 20.551 90.7734 21.5088 90.7734 22.6858V124.201C90.7734 125.378 89.8156 126.336 88.639 126.336ZM16.4199 20.6449C15.2942 20.6449 14.3787 21.5605 14.3787 22.6862V124.202C14.3787 125.327 15.2942 126.243 16.4199 126.243H88.639C89.7643 126.243 90.6799 125.327 90.6799 124.202V22.6858C90.6799 21.5605 89.7643 20.6445 88.639 20.6445L16.4199 20.6449Z" fill="#EBEBEB"/>
<path d="M169.537 126.336H97.318C96.141 126.336 95.1836 125.378 95.1836 124.201V22.6858C95.1836 21.5088 96.1414 20.551 97.318 20.551H169.537C170.714 20.551 171.671 21.5088 171.671 22.6858V124.201C171.672 125.378 170.714 126.336 169.537 126.336ZM97.318 20.6449C96.1926 20.6449 95.2771 21.5605 95.2771 22.6862V124.202C95.2771 125.327 96.1926 126.243 97.318 126.243H169.537C170.662 126.243 171.578 125.327 171.578 124.202V22.6858C171.578 21.5605 170.662 20.6445 169.537 20.6445L97.318 20.6449Z" fill="#EBEBEB"/>
<path d="M104.483 112.489L162.586 112.489V39.7291L104.483 39.7291V112.489Z" fill="#F5F5F5"/>
<path d="M105.06 111.365H162.008C162.649 111.365 163.17 111.885 163.17 112.527V113.165C163.17 113.807 162.649 114.327 162.008 114.327H105.06C104.419 114.327 103.898 113.807 103.898 113.165V112.527C103.899 111.885 104.419 111.365 105.06 111.365Z" fill="#EBEBEB"/>
<path d="M117.545 43.1031H149.522C149.815 43.1031 150.052 43.3403 150.052 43.6327C150.052 43.9252 149.815 44.1623 149.522 44.1623H117.545C117.253 44.1623 117.016 43.9252 117.016 43.6327C117.015 43.3403 117.252 43.1031 117.545 43.1031Z" fill="#EBEBEB"/>
<path d="M31.0279 87.0624H72.457V72.6327H31.0279V87.0624Z" fill="#F0F0F0"/>
<path d="M71.6758 86.2732V73.4196L31.8223 73.4196V86.2732H71.6758Z" fill="#E6E6E6"/>
<path d="M58.1378 86.9H58.9258V72.7946H58.1378V86.9Z" fill="#F0F0F0"/>
<path d="M63.2904 73.4196H58.9258V86.2732H63.2904V73.4196Z" fill="#E0E0E0"/>
<path d="M49.7552 73.4196H45.3906V86.2732H49.7552V73.4196Z" fill="#E0E0E0"/>
<path d="M36.181 73.4196H31.8164V86.2732H36.181V73.4196Z" fill="#E0E0E0"/>
<path d="M44.6026 86.9H45.3906V72.7946H44.6026V86.9Z" fill="#F0F0F0"/>
<path d="M76.3795 72.632H72.457V87.0616H76.3795V72.632Z" fill="#E6E6E6"/>
<path d="M61.6202 86.2733H68.8845L67.1783 75.3121H59.9141L61.6202 86.2733Z" fill="#EBEBEB"/>
<path d="M47.4365 86.2733H54.7007L53.44 75.3121H46.1758L47.4365 86.2733Z" fill="#F5F5F5"/>
<path d="M50.9014 86.2732H57.5089L54.7286 76.3027H48.1211L50.9014 86.2732Z" fill="#E0E0E0"/>
<path d="M64.4116 86.2728H71.6758V74.4264H64.4116V86.2728Z" fill="#F5F5F5"/>
<path d="M33.4077 86.2728H40.6719V74.4264H33.4077V86.2728Z" fill="#F5F5F5"/>
<path d="M38.5544 86.2732H44.1839L42.2267 76.3027H36.5977L38.5544 86.2732Z" fill="#E0E0E0"/>
<path d="M41.3601 86.2736H44.5997V77.0276H38.2656L41.3601 86.2736Z" fill="#F5F5F5"/>
<path d="M33.4076 86.2728H35.0625V74.4264H33.4076V86.2728Z" fill="#FAFAFA"/>
<path d="M66.4922 85.3881C66.613 85.3881 66.711 85.2901 66.711 85.1693V75.5309C66.711 75.4101 66.613 75.3121 66.4922 75.3121C66.3714 75.3121 66.2734 75.4101 66.2734 75.5309V85.1693C66.2734 85.2901 66.3714 85.3881 66.4922 85.3881Z" fill="#F0F0F0"/>
<path d="M26.3404 143.015H35.7461L35.7461 87.0626H26.3404L26.3404 143.015Z" fill="#E6E6E6"/>
<path d="M28.1303 143.015H26.3438V137.933H30.0033L28.1303 143.015Z" fill="#F0F0F0"/>
<path d="M73.6216 143.015H83.0273V87.0626H73.6216V143.015Z" fill="#E6E6E6"/>
<path d="M26.3545 139.896H75.1914V87.0615H26.3545L26.3545 139.896Z" fill="#F0F0F0"/>
<path d="M72.1543 98.6442H29.3627C28.3574 98.6442 27.5391 97.8259 27.5391 96.8205V90.0871C27.5391 89.0814 28.3574 88.2634 29.3627 88.2634H72.1543C73.1596 88.2634 73.9779 89.0817 73.9779 90.0871V96.8205C73.9779 97.8259 73.16 98.6442 72.1543 98.6442ZM29.3627 88.6371C28.5634 88.6371 27.9131 89.2874 27.9131 90.0867V96.8202C27.9131 97.6194 28.5634 98.2698 29.3627 98.2698H72.1543C72.9535 98.2698 73.6039 97.6194 73.6039 96.8202V90.0867C73.6039 89.2871 72.9535 88.6371 72.1543 88.6371H29.3627Z" fill="#E6E6E6"/>
<path d="M48.5223 133.732H29.3627C28.3574 133.732 27.5391 132.914 27.5391 131.908V101.241C27.5391 100.236 28.3574 99.4177 29.3627 99.4177H48.5223C49.5276 99.4177 50.346 100.236 50.346 101.241V131.908C50.346 132.914 49.5276 133.732 48.5223 133.732ZM29.3627 99.7917C28.5634 99.7917 27.9131 100.442 27.9131 101.241V131.908C27.9131 132.707 28.5634 133.358 29.3627 133.358H48.5223C49.3216 133.358 49.972 132.707 49.972 131.908V101.241C49.972 100.442 49.3216 99.7917 48.5223 99.7917H29.3627Z" fill="#E6E6E6"/>
<path d="M72.1473 133.732H52.9877C51.982 133.732 51.1641 132.914 51.1641 131.908V101.241C51.1641 100.236 51.9824 99.4177 52.9877 99.4177H72.1473C73.1526 99.4177 73.971 100.236 73.971 101.241V131.908C73.971 132.914 73.153 133.732 72.1473 133.732ZM52.9877 99.7917C52.1884 99.7917 51.5381 100.442 51.5381 101.241V131.908C51.5381 132.707 52.1884 133.358 52.9877 133.358H72.1473C72.9466 133.358 73.597 132.707 73.597 131.908V101.241C73.597 100.442 72.9466 99.7917 72.1473 99.7917H52.9877Z" fill="#E6E6E6"/>
<path d="M54.7871 104.966C53.8083 104.966 53.0117 104.169 53.0117 103.19C53.0117 102.211 53.808 101.415 54.7871 101.415C55.7662 101.415 56.5621 102.212 56.5621 103.19C56.5621 104.169 55.7662 104.966 54.7871 104.966ZM54.7871 101.789C54.0144 101.789 53.3857 102.418 53.3857 103.19C53.3857 103.963 54.0144 104.592 54.7871 104.592C55.5594 104.592 56.1881 103.963 56.1881 103.19C56.1881 102.418 55.5598 101.789 54.7871 101.789Z" fill="#FAFAFA"/>
<path d="M46.7281 104.966C45.7494 104.966 44.9531 104.169 44.9531 103.19C44.9531 102.211 45.7494 101.415 46.7281 101.415C47.7069 101.415 48.5035 102.212 48.5035 103.19C48.5035 104.169 47.7069 104.966 46.7281 104.966ZM46.7281 101.789C45.9558 101.789 45.3271 102.418 45.3271 103.19C45.3271 103.963 45.9558 104.592 46.7281 104.592C47.5008 104.592 48.1295 103.963 48.1295 103.19C48.1295 102.418 47.5008 101.789 46.7281 101.789Z" fill="#FAFAFA"/>
<path d="M73.3886 143.015H75.1752V137.933H71.5156L73.3886 143.015Z" fill="#F0F0F0"/>
<path d="M50.5527 95.3016C49.574 95.3016 48.7773 94.5054 48.7773 93.5262C48.7773 92.5471 49.5736 91.7512 50.5527 91.7512C51.5315 91.7512 52.3277 92.5475 52.3277 93.5262C52.3277 94.505 51.5315 95.3016 50.5527 95.3016ZM50.5527 92.1256C49.78 92.1256 49.1513 92.7543 49.1513 93.5266C49.1513 94.2993 49.78 94.928 50.5527 94.928C51.325 94.928 51.9537 94.2993 51.9537 93.5266C51.9537 92.7539 51.3254 92.1256 50.5527 92.1256Z" fill="#FAFAFA"/>
<path d="M80.8035 55.1898H76.3555V57.2906H80.8035V55.1898Z" fill="#E6E6E6"/>
<path d="M27.3828 57.2909L76.3555 57.2909V55.1901L27.3828 55.1901V57.2909Z" fill="#F5F5F5"/>
<path d="M52.5228 48.5579C52.5228 52.2055 49.5312 55.19 45.8746 55.19H42.574C38.9174 55.19 35.9258 52.2055 35.9258 48.5579H52.5228Z" fill="#F0F0F0"/>
<path d="M52.5228 43.9445C52.5228 47.5921 49.5312 50.5766 45.8746 50.5766H42.574C38.9174 50.5766 35.9258 47.5921 35.9258 43.9445H52.5228Z" fill="#F0F0F0"/>
<path d="M71.972 48.5579C71.972 52.2055 68.9804 55.19 65.3238 55.19H62.0232C58.3666 55.19 55.375 52.2055 55.375 48.5579H71.972Z" fill="#F0F0F0"/>
<path d="M71.972 43.9445C71.972 47.5921 68.9804 50.5766 65.3238 50.5766H62.0232C58.3666 50.5766 55.375 47.5921 55.375 43.9445H71.972Z" fill="#F0F0F0"/>
<path d="M93.4989 159.907C133.548 159.907 166.013 158.011 166.013 155.672C166.013 153.333 133.548 151.438 93.4989 151.438C53.4502 151.438 20.9844 153.333 20.9844 155.672C20.9844 158.011 53.4502 159.907 93.4989 159.907Z" fill="#F5F5F5"/>
<path d="M94.3563 48.0699H134.505C136.578 48.0699 138.21 49.766 138.133 51.8387L135.095 133.406C135.018 135.478 133.258 137.174 131.186 137.174H91.0371C88.9644 137.174 87.3315 135.479 87.4089 133.406L90.4473 51.8387C90.5243 49.7657 92.2836 48.0699 94.3563 48.0699Z" fill="#263238"/>
<path d="M115.549 46.7621H112.762V47.1361H115.549V46.7621Z" fill="url(#paint0_linear_324_4044)"/>
<path d="M109.811 46.7621H101.957V47.1361H109.811V46.7621Z" fill="url(#paint1_linear_324_4044)"/>
<path d="M93.4575 48.0699H133.606C135.679 48.0699 137.312 49.766 137.234 51.8387L134.196 133.406C134.119 135.478 132.36 137.174 130.287 137.174H90.1386C88.0659 137.174 86.433 135.479 86.5105 133.406L89.5488 51.8387C89.6259 49.7657 91.3848 48.0699 93.4575 48.0699Z" fill="url(#paint2_linear_324_4044)"/>
<path d="M133.33 131.863L136.308 51.8417C136.359 50.4534 135.278 49.328 133.892 49.328H93.0342C91.6486 49.328 90.4835 50.4534 90.4319 51.8417L87.4549 131.863C87.4033 133.252 88.4845 134.377 89.8702 134.377H130.728C132.114 134.377 133.279 133.252 133.33 131.863Z" fill="white"/>
<path d="M97.3515 112.246H93.8356C93.3396 112.246 92.9556 111.84 92.9817 111.344L93.1684 107.828C93.1945 107.333 93.622 106.927 94.1176 106.927H97.6335C98.1295 106.927 98.5136 107.333 98.4874 107.828L98.3008 111.344C98.2746 111.84 97.8471 112.246 97.3515 112.246Z" fill="#E6E6E6"/>
<path d="M103.578 112.246H100.062C99.5662 112.246 99.1821 111.84 99.2083 111.344L99.3949 107.828C99.4211 107.333 99.8482 106.927 100.344 106.927H103.86C104.356 106.927 104.74 107.333 104.714 107.828L104.527 111.344C104.501 111.84 104.074 112.246 103.578 112.246Z" fill="#E6E6E6"/>
<path d="M109.793 112.246H106.277C105.781 112.246 105.397 111.84 105.423 111.344L105.61 107.828C105.636 107.333 106.063 106.927 106.559 106.927H110.075C110.571 106.927 110.955 107.333 110.929 107.828L110.742 111.344C110.716 111.84 110.289 112.246 109.793 112.246Z" fill="#E6E6E6"/>
<path d="M116.02 112.246H112.504C112.008 112.246 111.624 111.84 111.65 111.344L111.836 107.828C111.863 107.333 112.29 106.927 112.786 106.927H116.302C116.797 106.927 117.182 107.333 117.155 107.828L116.969 111.344C116.943 111.84 116.515 112.246 116.02 112.246Z" fill="#E6E6E6"/>
<path d="M122.246 112.246H118.73C118.234 112.246 117.85 111.84 117.876 111.344L118.063 107.828C118.089 107.333 118.516 106.927 119.012 106.927H122.528C123.024 106.927 123.408 107.333 123.382 107.828L123.195 111.344C123.169 111.84 122.742 112.246 122.246 112.246Z" fill="#E6E6E6"/>
<path d="M128.461 112.246H124.945C124.449 112.246 124.065 111.84 124.091 111.344L124.278 107.828C124.304 107.333 124.731 106.927 125.227 106.927H128.743C129.239 106.927 129.623 107.333 129.597 107.828L129.41 111.344C129.384 111.84 128.957 112.246 128.461 112.246Z" fill="#E6E6E6"/>
<path d="M93.914 118.312H90.3981C89.9022 118.312 89.5181 117.906 89.5442 117.41L89.7309 113.895C89.757 113.399 90.1845 112.993 90.6801 112.993H94.196C94.692 112.993 95.0761 113.399 95.0499 113.895L94.8633 117.41C94.8371 117.907 94.41 118.312 93.914 118.312Z" fill="#E6E6E6"/>
<path d="M100.141 118.312H96.6246C96.1287 118.312 95.7446 117.906 95.7708 117.41L95.9574 113.895C95.9836 113.399 96.4107 112.993 96.9066 112.993H100.423C100.919 112.993 101.303 113.399 101.276 113.895L101.09 117.41C101.064 117.907 100.637 118.312 100.141 118.312Z" fill="#E6E6E6"/>
<path d="M106.355 118.312H102.839C102.344 118.312 101.959 117.906 101.986 117.41L102.172 113.895C102.198 113.399 102.626 112.993 103.121 112.993H106.637C107.133 112.993 107.517 113.399 107.491 113.895L107.305 117.41C107.278 117.907 106.851 118.312 106.355 118.312Z" fill="#E6E6E6"/>
<path d="M112.582 118.312H109.066C108.57 118.312 108.186 117.906 108.212 117.41L108.399 113.895C108.425 113.399 108.852 112.993 109.348 112.993H112.864C113.36 112.993 113.744 113.399 113.718 113.895L113.531 117.41C113.505 117.907 113.078 118.312 112.582 118.312Z" fill="#E6E6E6"/>
<path d="M118.809 118.312H115.293C114.797 118.312 114.413 117.906 114.439 117.41L114.625 113.895C114.652 113.399 115.079 112.993 115.575 112.993H119.091C119.587 112.993 119.971 113.399 119.944 113.895L119.758 117.41C119.732 117.907 119.305 118.312 118.809 118.312Z" fill="#E6E6E6"/>
<path d="M125.023 118.312H121.507C121.012 118.312 120.627 117.906 120.654 117.41L120.84 113.895C120.866 113.399 121.294 112.993 121.789 112.993H125.305C125.801 112.993 126.185 113.399 126.159 113.895L125.973 117.41C125.947 117.907 125.519 118.312 125.023 118.312Z" fill="#E6E6E6"/>
<path d="M131.25 118.312H127.734C127.238 118.312 126.854 117.906 126.88 117.41L127.067 113.895C127.093 113.399 127.52 112.993 128.016 112.993H131.532C132.028 112.993 132.412 113.399 132.386 113.895L132.199 117.41C132.173 117.907 131.746 118.312 131.25 118.312Z" fill="#E6E6E6"/>
<path d="M96.7031 124.381H93.1871C92.6912 124.381 92.3071 123.975 92.3333 123.48L92.5199 119.964C92.5461 119.468 92.9732 119.062 93.4691 119.062H96.9851C97.481 119.062 97.8651 119.468 97.8389 119.964L97.6523 123.48C97.6261 123.975 97.1987 124.381 96.7031 124.381Z" fill="#E6E6E6"/>
<path d="M102.93 124.381H99.4137C98.9178 124.381 98.5337 123.975 98.5599 123.48L98.7465 119.964C98.7727 119.468 99.2001 119.062 99.6957 119.062H103.212C103.708 119.062 104.092 119.468 104.066 119.964L103.879 123.48C103.853 123.975 103.426 124.381 102.93 124.381Z" fill="#E6E6E6"/>
<path d="M109.145 124.381H105.629C105.133 124.381 104.749 123.975 104.775 123.48L104.961 119.964C104.988 119.468 105.415 119.062 105.911 119.062H109.427C109.922 119.062 110.307 119.468 110.28 119.964L110.094 123.48C110.068 123.975 109.64 124.381 109.145 124.381Z" fill="#E6E6E6"/>
<path d="M115.371 124.381H111.855C111.359 124.381 110.975 123.975 111.001 123.48L111.188 119.964C111.214 119.468 111.642 119.062 112.137 119.062H115.653C116.149 119.062 116.533 119.468 116.507 119.964L116.32 123.48C116.294 123.975 115.867 124.381 115.371 124.381Z" fill="#E6E6E6"/>
<path d="M121.598 124.381H118.082C117.586 124.381 117.202 123.975 117.228 123.48L117.414 119.964C117.441 119.468 117.868 119.062 118.364 119.062H121.88C122.376 119.062 122.76 119.468 122.733 119.964L122.547 123.48C122.521 123.975 122.094 124.381 121.598 124.381Z" fill="#E6E6E6"/>
<path d="M127.812 124.381H124.297C123.801 124.381 123.416 123.975 123.443 123.48L123.629 119.964C123.655 119.468 124.083 119.062 124.579 119.062H128.094C128.59 119.062 128.975 119.468 128.948 119.964L128.762 123.48C128.736 123.975 128.308 124.381 127.812 124.381Z" fill="#E6E6E6"/>
<path d="M118.244 130.448H102.1C101.654 130.448 101.309 130.084 101.333 129.638L101.53 125.939C101.553 125.493 101.937 125.129 102.382 125.129H118.527C118.972 125.129 119.317 125.493 119.293 125.939L119.097 129.638C119.074 130.083 118.69 130.448 118.244 130.448Z" fill="#E6E6E6"/>
<path d="M99.4922 130.448H95.9762C95.4803 130.448 95.0962 130.042 95.1224 129.546L95.309 126.03C95.3352 125.534 95.7626 125.129 96.2582 125.129H99.7742C100.27 125.129 100.654 125.535 100.628 126.03L100.441 129.546C100.415 130.042 99.9881 130.448 99.4922 130.448Z" fill="#E6E6E6"/>
<path d="M124.387 130.448H120.871C120.375 130.448 119.991 130.042 120.017 129.546L120.204 126.03C120.23 125.534 120.657 125.129 121.153 125.129H124.669C125.165 125.129 125.549 125.535 125.523 126.03L125.336 129.546C125.31 130.042 124.883 130.448 124.387 130.448Z" fill="#E6E6E6"/>
<path d="M111.929 78.3361H96.5534C94.085 78.3361 92.1556 76.3165 92.2663 73.8481L92.5191 68.1966C92.6294 65.7282 94.7395 63.7086 97.2079 63.7086H112.583C115.052 63.7086 116.981 65.7282 116.871 68.1966L116.618 73.8481C116.507 76.3165 114.397 78.3361 111.929 78.3361Z" fill="url(#paint3_linear_324_4044)"/>
<path d="M129.094 87.976H111.09C109.344 87.976 107.98 86.5481 108.058 84.8027L108.101 83.8359C108.179 82.0904 109.671 80.6625 111.417 80.6625H129.422C131.167 80.6625 132.531 82.0904 132.453 83.8359L132.41 84.8027C132.332 86.5481 130.84 87.976 129.094 87.976Z" fill="#E6E6E6"/>
<path d="M117.954 59.355H108.901C108.023 59.355 107.337 58.637 107.377 57.7592L107.398 57.273C107.438 56.3952 108.188 55.6771 109.066 55.6771H118.119C118.997 55.6771 119.683 56.3952 119.643 57.273L119.622 57.7592C119.582 58.637 118.832 59.355 117.954 59.355Z" fill="#263238"/>
<path d="M132.552 50.9268C132.72 50.9268 132.836 51.064 132.81 51.2319C132.784 51.3999 132.625 51.5371 132.457 51.5371C132.289 51.5371 132.173 51.3999 132.199 51.2319C132.225 51.064 132.384 50.9268 132.552 50.9268Z" fill="url(#paint4_linear_324_4044)"/>
<path d="M131.721 50.5652C131.889 50.5652 132.005 50.7024 131.979 50.8704L131.923 51.2324C131.897 51.4003 131.739 51.5376 131.57 51.5376C131.402 51.5376 131.286 51.4003 131.312 51.2324L131.368 50.8704C131.395 50.7024 131.553 50.5652 131.721 50.5652Z" fill="url(#paint5_linear_324_4044)"/>
<path d="M130.88 50.1945C131.048 50.1945 131.164 50.3317 131.138 50.4996L131.025 51.2323C130.999 51.4002 130.84 51.5375 130.672 51.5375C130.504 51.5375 130.388 51.4002 130.414 51.2323L130.527 50.4996C130.553 50.3317 130.712 50.1945 130.88 50.1945Z" fill="url(#paint6_linear_324_4044)"/>
<path d="M97.6054 50.4996C97.611 50.4256 97.5549 50.365 97.4809 50.365H97.3847C97.3234 50.1746 97.148 50.0381 96.9315 50.0381H94.7854C94.5023 50.0381 94.2532 50.2696 94.2323 50.5527L94.1968 51.024C94.1755 51.3071 94.3898 51.5386 94.6729 51.5386H96.8189C97.0354 51.5386 97.2314 51.4024 97.3212 51.2117H97.4177C97.4917 51.2117 97.5568 51.1511 97.5624 51.0771L97.6054 50.4996Z" fill="url(#paint7_linear_324_4044)"/>
<path d="M110.324 48.8521L110.369 49.0581C110.684 50.5104 111.963 51.5389 113.454 51.5389C114.931 51.5389 116.232 50.5294 116.603 49.0944L116.665 48.8521H110.324Z" fill="url(#paint8_linear_324_4044)"/>
<path d="M84.5045 63.3964C84.5835 64.2607 84.6878 65.2073 84.8157 66.1116C84.9489 67.0242 85.0783 67.9378 85.2522 68.8411C85.591 70.6486 86.0222 72.4303 86.6004 74.1305C86.7325 74.5633 86.9105 74.9664 87.0631 75.3868L87.5949 76.6786L88.7001 79.2917C89.4316 81.0443 90.1759 82.8017 90.8618 84.5846L89.4133 85.3382C88.3455 83.736 87.36 82.0956 86.3977 80.4328C85.919 79.5999 85.4568 78.7577 85.0038 77.9027C84.7757 77.4748 84.5573 77.0425 84.3407 76.5971C84.1384 76.1333 83.9076 75.6729 83.7326 75.2028C82.982 73.3283 82.4416 71.4112 82.0421 69.4795C81.8394 68.5138 81.6539 67.5466 81.5256 66.5712C81.3929 65.5873 81.2728 64.6399 81.2148 63.6028L84.5045 63.3964Z" fill="#FF8B7B"/>
<path d="M83.4581 59.6732C84.7866 60.0113 85.716 65.4788 85.716 65.4788L80.6348 68.9341C80.6348 68.9341 78.5445 62.4527 79.5666 60.9923C80.6311 59.4712 81.5193 59.1795 83.4581 59.6732Z" fill="#263238"/>
<path opacity="0.2" d="M83.3301 60.8951L84.3507 66.406L82.293 67.8014L83.3301 60.8951Z" fill="black"/>
<path d="M90.5914 83.9399L93.2943 86.1099L90.5282 87.0221C90.5282 87.0221 89.0037 85.6218 89.3366 84.324L90.5914 83.9399Z" fill="#FF8B7B"/>
<path d="M94.4923 87.2832L91.749 88.1532L90.5312 87.0214L93.2977 86.1093L94.4923 87.2832Z" fill="#FF8B7B"/>
<path d="M109.64 98.7634L92.5979 94.4747C90.7903 94.0199 89.7495 92.1851 90.2854 90.3977L90.735 88.8988C91.2709 87.1114 93.188 86.0212 94.9959 86.4764L112.038 90.765C113.845 91.2198 114.886 93.0546 114.35 94.842L113.901 96.341C113.365 98.1283 111.447 99.2182 109.64 98.7634Z" fill="url(#paint9_linear_324_4044)"/>
<path d="M124.52 73.4768C127.82 73.4768 130.496 70.801 130.496 67.5002C130.496 64.1995 127.82 61.5237 124.52 61.5237C121.219 61.5237 118.543 64.1995 118.543 67.5002C118.543 70.801 121.219 73.4768 124.52 73.4768Z" fill="#FFAFB5"/>
<path d="M122.127 69.8777C122.189 69.9403 122.263 69.99 122.344 70.024C122.425 70.0579 122.512 70.0754 122.6 70.0754C122.688 70.0754 122.775 70.0579 122.857 70.024C122.938 69.99 123.011 69.9403 123.073 69.8777L124.505 68.4459L125.937 69.8777C126.062 70.0031 126.232 70.0735 126.409 70.0735C126.587 70.0735 126.757 70.0031 126.882 69.8777C127.008 69.7523 127.078 69.5822 127.078 69.4048C127.078 69.2275 127.008 69.0574 126.882 68.932L125.45 67.5003L126.882 66.0686C126.944 66.0065 126.993 65.9328 127.027 65.8517C127.061 65.7705 127.078 65.6836 127.078 65.5958C127.078 65.508 127.061 65.421 127.027 65.3399C126.993 65.2588 126.944 65.1851 126.882 65.123C126.82 65.0609 126.746 65.0116 126.665 64.978C126.584 64.9444 126.497 64.9271 126.409 64.9271C126.322 64.9271 126.235 64.9444 126.153 64.978C126.072 65.0116 125.999 65.0609 125.937 65.123L124.505 66.5547L123.073 65.123C123.011 65.0609 122.937 65.0116 122.856 64.978C122.775 64.9444 122.688 64.9271 122.6 64.9271C122.512 64.9271 122.426 64.9444 122.344 64.978C122.263 65.0116 122.19 65.0609 122.127 65.123C122.065 65.1851 122.016 65.2588 121.983 65.3399C121.949 65.421 121.932 65.508 121.932 65.5958C121.932 65.6836 121.949 65.7705 121.983 65.8517C122.016 65.9328 122.065 66.0065 122.127 66.0686L123.559 67.5003L122.127 68.932C122.065 68.9938 122.015 69.0674 121.981 69.1486C121.947 69.2298 121.93 69.3169 121.93 69.4048C121.93 69.4928 121.947 69.5799 121.981 69.6611C122.015 69.7423 122.065 69.8159 122.127 69.8777Z" fill="#FFF7ED"/>
<path d="M76.2734 151.696H79.4966L79.712 144.231H76.4885L76.2734 151.696Z" fill="#FF8B7B"/>
<path d="M48.9414 137.472L51.6121 139.277L56.6503 133.672L53.9792 131.867L48.9414 137.472Z" fill="#FF8B7B"/>
<path d="M51.9709 139.126L49.5062 136.473C49.4165 136.376 49.2766 136.36 49.17 136.434L46.7898 138.082C46.543 138.253 46.5108 138.631 46.7214 138.851C47.5966 139.761 48.0648 140.156 49.1487 141.323C49.8155 142.041 51.2311 144.246 52.1519 145.237C53.0525 146.207 54.1019 145.371 53.8072 144.875C52.4862 142.655 52.2476 140.766 52.1923 139.656C52.1826 139.456 52.1021 139.268 51.9709 139.126Z" fill="#263238"/>
<path d="M79.6084 151.322H75.987C75.8554 151.322 75.7484 151.414 75.7297 151.542L75.3172 154.408C75.2745 154.705 75.53 154.986 75.834 154.981C77.0967 154.959 77.7052 154.885 79.2977 154.885C80.2775 154.885 82.3039 154.987 83.657 154.987C84.9802 154.987 85.0823 153.649 84.5187 153.528C81.9923 152.984 80.9982 152.235 80.1474 151.521C79.9937 151.392 79.8011 151.322 79.6084 151.322Z" fill="#263238"/>
<g opacity="0.2">
<path d="M79.7142 144.233L79.6039 148.081H76.3789L76.4892 144.233H79.7142Z" fill="black"/>
<path d="M53.9771 131.868L56.6493 133.674L53.8776 136.755L51.3789 134.757L53.9771 131.868Z" fill="black"/>
</g>
<path d="M83.457 59.6739C83.457 59.6739 84.9926 60.2147 81.9164 79.1294C76.7212 79.1294 71.3524 79.1294 68.8246 79.1294C69.0441 73.801 69.0505 70.5155 66.5039 59.5804C66.5039 59.5804 69.2468 58.9839 72.0634 58.8482C74.2667 58.7419 76.0716 58.6716 78.0082 58.8485C80.5614 59.0815 83.457 59.6739 83.457 59.6739Z" fill="#263238"/>
<path d="M77.3588 47.4579C77.4377 44.2846 72.4534 44.4222 71.1815 44.8788C68.6353 45.7929 64.5744 53.7527 72.1632 56.0124C75.794 57.0937 79.638 57.1475 82.5937 54.2494C84.5086 52.3716 84.1406 50.6313 82.6509 50.8939C81.8625 51.0326 83.7879 45.4107 80.3706 45.9623C77.6143 46.407 77.3588 47.4579 77.3588 47.4579Z" fill="#263238"/>
<path opacity="0.2" d="M67.5833 63.9092C68.7689 64.2046 69.8647 65.4987 69.7338 67.8811C69.6552 69.3097 69.0007 70.3906 68.6417 70.8805C68.4323 69.0479 68.0807 66.9199 67.5234 64.1972L67.5833 63.9092Z" fill="black"/>
<path d="M72.6555 52.1534C73.0306 54.0665 73.4046 57.5708 72.0664 58.8473C72.0664 58.8473 73.402 60.037 76.8895 61.8756C79.5415 59.7561 78.0111 58.8473 78.0111 58.8473C75.8782 58.3379 75.9332 56.7555 76.3046 55.2692L72.6555 52.1534Z" fill="#FF8B7B"/>
<path opacity="0.2" d="M74.1486 53.4244L76.3085 55.2675C76.2191 55.6194 76.1499 55.9759 76.1252 56.3226C75.3103 56.2048 74.0289 55.5106 73.8539 54.6246C73.7709 54.205 74.0794 53.6227 74.1486 53.4244Z" fill="black"/>
<path d="M71.9019 47.2833C71.4416 50.4492 71.179 51.7795 72.4226 53.7135C74.2937 56.6224 78.2828 56.4956 79.68 53.5313C80.9378 50.8628 81.4797 46.134 78.6796 44.2513C75.9209 42.3966 72.3627 44.1174 71.9019 47.2833Z" fill="#FF8B7B"/>
<path d="M72.2704 49.6561C73.8356 50.3432 74.6598 46.9566 74.1314 46.1173C75.8559 46.8029 82.5782 47.1874 84.0256 45.985C85.0383 45.1435 82.7008 45.1902 80.4258 43.741C77.4622 41.8534 73.1848 41.4087 71.7718 44.6501C70.7325 45.2527 68.3639 48.6157 72.2704 49.6561Z" fill="#263238"/>
<path d="M70.6646 45.3469C68.9506 42.8714 72.3525 40.1835 78.6065 41.3264C82.4666 42.0318 82.406 41.3474 83.332 41.0564C84.258 40.7654 83.6462 44.8379 79.0531 44.9419C75.2372 45.0279 71.5447 46.6181 70.6646 45.3469Z" fill="#263238"/>
<path d="M66.0268 49.5588C65.9924 49.5588 65.9576 49.5494 65.9262 49.5292C65.8391 49.4739 65.8137 49.3579 65.8694 49.2712L68.3023 45.459C68.3576 45.3722 68.4735 45.3464 68.5603 45.4021C68.6475 45.4575 68.6729 45.573 68.6172 45.6602L66.1843 49.4724C66.1491 49.5285 66.0885 49.5588 66.0268 49.5588Z" fill="url(#paint10_linear_324_4044)"/>
<path d="M70.81 44.8582C70.0205 43.4868 68.192 42.5102 67.0285 43.6532C65.5811 45.0748 66.9245 47.523 69.2725 47.4583C71.6201 47.3932 70.81 44.8582 70.81 44.8582Z" fill="#263238"/>
<path d="M69.0503 44.8227C69.0159 44.8227 68.9811 44.8133 68.9497 44.7931C68.8625 44.7378 68.8371 44.6219 68.8928 44.5351L71.0755 41.1149C71.1308 41.0281 71.2464 41.0023 71.3335 41.058C71.4207 41.1134 71.4461 41.2289 71.3904 41.3161L69.2074 44.7363C69.1722 44.7924 69.112 44.8227 69.0503 44.8227Z" fill="url(#paint11_linear_324_4044)"/>
<path d="M81.9191 79.1292C81.9191 79.1292 84.4616 103.961 84.2507 113.791C84.0308 124.016 80.284 147.336 80.284 147.336H75.9251C75.9251 147.336 76.6147 124.613 76.2295 114.571C75.8095 103.624 72.332 79.1292 72.332 79.1292H81.9191Z" fill="url(#paint12_linear_324_4044)"/>
<path d="M75.5504 147.492H80.6648L81.0399 145.86L75.3125 145.661L75.5504 147.492Z" fill="#263238"/>
<path opacity="0.2" d="M76.2655 85.308C79.4811 91.7767 76.911 103.577 75.774 107.967C75.191 101.374 74.2077 93.3138 73.4414 87.3949C73.9287 84.0461 74.7826 82.3257 76.2655 85.308Z" fill="black"/>
<path d="M78.4534 79.1292C78.4534 79.1292 75.4876 104.944 73.2481 113.232C70.589 123.072 55.1072 136.381 55.1072 136.381L51.4648 133.92C51.4648 133.92 62.8786 120.164 64.7261 113.9C68.0884 102.502 65.3511 86.3488 68.8184 79.1292H78.4534Z" fill="url(#paint13_linear_324_4044)"/>
<path d="M51.0391 133.444L55.1344 137.045L56.7029 136.141L52.0758 131.688L51.0391 133.444Z" fill="#263238"/>
<path d="M76.7143 49.1542C76.6612 49.4085 76.7528 49.643 76.9193 49.6778C77.0857 49.7126 77.2637 49.5346 77.3168 49.2799C77.3699 49.0256 77.2783 48.7911 77.1119 48.7563C76.9454 48.7215 76.7674 48.8999 76.7143 49.1542Z" fill="#263238"/>
<path d="M79.5932 49.7555C79.5401 50.0102 79.6317 50.2444 79.7982 50.2791C79.9646 50.3139 80.1426 50.1355 80.1957 49.8812C80.2488 49.6265 80.1572 49.392 79.9908 49.3576C79.8243 49.3228 79.6463 49.5012 79.5932 49.7555Z" fill="#263238"/>
<path d="M79.918 49.3559L80.5661 49.3073C80.5661 49.3073 80.1525 49.719 79.918 49.3559Z" fill="#263238"/>
<path d="M78.6091 50.0284C78.6091 50.0284 78.8122 51.2144 79.1772 51.8423C78.7756 52.0858 78.2344 51.8233 78.2344 51.8233L78.6091 50.0284Z" fill="#FF5652"/>
<path d="M76.6439 52.5303C76.7573 52.5729 76.8803 52.6088 77.0131 52.6365C77.0542 52.6451 77.095 52.6185 77.1036 52.5774C77.1122 52.5359 77.0864 52.4936 77.0445 52.4869C75.9274 52.2516 75.5687 51.3645 75.5653 51.3555C75.55 51.3163 75.5059 51.2965 75.4666 51.3122C75.4273 51.3275 75.4079 51.372 75.4232 51.4109C75.4367 51.4468 75.7362 52.1899 76.6439 52.5303Z" fill="#263238"/>
<path d="M70.4609 49.5304C70.5121 50.1917 70.8637 50.7676 71.2837 51.1154C71.915 51.6387 72.5632 51.1543 72.6664 50.3843C72.7591 49.6912 72.5426 48.5838 71.7751 48.3594C71.0185 48.138 70.4022 48.7742 70.4609 49.5304Z" fill="#FF8B7B"/>
<path d="M76.085 47.6413C76.1325 47.6846 76.2043 47.6947 76.2634 47.6611C76.8771 47.3114 77.7037 47.6921 77.7119 47.6959C77.7882 47.7318 77.8791 47.6989 77.915 47.6226C77.9509 47.5466 77.9187 47.4558 77.8417 47.4195C77.802 47.4008 76.8622 46.9688 76.1123 47.3959C76.039 47.4378 76.0136 47.5309 76.0551 47.6042C76.0633 47.6184 76.0734 47.6308 76.085 47.6413Z" fill="#263238"/>
<path d="M80.9951 48.0865C81.0437 48.1048 81.1005 48.0977 81.1443 48.0629C81.2101 48.0102 81.2206 47.9141 81.1679 47.8483C80.6398 47.1893 79.9366 47.2502 79.9075 47.2532C79.8233 47.2614 79.7624 47.3362 79.7702 47.42C79.7784 47.5038 79.8529 47.5644 79.937 47.5573C79.9651 47.5547 80.51 47.5161 80.9292 48.0394C80.9472 48.0614 80.97 48.0775 80.9951 48.0865Z" fill="#263238"/>
<path d="M52.812 140.651C52.8247 140.653 52.8374 140.655 52.8505 140.656C52.996 140.668 53.125 140.606 53.2339 140.473C53.3158 140.372 53.3083 140.277 53.2877 140.215C53.1568 139.825 52.0277 139.538 51.8994 139.506C51.8676 139.498 51.8388 139.51 51.8201 139.534C51.8018 139.559 51.7996 139.591 51.8145 139.618C52.0195 139.979 52.4163 140.583 52.812 140.651ZM52.0416 139.702C52.4896 139.83 53.0738 140.059 53.1426 140.264C53.1516 140.29 53.1561 140.326 53.1153 140.376C53.0394 140.47 52.9567 140.512 52.8632 140.504C52.6407 140.489 52.3415 140.189 52.0416 139.702Z" fill="url(#paint14_linear_324_4044)"/>
<path d="M51.9745 139.68C52.3691 139.748 53.1253 139.685 53.3205 139.415C53.362 139.357 53.4148 139.237 53.3014 139.081C53.2296 138.983 53.1301 138.927 53.0067 138.914C52.5411 138.868 51.8578 139.496 51.829 139.523C51.8092 139.542 51.8006 139.57 51.8066 139.596C51.8125 139.623 51.832 139.644 51.8578 139.652C51.8915 139.663 51.9307 139.672 51.9745 139.68ZM53.0153 139.069C53.0838 139.081 53.1373 139.115 53.1784 139.171C53.236 139.251 53.2184 139.295 53.1971 139.325C53.0651 139.508 52.4334 139.596 52.0455 139.538C52.2842 139.34 52.715 139.039 52.9925 139.066C53 139.067 53.0078 139.068 53.0153 139.069Z" fill="url(#paint15_linear_324_4044)"/>
<path d="M80.8178 151.886C81.1383 151.886 81.4342 151.837 81.5998 151.688C81.7049 151.593 81.7513 151.468 81.7378 151.316C81.7296 151.225 81.6847 151.155 81.6084 151.113C81.2127 150.896 79.9284 151.553 79.7833 151.629C79.7545 151.644 79.7384 151.675 79.7429 151.707C79.7474 151.739 79.7717 151.765 79.8035 151.772C80.0773 151.825 80.4629 151.886 80.8178 151.886ZM81.3926 151.219C81.4517 151.219 81.5004 151.228 81.5351 151.247C81.5666 151.264 81.5823 151.289 81.5856 151.329C81.595 151.433 81.5662 151.512 81.4981 151.574C81.3025 151.75 80.7722 151.781 80.0575 151.662C80.4999 151.45 81.0875 151.219 81.3926 151.219Z" fill="url(#paint16_linear_324_4044)"/>
<path d="M79.8187 151.773C79.8296 151.773 79.8401 151.77 79.8502 151.766C80.2343 151.592 80.9942 150.897 80.9348 150.532C80.9206 150.445 80.8592 150.338 80.6479 150.316C80.4927 150.3 80.3491 150.345 80.2249 150.448C79.8199 150.786 79.7454 151.654 79.7424 151.69C79.7402 151.717 79.7525 151.743 79.7746 151.759C79.7877 151.768 79.803 151.773 79.8187 151.773ZM80.5866 150.466C80.6015 150.466 80.6169 150.467 80.6326 150.468C80.7721 150.482 80.781 150.538 80.784 150.556C80.8199 150.776 80.3038 151.322 79.9122 151.56C79.95 151.307 80.057 150.787 80.3229 150.565C80.4033 150.498 80.4897 150.466 80.5866 150.466Z" fill="url(#paint17_linear_324_4044)"/>
<path d="M77.0273 48.7544L77.6755 48.7058C77.6755 48.7058 77.2618 49.118 77.0273 48.7544Z" fill="#263238"/>
<path d="M68.6188 78.3606L68.284 79.5323C68.2384 79.6232 68.3458 79.7159 68.4972 79.7159H81.9713C82.0895 79.7159 82.1871 79.658 82.1946 79.5839L82.3128 78.4122C82.321 78.331 82.2185 78.2622 82.0895 78.2622H68.8319C68.7347 78.2622 68.6483 78.3022 68.6188 78.3606Z" fill="white"/>
<path d="M70.4476 79.842H70.0926C70.022 79.842 69.9681 79.8053 69.973 79.7608L70.1394 78.2383C70.1443 78.1938 70.206 78.1571 70.2767 78.1571H70.6316C70.7023 78.1571 70.7561 78.1934 70.7513 78.2383L70.5848 79.7608C70.5803 79.8053 70.5183 79.842 70.4476 79.842Z" fill="url(#paint18_linear_324_4044)"/>
<path d="M80.9944 79.842H80.6395C80.5688 79.842 80.515 79.8053 80.5198 79.7608L80.6863 78.2383C80.6911 78.1938 80.7528 78.1571 80.8235 78.1571H81.1784C81.2491 78.1571 81.303 78.1934 81.2981 78.2383L81.1317 79.7608C81.1268 79.8053 81.0651 79.842 80.9944 79.842Z" fill="url(#paint19_linear_324_4044)"/>
<path d="M75.7483 79.842H75.3934C75.3227 79.842 75.2689 79.8053 75.2737 79.7608L75.4402 78.2383C75.445 78.1938 75.5067 78.1571 75.5774 78.1571H75.9324C76.003 78.1571 76.0569 78.1934 76.052 78.2383L75.8856 79.7608C75.8807 79.8053 75.819 79.842 75.7483 79.842Z" fill="url(#paint20_linear_324_4044)"/>
<path d="M81.54 76.1088H84.7426C84.9487 76.1088 85.1274 75.9667 85.1734 75.7658L86.5658 69.7209C86.6298 69.4437 86.4192 69.1793 86.135 69.1793H82.9324C82.7264 69.1793 82.5476 69.3214 82.5016 69.5223L81.1092 75.5676C81.0452 75.8444 81.2554 76.1088 81.54 76.1088Z" fill="url(#paint21_linear_324_4044)"/>
<path d="M79.5809 73.2398L82.7602 71.819L81.854 74.9692C81.854 74.9692 79.8356 75.4273 78.957 74.4153L79.5809 73.2398Z" fill="#FF8B7B"/>
<path d="M68.243 63.9149C68.1072 64.9128 67.9595 65.957 67.8533 66.9787C67.7291 68.0031 67.6285 69.0279 67.5739 70.0366C67.5197 71.0389 67.4864 72.0539 67.5799 72.9283C67.6019 73.143 67.6326 73.3461 67.6704 73.5099C67.7081 73.6857 67.7508 73.7736 67.7564 73.8053C67.7979 73.8985 67.9714 74.0578 68.2983 74.1891C68.617 74.3218 69.0388 74.4157 69.4854 74.4692C69.9338 74.5253 70.4125 74.5399 70.8999 74.5421C71.8779 74.5418 72.8903 74.4441 73.9076 74.3252C74.9256 74.2007 75.9481 74.0264 76.9695 73.8274C77.9909 73.6427 79.022 73.4093 80.0225 73.1781L80.5386 74.7269C78.5149 75.5482 76.468 76.1937 74.3238 76.6837C73.2531 76.9312 72.1591 77.1156 71.018 77.2125C70.4462 77.26 69.8628 77.2753 69.2539 77.2432C68.6458 77.208 68.0115 77.1306 67.3293 76.9095C66.9889 76.7981 66.6363 76.644 66.2847 76.4174C65.935 76.1922 65.5864 75.884 65.3108 75.4966C65.0254 75.0855 64.8639 74.6775 64.761 74.3424C64.6537 73.9965 64.586 73.6774 64.5318 73.3674C64.3384 72.1388 64.3201 71.0232 64.3444 69.9086C64.3736 68.7982 64.4502 67.7088 64.5508 66.6245C64.672 65.5381 64.7958 64.4785 64.9903 63.3816L68.243 63.9149Z" fill="#FF8B7B"/>
<path d="M66.5112 59.58C65.1995 59.9787 63.7305 64.733 63.7305 64.733L69.091 67.008C69.091 67.008 70.5687 64.3631 70.0174 62.6678C69.4437 60.9025 68.0079 59.1252 66.5112 59.58Z" fill="#263238"/>
<path d="M85.4034 72.4713L84.502 75.0676L81.8672 74.9677L82.7734 71.8171L85.4034 72.4713Z" fill="#FF8B7B"/>
<defs>
<linearGradient id="paint0_linear_324_4044" x1="114.155" y1="46.7621" x2="114.155" y2="47.1361" gradientUnits="userSpaceOnUse">
<stop stop-color="#FFEDAB"/>
<stop offset="1" stop-color="#FCC604"/>
</linearGradient>
<linearGradient id="paint1_linear_324_4044" x1="105.884" y1="46.7621" x2="105.884" y2="47.1361" gradientUnits="userSpaceOnUse">
<stop stop-color="#FFEDAB"/>
<stop offset="1" stop-color="#FCC604"/>
</linearGradient>
<linearGradient id="paint2_linear_324_4044" x1="111.872" y1="48.0699" x2="111.872" y2="137.174" gradientUnits="userSpaceOnUse">
<stop stop-color="#FFEDAB"/>
<stop offset="1" stop-color="#FCC604"/>
</linearGradient>
<linearGradient id="paint3_linear_324_4044" x1="104.568" y1="63.7086" x2="104.568" y2="78.3361" gradientUnits="userSpaceOnUse">
<stop stop-color="#FFEDAB"/>
<stop offset="1" stop-color="#FCC604"/>
</linearGradient>
<linearGradient id="paint4_linear_324_4044" x1="132.504" y1="50.9268" x2="132.504" y2="51.5371" gradientUnits="userSpaceOnUse">
<stop stop-color="#FFEDAB"/>
<stop offset="1" stop-color="#FCC604"/>
</linearGradient>
<linearGradient id="paint5_linear_324_4044" x1="131.646" y1="50.5652" x2="131.646" y2="51.5376" gradientUnits="userSpaceOnUse">
<stop stop-color="#FFEDAB"/>
<stop offset="1" stop-color="#FCC604"/>
</linearGradient>
<linearGradient id="paint6_linear_324_4044" x1="130.776" y1="50.1945" x2="130.776" y2="51.5375" gradientUnits="userSpaceOnUse">
<stop stop-color="#FFEDAB"/>
<stop offset="1" stop-color="#FCC604"/>
</linearGradient>
<linearGradient id="paint7_linear_324_4044" x1="95.9006" y1="50.0381" x2="95.9006" y2="51.5386" gradientUnits="userSpaceOnUse">
<stop stop-color="#FFEDAB"/>
<stop offset="1" stop-color="#FCC604"/>
</linearGradient>
<linearGradient id="paint8_linear_324_4044" x1="113.495" y1="48.8521" x2="113.495" y2="51.5389" gradientUnits="userSpaceOnUse">
<stop stop-color="#FFEDAB"/>
<stop offset="1" stop-color="#FCC604"/>
</linearGradient>
<linearGradient id="paint9_linear_324_4044" x1="102.318" y1="86.3729" x2="102.318" y2="98.8667" gradientUnits="userSpaceOnUse">
<stop stop-color="#FFEDAB"/>
<stop offset="1" stop-color="#FCC604"/>
</linearGradient>
<linearGradient id="paint10_linear_324_4044" x1="67.2433" y1="45.3727" x2="67.2433" y2="49.5588" gradientUnits="userSpaceOnUse">
<stop stop-color="#FFEDAB"/>
<stop offset="1" stop-color="#FCC604"/>
</linearGradient>
<linearGradient id="paint11_linear_324_4044" x1="70.1416" y1="41.0286" x2="70.1416" y2="44.8227" gradientUnits="userSpaceOnUse">
<stop stop-color="#FFEDAB"/>
<stop offset="1" stop-color="#FCC604"/>
</linearGradient>
<linearGradient id="paint12_linear_324_4044" x1="78.2976" y1="79.1292" x2="78.2976" y2="147.336" gradientUnits="userSpaceOnUse">
<stop stop-color="#FFEDAB"/>
<stop offset="1" stop-color="#FCC604"/>
</linearGradient>
<linearGradient id="paint13_linear_324_4044" x1="64.9591" y1="79.1292" x2="64.9591" y2="136.381" gradientUnits="userSpaceOnUse">
<stop stop-color="#FFEDAB"/>
<stop offset="1" stop-color="#FCC604"/>
</linearGradient>
<linearGradient id="paint14_linear_324_4044" x1="52.553" y1="139.503" x2="52.553" y2="140.657" gradientUnits="userSpaceOnUse">
<stop stop-color="#FFEDAB"/>
<stop offset="1" stop-color="#FCC604"/>
</linearGradient>
<linearGradient id="paint15_linear_324_4044" x1="52.5872" y1="138.911" x2="52.5872" y2="139.705" gradientUnits="userSpaceOnUse">
<stop stop-color="#FFEDAB"/>
<stop offset="1" stop-color="#FCC604"/>
</linearGradient>
<linearGradient id="paint16_linear_324_4044" x1="80.7412" y1="151.069" x2="80.7412" y2="151.886" gradientUnits="userSpaceOnUse">
<stop stop-color="#FFEDAB"/>
<stop offset="1" stop-color="#FCC604"/>
</linearGradient>
<linearGradient id="paint17_linear_324_4044" x1="80.3401" y1="150.313" x2="80.3401" y2="151.773" gradientUnits="userSpaceOnUse">
<stop stop-color="#FFEDAB"/>
<stop offset="1" stop-color="#FCC604"/>
</linearGradient>
<linearGradient id="paint18_linear_324_4044" x1="70.3621" y1="78.1571" x2="70.3621" y2="79.842" gradientUnits="userSpaceOnUse">
<stop stop-color="#FFEDAB"/>
<stop offset="1" stop-color="#FCC604"/>
</linearGradient>
<linearGradient id="paint19_linear_324_4044" x1="80.909" y1="78.1571" x2="80.909" y2="79.842" gradientUnits="userSpaceOnUse">
<stop stop-color="#FFEDAB"/>
<stop offset="1" stop-color="#FCC604"/>
</linearGradient>
<linearGradient id="paint20_linear_324_4044" x1="75.6629" y1="78.1571" x2="75.6629" y2="79.842" gradientUnits="userSpaceOnUse">
<stop stop-color="#FFEDAB"/>
<stop offset="1" stop-color="#FCC604"/>
</linearGradient>
<linearGradient id="paint21_linear_324_4044" x1="83.8375" y1="69.1793" x2="83.8375" y2="76.1088" gradientUnits="userSpaceOnUse">
<stop stop-color="#FFEDAB"/>
<stop offset="1" stop-color="#FCC604"/>
</linearGradient>
</defs>
</svg>
