<svg width="52" height="52" viewBox="0 0 52 52" fill="none" xmlns="http://www.w3.org/2000/svg">
<path fill-rule="evenodd" clip-rule="evenodd" d="M29.9415 44.4455C28.6456 44.719 27.3247 44.8566 26.0003 44.8561C15.5364 44.8561 7.04199 36.3617 7.04199 25.8977C7.04199 25.4668 6.87079 25.0534 6.56604 24.7487C6.26129 24.4439 5.84797 24.2727 5.41699 24.2727C4.98602 24.2727 4.57269 24.4439 4.26794 24.7487C3.9632 25.0534 3.79199 25.4668 3.79199 25.8977C3.79199 38.1546 13.7435 48.1061 26.0003 48.1061C27.582 48.1061 29.1257 47.9403 30.6142 47.6251C31.0345 47.5345 31.4017 47.281 31.6355 46.9203C31.8692 46.5595 31.9505 46.1208 31.8615 45.7002C31.7726 45.2796 31.5205 44.9114 31.1607 44.6763C30.8008 44.4411 30.3624 44.3581 29.9415 44.4455ZM28.6707 7.12574C37.8715 8.42466 44.9587 16.3406 44.9587 25.8977C44.9587 32.6577 41.4118 38.5966 36.0807 41.9538C35.727 42.1883 35.4791 42.5518 35.3899 42.9667C35.3007 43.3816 35.3773 43.815 35.6035 44.1741C35.8296 44.5332 36.1872 44.7896 36.5999 44.8885C37.0126 44.9874 37.4476 44.921 37.8119 44.7033C44.0573 40.7719 48.2087 33.8158 48.2087 25.8977C48.2087 14.7015 39.9038 5.42924 29.1247 3.90824C28.7023 3.85718 28.2768 3.97376 27.9395 4.23295C27.6022 4.49213 27.38 4.87326 27.3205 5.29449C27.2611 5.71571 27.3692 6.14344 27.6217 6.48584C27.8741 6.82823 28.2508 7.05797 28.6707 7.12574ZM8.40699 18.8257C9.41824 16.3221 10.9506 14.0623 12.9022 12.1964C14.8539 10.3304 17.1802 8.90107 19.7267 8.00324C19.9281 7.9326 20.1136 7.823 20.2726 7.68068C20.4316 7.53835 20.5611 7.36611 20.6535 7.17376C20.746 6.98142 20.7996 6.77276 20.8114 6.55968C20.8232 6.3466 20.793 6.13328 20.7223 5.93191C20.6517 5.73053 20.5421 5.54504 20.3998 5.38602C20.2574 5.227 20.0852 5.09758 19.8929 5.00513C19.7005 4.91268 19.4918 4.85902 19.2788 4.84721C19.0657 4.83541 18.8524 4.86569 18.651 4.93632C15.6684 5.98781 12.9437 7.66179 10.6577 9.84711C8.37166 12.0324 6.57673 14.6791 5.39208 17.6113C5.24779 18.0076 5.26314 18.4445 5.43487 18.8297C5.6066 19.2149 5.92128 19.5183 6.31249 19.6759C6.70371 19.8335 7.14084 19.8329 7.53163 19.6743C7.92242 19.5157 8.23629 19.2114 8.40699 18.8257Z" fill="white"/>
<path d="M6 46.5L44.5 8" stroke="white" stroke-width="3" stroke-linecap="round"/>
</svg>
