<svg width="64" height="65" viewBox="0 0 64 65" fill="none" xmlns="http://www.w3.org/2000/svg">
<path d="M30.5117 33.7247C39.5538 33.7247 46.8838 26.3946 46.8838 17.3526C46.8838 8.3105 39.5538 0.980469 30.5117 0.980469C21.4697 0.980469 14.1396 8.3105 14.1396 17.3526C14.1396 26.3946 21.4697 33.7247 30.5117 33.7247Z" fill="#FAE390"/>
<path fill-rule="evenodd" clip-rule="evenodd" d="M56.2664 38.3195L37.3224 57.2635C36.904 57.6819 36.6689 58.2494 36.6689 58.8412C36.6689 59.4329 36.904 60.0004 37.3224 60.4189C37.7409 60.8373 38.3084 61.0724 38.9001 61.0724C39.4919 61.0724 40.0594 60.8373 40.4778 60.4189L59.4218 41.4749C59.8402 41.0564 60.0753 40.4889 60.0753 39.8972C60.0753 39.3054 59.8402 38.7379 59.4218 38.3195C59.0034 37.9011 58.4359 37.666 57.8441 37.666C57.2524 37.666 56.6849 37.9011 56.2664 38.3195Z" fill="#FAE390"/>
<path fill-rule="evenodd" clip-rule="evenodd" d="M48.372 33.7422C39.7454 33.7422 32.7441 40.7435 32.7441 49.3701C32.7441 57.9967 39.7454 64.998 48.372 64.998C56.9987 64.998 64 57.9967 64 49.3701C64 40.7435 56.9987 33.7422 48.372 33.7422ZM48.372 38.2073C54.5339 38.2073 59.5348 43.2082 59.5348 49.3701C59.5348 55.532 54.5339 60.5329 48.372 60.5329C42.2102 60.5329 37.2093 55.532 37.2093 49.3701C37.2093 43.2082 42.2102 38.2073 48.372 38.2073Z" fill="#FAE390"/>
<path fill-rule="evenodd" clip-rule="evenodd" d="M34.7535 62.0399C31.5443 58.6024 29.7619 54.0735 29.7675 49.3708C29.7675 44.361 31.7529 39.8095 34.9797 36.4637C33.5211 36.3505 32.0298 36.291 30.5116 36.291C20.6229 36.291 11.8683 38.7647 6.43275 42.4707C2.28615 45.2986 7.90825e-06 48.8916 7.90825e-06 52.6631V56.9794C-0.00116853 57.6443 0.128921 58.3028 0.382817 58.9173C0.636712 59.5318 1.00942 60.0902 1.47956 60.5603C1.9497 61.0304 2.50803 61.4031 3.12253 61.657C3.73702 61.9109 4.39559 62.041 5.06047 62.0399H34.7535Z" fill="#FAE390"/>
</svg>
