<svg width="16" height="16" viewBox="0 0 16 16" fill="none" xmlns="http://www.w3.org/2000/svg">
<path d="M3.66635 4.66669H10.9997C11.0435 4.66672 11.0868 4.65811 11.1273 4.64137C11.1678 4.62463 11.2045 4.60008 11.2355 4.56912C11.2664 4.53816 11.291 4.5014 11.3077 4.46094C11.3245 4.42049 11.3331 4.37713 11.333 4.33334C11.3331 4.28956 11.3245 4.2462 11.3077 4.20574C11.291 4.16529 11.2664 4.12853 11.2355 4.09757C11.2045 4.06661 11.1678 4.04206 11.1273 4.02532C11.0868 4.00857 11.0435 3.99997 10.9997 4H3.66635C3.62257 3.99997 3.57921 4.00857 3.53875 4.02532C3.4983 4.04206 3.46154 4.06661 3.43058 4.09757C3.39962 4.12853 3.37507 4.16529 3.35832 4.20574C3.34158 4.2462 3.33298 4.28956 3.33301 4.33334C3.33299 4.37712 3.3416 4.42048 3.35834 4.46093C3.37509 4.50139 3.39964 4.53814 3.4306 4.5691C3.46155 4.60006 3.49831 4.62461 3.53876 4.64135C3.57921 4.6581 3.62257 4.66671 3.66635 4.66669ZM7.66635 8.00003H3.66635C3.62257 8 3.57921 8.00861 3.53875 8.02535C3.4983 8.04209 3.46154 8.06664 3.43058 8.0976C3.39962 8.12856 3.37507 8.16532 3.35832 8.20578C3.34158 8.24623 3.33298 8.28959 3.33301 8.33337C3.33298 8.37716 3.34158 8.42052 3.35832 8.46097C3.37507 8.50143 3.39962 8.53819 3.43058 8.56915C3.46154 8.60011 3.4983 8.62466 3.53875 8.6414C3.57921 8.65814 3.62257 8.66675 3.66635 8.66672H7.66635C7.71013 8.66675 7.75349 8.65814 7.79395 8.6414C7.83441 8.62466 7.87117 8.60011 7.90213 8.56915C7.93308 8.53819 7.95764 8.50143 7.97438 8.46097C7.99112 8.42052 7.99972 8.37716 7.9997 8.33337C7.99972 8.28959 7.99112 8.24623 7.97438 8.20578C7.95764 8.16532 7.93308 8.12856 7.90213 8.0976C7.87117 8.06664 7.83441 8.04209 7.79395 8.02535C7.75349 8.00861 7.71013 8 7.66635 8.00003Z" fill="black"/>
<path d="M14.724 1.99936C14.7047 1.99936 14.6859 2.0042 14.6667 2.00511V1.99936C14.6667 1.26402 14.0684 0.666016 13.3333 0.666016H1.33334C0.598312 0.666016 0 1.26402 0 1.99936V14.9994C1.37956e-05 15.0653 0.0195631 15.1297 0.0561783 15.1845C0.0927935 15.2393 0.144832 15.282 0.205719 15.3073C0.24675 15.3245 0.290344 15.3327 0.333313 15.3327C0.419906 15.3327 0.505188 15.2989 0.569 15.235L3.80469 11.9994H13.3333C14.0684 11.9994 14.6667 11.4014 14.6667 10.666V5.1372L15.6263 4.17773V4.17742C15.8639 3.9398 16 3.61102 16 3.27539C16 2.57164 15.4277 1.99936 14.724 1.99936ZM14 10.666C14 11.0335 13.7012 11.3327 13.3333 11.3327H3.66666C3.62288 11.3327 3.57953 11.3413 3.53909 11.358C3.49865 11.3748 3.46191 11.3994 3.43097 11.4303L0.666656 14.1947V1.99936C0.666656 1.63186 0.9655 1.3327 1.33331 1.3327H13.3333C13.7012 1.3327 14 1.63186 14 1.99936V2.22705C13.9367 2.27055 13.8762 2.31839 13.8216 2.37305L10.1947 5.99936H3.66666C3.62287 5.99933 3.57951 6.00793 3.53906 6.02468C3.4986 6.04142 3.46184 6.06597 3.43088 6.09693C3.39992 6.12789 3.37537 6.16465 3.35863 6.2051C3.34189 6.24556 3.33328 6.28892 3.33331 6.3327C3.33328 6.37649 3.34189 6.41985 3.35863 6.4603C3.37537 6.50076 3.39992 6.53752 3.43088 6.56848C3.46184 6.59944 3.4986 6.62399 3.53906 6.64073C3.57951 6.65747 3.62287 6.66608 3.66666 6.66605H9.65994L9.33984 8.2673C9.31772 8.37667 9.35222 8.48964 9.431 8.56839C9.49353 8.63087 9.57829 8.66599 9.66669 8.66605C9.68819 8.66605 9.71031 8.66377 9.73178 8.65955L11.3978 8.3262C11.4625 8.31346 11.5219 8.28172 11.5684 8.23505L14 5.8038V10.666ZM11.1686 7.69239L10.0918 7.90789L10.3073 6.82977L13.3332 3.80389L14.1953 4.66598L11.1686 7.69239ZM15.1549 3.70639L14.6667 4.19467L13.8045 3.33252L14.2929 2.84408C14.4076 2.73039 14.5625 2.66643 14.7239 2.66602C15.0599 2.66602 15.3333 2.93945 15.3333 3.27539C15.3333 3.43555 15.2682 3.5928 15.1549 3.70639Z" fill="black"/>
</svg>
