<svg width="22" height="22" viewBox="0 0 22 22" fill="none" xmlns="http://www.w3.org/2000/svg">
<path d="M2.36474 17.4258L2.34641 17.4442C2.09891 16.9033 1.94307 16.2892 1.87891 15.6108C1.94307 16.28 2.11724 16.885 2.36474 17.4258Z" fill="black"/>
<path d="M8.25003 9.51495C9.45493 9.51495 10.4317 8.53818 10.4317 7.33328C10.4317 6.12838 9.45493 5.15161 8.25003 5.15161C7.04512 5.15161 6.06836 6.12838 6.06836 7.33328C6.06836 8.53818 7.04512 9.51495 8.25003 9.51495Z" fill="black"/>
<path d="M14.8415 1.83325H7.15982C3.82315 1.83325 1.83398 3.82242 1.83398 7.15909V14.8408C1.83398 15.8399 2.00815 16.7108 2.34732 17.4441C3.13565 19.1858 4.82232 20.1666 7.15982 20.1666H14.8415C18.1782 20.1666 20.1673 18.1774 20.1673 14.8408V12.7416V7.15909C20.1673 3.82242 18.1782 1.83325 14.8415 1.83325ZM18.6732 11.4583C17.9582 10.8441 16.8032 10.8441 16.0882 11.4583L12.2748 14.7308C11.5598 15.3449 10.4048 15.3449 9.68982 14.7308L9.37815 14.4741C8.72732 13.9058 7.69148 13.8508 6.95815 14.3458L3.52982 16.6466C3.32815 16.1333 3.20898 15.5374 3.20898 14.8408V7.15909C3.20898 4.57409 4.57482 3.20825 7.15982 3.20825H14.8415C17.4265 3.20825 18.7923 4.57409 18.7923 7.15909V11.5591L18.6732 11.4583Z" fill="black"/>
</svg>
