<svg width="15" height="15" viewBox="0 0 15 15" fill="none" xmlns="http://www.w3.org/2000/svg">
<path d="M5.66667 14.3333H9.66667C13 14.3333 14.3333 13 14.3333 9.66667V5.66667C14.3333 2.33333 13 1 9.66667 1H5.66667C2.33333 1 1 2.33333 1 5.66667V9.66667C1 13 2.33333 14.3333 5.66667 14.3333Z" stroke="black" stroke-linecap="round" stroke-linejoin="round"/>
<path d="M5.66634 6.33341C6.40272 6.33341 6.99967 5.73646 6.99967 5.00008C6.99967 4.2637 6.40272 3.66675 5.66634 3.66675C4.92996 3.66675 4.33301 4.2637 4.33301 5.00008C4.33301 5.73646 4.92996 6.33341 5.66634 6.33341Z" stroke="black" stroke-linecap="round" stroke-linejoin="round"/>
<path d="M1.44629 12.3L4.73296 10.0934C5.25962 9.74004 6.01962 9.78004 6.49296 10.1867L6.71296 10.38C7.23296 10.8267 8.07296 10.8267 8.59296 10.38L11.3663 8.00004C11.8863 7.55337 12.7263 7.55337 13.2463 8.00004L14.333 8.93337" stroke="black" stroke-linecap="round" stroke-linejoin="round"/>
</svg>
