<svg width="14" height="14" viewBox="0 0 14 14" fill="none" xmlns="http://www.w3.org/2000/svg">
<path fill-rule="evenodd" clip-rule="evenodd" d="M10.2676 13.8737H3.6974C3.1574 13.8737 2.72803 13.8737 2.38171 13.8452C2.02696 13.8163 1.72434 13.7557 1.4474 13.6146C1.00021 13.3867 0.636654 13.023 0.40884 12.5758C0.267652 12.2991 0.20709 11.9964 0.178215 11.6417C0.149715 11.2954 0.149902 10.866 0.149902 10.3262V3.75581C0.149902 3.21581 0.149902 2.78643 0.178027 2.44012C0.20709 2.08537 0.267652 1.78293 0.40884 1.506C0.636703 1.05874 1.00033 0.695109 1.44759 0.467246C1.72434 0.326246 2.02696 0.265684 2.38171 0.236621C2.72803 0.208309 3.1574 0.208496 3.69722 0.208496H10.2676C10.8076 0.208496 11.237 0.208309 11.5833 0.236621C11.938 0.265684 12.2405 0.326246 12.5174 0.467246C12.9647 0.695109 13.3283 1.05874 13.5562 1.506C13.6972 1.78293 13.7577 2.08537 13.7868 2.44012C13.8149 2.78662 13.8149 3.216 13.8149 3.75581V10.3262C13.8149 10.8662 13.8149 11.2956 13.7868 11.6419C13.7577 11.9966 13.6972 12.2991 13.5562 12.5762C13.3283 13.0234 12.9646 13.3869 12.5174 13.6147C12.2405 13.7557 11.938 13.8165 11.5833 13.8454C11.2368 13.8737 10.8074 13.8737 10.2676 13.8737ZM11.5188 13.0556C11.8244 13.0307 12.0112 12.9834 12.1578 12.9086C12.4559 12.7567 12.6983 12.5143 12.8502 12.2162C12.9248 12.0696 12.9721 11.883 12.9972 11.5772C13.0225 11.2669 13.0229 10.8697 13.0229 10.3087V3.77306C13.0229 3.21187 13.0225 2.81493 12.9972 2.50443C12.9723 2.19881 12.9248 2.01206 12.8502 1.86543C12.6983 1.56729 12.4559 1.3249 12.1578 1.173C12.0112 1.09818 11.8244 1.05112 11.5188 1.026C11.2083 1.00068 10.8113 1.00031 10.2502 1.00031H3.71465C3.15347 1.00031 2.75653 1.00068 2.44621 1.026C2.1404 1.05093 1.95384 1.09818 1.80703 1.173C1.50896 1.32493 1.26663 1.56732 1.11478 1.86543C1.03996 2.01206 0.992715 2.19862 0.96759 2.50443C0.942277 2.81475 0.94209 3.21187 0.94209 3.77306V10.3086C0.94209 10.8696 0.942277 11.2667 0.96759 11.577C0.992715 11.8826 1.03996 12.0694 1.11478 12.216C1.26663 12.5141 1.50896 12.7565 1.80703 12.9084C1.95384 12.9832 2.1404 13.0305 2.44621 13.0554C2.75653 13.0809 3.15347 13.0811 3.71465 13.0811H10.2502C10.8113 13.0811 11.2083 13.0811 11.5188 13.0556Z" fill="black"/>
<path d="M4.72727 9.07916C4.31158 9.07916 3.95852 9.00041 3.66864 8.84328C3.38214 8.68616 3.16389 8.46603 3.01371 8.18309C2.86352 7.89997 2.78833 7.56809 2.78833 7.18747C2.78833 6.89403 2.83202 6.63022 2.91939 6.39622C3.01014 6.15866 3.13952 5.95766 3.30714 5.79359C3.47833 5.62578 3.68439 5.49659 3.92552 5.40566C4.17002 5.31491 4.44602 5.26953 4.75333 5.26953C4.94196 5.26953 5.13077 5.29053 5.31939 5.33234C5.50802 5.37434 5.68971 5.44409 5.86427 5.54197C5.93777 5.58397 5.98652 5.63797 6.01108 5.70434C6.03902 5.76734 6.04596 5.83559 6.03208 5.90872C6.02187 5.97812 5.99289 6.04341 5.94827 6.09753C5.90627 6.15003 5.85039 6.18472 5.78045 6.20234C5.71408 6.21622 5.6372 6.20234 5.54983 6.16034C5.43477 6.09752 5.31125 6.05161 5.18308 6.02403C5.04396 5.9915 4.90145 5.9757 4.75858 5.97697C4.51071 5.97697 4.30277 6.02403 4.13514 6.11834C3.96733 6.20928 3.84171 6.34541 3.75771 6.52709C3.67746 6.70522 3.63733 6.92534 3.63733 7.18747C3.63733 7.58216 3.73164 7.88084 3.92027 8.08353C4.11246 8.28603 4.39539 8.38728 4.76908 8.38728C4.89489 8.38728 5.02408 8.37528 5.15683 8.35072C5.28958 8.32634 5.42064 8.29128 5.54983 8.24591L5.39796 8.57591V7.56997H4.92639C4.82139 7.56997 4.74114 7.54372 4.68527 7.49122C4.62939 7.43891 4.60146 7.36747 4.60146 7.27653C4.60146 7.18222 4.62939 7.11059 4.68527 7.06166C4.74114 7.00916 4.82158 6.98291 4.92639 6.98291H5.74914C5.85377 6.98291 5.93252 7.01103 5.98483 7.06691C6.0407 7.12278 6.06864 7.20322 6.06864 7.30803V8.52359C6.06864 8.61453 6.0512 8.69141 6.01614 8.75422C5.98145 8.81703 5.92202 8.86259 5.83802 8.89053C5.68089 8.94641 5.50445 8.99178 5.30889 9.02666C5.11333 9.06172 4.91927 9.07916 4.72727 9.07916ZM7.19627 9.06866C7.06352 9.06866 6.96227 9.03191 6.89252 8.95859C6.82258 8.88528 6.78752 8.78234 6.78752 8.64941V5.69928C6.78752 5.56653 6.82258 5.46341 6.89252 5.38991C6.96227 5.31678 7.06352 5.28003 7.19627 5.28003C7.32564 5.28003 7.42502 5.31659 7.49496 5.39009C7.56489 5.46322 7.59996 5.56634 7.59996 5.69928V8.64941C7.59996 8.78216 7.56489 8.88528 7.49496 8.95859C7.42858 9.03191 7.32902 9.06866 7.19627 9.06866ZM8.75721 9.06866C8.62446 9.06866 8.52152 9.03191 8.44802 8.95859C8.37827 8.88528 8.34321 8.77859 8.34321 8.63891V5.75159C8.34321 5.61528 8.37995 5.51066 8.45327 5.43716C8.52658 5.36384 8.63139 5.32709 8.76771 5.32709H10.5598C10.6646 5.32709 10.7432 5.35522 10.7957 5.41091C10.8516 5.46341 10.8795 5.54028 10.8795 5.64153C10.8795 5.74653 10.8514 5.82678 10.7957 5.88266C10.7432 5.93516 10.6646 5.96122 10.5598 5.96122H9.15546V6.86253H10.4445C10.5495 6.86253 10.6298 6.89047 10.6856 6.94634C10.7415 6.99884 10.7695 7.07572 10.7695 7.17697C10.7695 7.27822 10.7413 7.35697 10.6856 7.41266C10.63 7.46834 10.5493 7.49666 10.4445 7.49666H9.15546V8.63891C9.15546 8.92541 9.02271 9.06866 8.75721 9.06866Z" fill="black"/>
</svg>
