<svg width="18" height="20" viewBox="0 0 18 20" fill="none" xmlns="http://www.w3.org/2000/svg">
<path d="M16.7357 7.15391H16.2555V4.8367C16.2555 4.82214 16.2532 4.80769 16.2513 4.79295C16.2505 4.70094 16.2212 4.61056 16.1582 4.53906L12.3021 0.134023C12.301 0.132897 12.2998 0.132498 12.299 0.131372C12.2761 0.105701 12.2493 0.084241 12.2209 0.0658677C12.2126 0.0601306 12.2041 0.0554465 12.1953 0.0505446C12.1707 0.0370888 12.1448 0.0261872 12.1179 0.0180101C12.1107 0.0160857 12.1041 0.0131082 12.0969 0.0111111C12.0674 0.00398265 12.0372 0.000254661 12.0069 0L2.53 0C2.09725 0 1.74569 0.35196 1.74569 0.784349V7.15373H1.26555C0.646491 7.15373 0.144531 7.65547 0.144531 8.27464V14.104C0.144531 14.7229 0.646491 15.2252 1.26555 15.2252H1.74573V19.2157C1.74573 19.648 2.09729 20 2.53004 20H15.4712C15.9035 20 16.2555 19.648 16.2555 19.2157V15.2252H16.7358C17.3546 15.2252 17.8567 14.7231 17.8567 14.1043V8.27486C17.8567 7.65569 17.3546 7.15391 16.7357 7.15391ZM15.4712 19.0033H2.53V15.2252H15.4712V19.0033H15.4712ZM6.03904 13.1809C6.34321 13.1809 6.58668 13.1465 6.69085 13.0943V11.8693H5.78715V10.8351H7.96812V13.9197C7.55988 14.0587 6.78591 14.2498 6.013 14.2498C4.94416 14.2498 4.17085 13.9805 3.632 13.4592C3.09318 12.9554 2.7979 12.1906 2.80669 11.3306C2.81511 9.3843 4.23181 8.27221 6.152 8.27221C6.9077 8.27221 7.48958 8.41985 7.77654 8.55888L7.49851 9.61865C7.17709 9.47965 6.77727 9.36694 6.13399 9.36694C5.03105 9.36694 4.19648 9.99257 4.19648 11.2608C4.1967 12.4686 4.95306 13.1809 6.03904 13.1809ZM9.00261 14.1889V8.33314H10.3318V14.1889H9.00261ZM14.9113 10.7571V11.8344H12.8084V14.1889H11.4792V8.33314H15.0593V9.41883H12.8084V10.7571H14.9113V10.7571ZM15.4712 7.15391H2.53V0.784494H11.6147V4.7972C11.6147 5.01386 11.7905 5.18935 12.0069 5.18935H15.4712V7.15391H15.4712Z" fill="black"/>
</svg>
