<svg width="24" height="24" viewBox="0 0 24 24" fill="none" xmlns="http://www.w3.org/2000/svg">
<path d="M5.625 11.9999C5.625 10.8109 5.95261 9.69696 6.52177 8.7432V4.69751H2.47608C0.870375 6.78288 0 9.3244 0 11.9999C0 14.6755 0.870375 17.217 2.47608 19.3024H6.52177V15.2567C5.95261 14.3029 5.625 13.189 5.625 11.9999Z" fill="#FBBD00"/>
<path d="M12 18.3751L9.1875 21.1876L12 24.0001C14.6756 24.0001 17.217 23.1297 19.3024 21.524V17.4827H15.261C14.2989 18.0539 13.1804 18.3751 12 18.3751Z" fill="#0F9D58"/>
<path d="M6.52225 15.2568L2.47656 19.3025C2.79694 19.7188 3.14388 20.1139 3.51522 20.4854C5.78172 22.7519 8.79517 24.0001 12.0005 24.0001V18.3751C9.67436 18.3751 7.63562 17.1226 6.52225 15.2568Z" fill="#31AA52"/>
<path d="M24 11.9999C24.0001 11.2709 23.9343 10.5433 23.8035 9.82603L23.698 9.24951H12V14.8745H17.6931C17.1483 15.9584 16.3043 16.8635 15.261 17.4825L19.3024 21.5239C19.7186 21.2035 20.1138 20.8566 20.4853 20.4853C22.7518 18.2187 24 15.2053 24 11.9999Z" fill="#3C79E6"/>
<path d="M16.5078 7.49217L17.005 7.98933L20.9825 4.01189L20.4853 3.51473C18.2188 1.24823 15.2054 0 12 0L9.1875 2.8125L12 5.625C13.7028 5.625 15.3037 6.28809 16.5078 7.49217Z" fill="#CF2D48"/>
<path d="M12.0005 5.625V0C8.79522 0 5.78177 1.24823 3.51522 3.51469C3.14386 3.88618 2.79691 4.2813 2.47656 4.69758L6.52225 8.74327C7.63567 6.8775 9.67441 5.625 12.0005 5.625Z" fill="#EB4132"/>
</svg>
