<svg width="20" height="20" viewBox="0 0 20 20" fill="none" xmlns="http://www.w3.org/2000/svg">
<path d="M2.23541 10.4381L6.88541 12.8131C7.02291 12.8818 7.32291 13.0506 7.49166 12.7756C7.64791 12.5193 7.38541 12.3131 7.26041 12.2193L1.84791 8.07556C1.45416 7.76306 1.36666 7.15681 1.66666 6.74431C1.96666 6.31306 2.59166 6.18806 3.01666 6.48181L8.51666 10.4256C8.61666 10.5006 8.89166 10.7006 9.09166 10.4693C9.29166 10.2506 9.07291 10.0006 8.98541 9.90681L3.87916 4.51931C3.51041 4.11306 3.53541 3.43806 4.02916 2.98181C4.42291 2.61931 5.11666 2.60681 5.49166 2.99431L10.5104 8.21931C10.5854 8.29431 10.8167 8.53181 11.0542 8.35681C11.2979 8.16931 11.1229 7.89431 11.0792 7.78806L7.96041 2.61306C7.74791 2.28181 7.74166 1.60056 8.31666 1.25681C8.91041 0.906812 9.47916 1.25681 9.69791 1.62556L13.1667 7.20056C13.6604 8.02556 14.4354 8.71931 15.1229 9.04431C15.6542 9.29431 16.0667 8.97556 16.1354 8.41931C16.2417 7.55681 16.4104 6.48806 16.7104 5.58806C17.0229 4.64431 18.1229 4.17556 19.0604 4.65056L18.7417 5.90681C18.4229 7.18181 18.3854 8.51931 18.6042 9.81931C18.7917 10.9068 18.9792 12.3068 18.9542 13.5506C18.9229 15.4256 17.6604 16.2443 16.5292 17.2631C11.6479 21.6943 8.09791 15.6693 6.36666 14.8131L1.33541 12.0193C0.910408 11.7756 0.816658 11.2068 1.06666 10.7943C1.31041 10.3943 1.81041 10.2193 2.23541 10.4381Z" fill="#FFBD00"/>
<path d="M17.5977 4.62644C17.7477 4.65769 17.8914 4.70144 18.0352 4.77019L17.7164 6.02644C17.3977 7.30144 17.3602 8.63894 17.5789 9.93894C17.7664 11.0264 17.9539 12.4264 17.9289 13.6702C17.8977 15.5452 16.6352 16.3639 15.5039 17.3827C14.5789 18.2202 13.7039 18.6827 12.8789 18.8764C13.9914 18.8952 15.2102 18.4639 16.5227 17.2702C17.6539 16.2514 18.9102 15.4327 18.9477 13.5577C18.9727 12.3077 18.7852 10.9077 18.5977 9.82644C18.3727 8.52644 18.4164 7.18894 18.7352 5.91394L19.0539 4.65769C18.5727 4.41394 18.0414 4.42644 17.5977 4.62644Z" fill="#D29B12"/>
<path d="M17.5875 9.31931C17.775 10.4068 17.9625 11.8068 17.9375 13.0506C17.9062 14.9256 16.6437 15.7443 15.5125 16.7631C13.5625 18.5318 11.825 18.6318 10.3313 18.0631C12.0312 19.0943 14.1188 19.4631 16.5312 17.2693C17.6625 16.2506 18.9187 15.4318 18.9562 13.5568C18.9812 12.3068 18.7938 10.9068 18.6063 9.82556C18.3875 8.52556 17.3625 8.01931 17.5875 9.31931ZM4.46875 3.10681L10.0312 8.83806C10.1062 8.91306 10.3375 9.15056 10.575 8.97556C10.8187 8.78806 10.6437 8.51306 10.6 8.40681L10.3562 8.00056L5.49375 3.00056C5.15 2.64431 4.55 2.62556 4.15 2.89431C4.26875 2.94431 4.375 3.01306 4.46875 3.10681ZM1.94375 6.63181L8.04375 11.0006C8.15625 11.0818 8.4625 11.3006 8.68125 11.0443C8.875 10.8381 8.71875 10.6006 8.6125 10.4756L3.075 6.50681C2.70625 6.25056 2.18125 6.28806 1.81875 6.56306C1.8625 6.58806 1.90625 6.60681 1.94375 6.63181ZM8.675 1.73806L12.1438 7.31306C12.6375 8.13806 13.4125 8.83181 14.1 9.15681C14.4687 9.33181 14.7812 9.21931 14.9625 8.95056C14.3188 8.60056 13.6312 7.96306 13.1687 7.20056L9.7 1.62556C9.48125 1.25681 8.9125 0.906812 8.31875 1.25681C8.28125 1.27556 8.25625 1.30056 8.225 1.32556C8.41875 1.43181 8.58125 1.58181 8.675 1.73806ZM6.5375 13.3943C6.69375 13.4756 7.05 13.6693 7.24375 13.3506C7.31875 13.2256 7.3 13.1193 7.25625 13.0256L2.29375 10.4881C1.9 10.2881 1.4625 10.3756 1.15625 10.6443L6.5375 13.3943Z" fill="#D29B12"/>
<path d="M12.9675 19.1959C10.7175 19.1959 8.88623 17.4584 7.61123 16.2522C7.06123 15.7272 6.57998 15.2772 6.22998 15.1022L1.18623 12.3022C0.923726 12.1522 0.736226 11.9084 0.661226 11.6084C0.573726 11.2834 0.629976 10.9334 0.798726 10.6397C1.12998 10.0772 1.80498 9.87091 2.37373 10.1584L7.02373 12.5334C7.07373 12.5584 7.19248 12.6147 7.22998 12.6147C7.21123 12.5959 7.16123 12.5459 7.06748 12.4709L1.65498 8.32716C1.39945 8.11855 1.23184 7.82137 1.18551 7.49477C1.13919 7.16817 1.21754 6.8361 1.40498 6.56466C1.59873 6.28966 1.90498 6.08966 2.25498 6.03341C2.59248 5.97091 2.92373 6.04591 3.18623 6.23341L8.69248 10.1772C8.80498 10.2647 8.84873 10.2709 8.86123 10.2709C8.85498 10.2647 8.84248 10.2147 8.76123 10.1272L3.64873 4.73966C3.14873 4.17716 3.21748 3.30841 3.81123 2.75841C4.34248 2.27716 5.22998 2.28966 5.71123 2.78341L10.73 8.00841C10.8175 8.09591 10.855 8.10841 10.8737 8.11466C10.8675 8.08341 10.8237 7.99591 10.8112 7.96466L7.68623 2.78341C7.51748 2.52716 7.46123 2.15216 7.54248 1.81466C7.62373 1.47091 7.83623 1.18966 8.14873 1.00216C8.85498 0.58341 9.62373 0.91466 9.96123 1.47716L13.4237 7.05216C13.8612 7.78341 14.58 8.45841 15.2487 8.78341C15.3425 8.82716 15.4862 8.86466 15.5987 8.80216C15.7112 8.73966 15.7925 8.59591 15.8175 8.39591C15.9175 7.62091 16.08 6.47091 16.405 5.50841C16.58 4.97091 16.9862 4.53966 17.5175 4.32091C18.055 4.10216 18.6675 4.12716 19.1987 4.38966C19.33 4.45841 19.3987 4.60216 19.3612 4.74591L19.0425 6.00216C18.7362 7.22716 18.6925 8.50216 18.9112 9.78341C19.1675 11.2522 19.2862 12.5272 19.2675 13.5772C19.2362 15.3459 18.1925 16.2522 17.18 17.1334C17.0362 17.2584 16.8862 17.3897 16.7425 17.5209C15.3925 18.7334 14.1237 19.1959 12.9675 19.1959ZM1.84248 10.6584C1.64248 10.6584 1.45498 10.7647 1.34248 10.9584V10.9647C1.25498 11.1084 1.22998 11.2897 1.26748 11.4522C1.29248 11.5459 1.35498 11.6772 1.49248 11.7584L6.51748 14.5522C6.94248 14.7584 7.44873 15.2397 8.03623 15.8022C10.03 17.6897 12.755 20.2772 16.3175 17.0459C16.4675 16.9084 16.6175 16.7834 16.7675 16.6522C17.755 15.7897 18.6112 15.0522 18.6425 13.5584C18.6612 12.5522 18.5425 11.3147 18.2987 9.88341C18.0612 8.51466 18.1112 7.15216 18.4362 5.83966L18.6862 4.84591C18.38 4.75216 18.055 4.76466 17.755 4.88966C17.3925 5.03966 17.1175 5.33341 16.9987 5.69591C16.6925 6.61466 16.53 7.71466 16.4362 8.46466C16.3862 8.85841 16.1925 9.17716 15.905 9.33966C15.6362 9.48966 15.305 9.48966 14.9862 9.33966C14.1987 8.96466 13.3987 8.20841 12.8987 7.37091L9.42998 1.79591C9.32998 1.63341 8.94873 1.24591 8.47373 1.53341C8.32031 1.62192 8.2076 1.76694 8.15972 1.93746C8.11183 2.10798 8.13256 2.29047 8.21748 2.44591L11.3425 7.62716C11.6175 8.17091 11.4362 8.45216 11.2425 8.60216C11.0737 8.72716 10.73 8.87716 10.2925 8.44591L5.26748 3.21466C5.01748 2.96466 4.51748 2.96466 4.24248 3.21466C3.86123 3.57091 3.87373 4.05216 4.11123 4.31466L9.21123 9.68966C9.59248 10.0897 9.51748 10.4647 9.31748 10.6834C9.22998 10.7834 8.88623 11.1022 8.32373 10.6772L2.82373 6.73966C2.69873 6.65216 2.53623 6.61466 2.36123 6.64591C2.17998 6.67716 2.01748 6.77716 1.91748 6.92091C1.71748 7.20216 1.77373 7.62091 2.03623 7.83341L7.44248 11.9709C7.94248 12.3647 7.88623 12.7147 7.74873 12.9334C7.60498 13.1709 7.31123 13.3897 6.74248 13.0897L2.08623 10.7084C2.01123 10.6772 1.92998 10.6584 1.84248 10.6584ZM4.91748 18.0397C4.01637 18.0379 3.1334 17.7863 2.36661 17.313C1.59982 16.8397 0.979222 16.1631 0.573726 15.3584C0.538118 15.2837 0.533227 15.198 0.560103 15.1197C0.586979 15.0414 0.64348 14.9768 0.717476 14.9397C0.873726 14.8647 1.06123 14.9272 1.13623 15.0772C1.49948 15.796 2.05954 16.3968 2.75113 16.8095C3.44272 17.2222 4.23737 17.43 5.04248 17.4084C5.21748 17.4147 5.36123 17.5397 5.36123 17.7147C5.36291 17.7559 5.35624 17.7971 5.3416 17.8357C5.32697 17.8743 5.30468 17.9096 5.27607 17.9393C5.24746 17.9691 5.21313 17.9928 5.17513 18.009C5.13714 18.0251 5.09627 18.0334 5.05498 18.0334C5.01123 18.0397 4.96748 18.0397 4.91748 18.0397ZM4.88623 16.4897H4.85498C4.26349 16.4317 3.69498 16.2307 3.19847 15.904C2.70196 15.5774 2.29236 15.1349 2.00498 14.6147C1.98492 14.5786 1.97225 14.539 1.96768 14.498C1.96312 14.457 1.96676 14.4155 1.9784 14.376C1.99003 14.3364 2.00943 14.2996 2.03545 14.2676C2.06148 14.2356 2.09361 14.2091 2.12998 14.1897C2.27998 14.1084 2.47373 14.1584 2.55498 14.3147C3.03623 15.1897 3.92373 15.7709 4.91748 15.8709C5.08623 15.8897 5.21748 16.0397 5.19873 16.2147C5.17998 16.3709 5.04248 16.4897 4.88623 16.4897Z" fill="#BCBCBC"/>
<path d="M15.3943 5.11402C15.2381 5.11402 15.1006 4.99527 15.0818 4.83277C14.9923 4.03258 14.6776 3.27422 14.1742 2.64582C13.6708 2.01741 12.9994 1.54475 12.2381 1.28277C12.1995 1.26963 12.1639 1.24903 12.1333 1.22214C12.1026 1.19524 12.0776 1.16258 12.0596 1.12602C12.0416 1.08945 12.031 1.04971 12.0284 1.00904C12.0258 0.968376 12.0312 0.927592 12.0443 0.889016C12.0574 0.85044 12.078 0.814828 12.1049 0.784215C12.1318 0.753601 12.1645 0.728584 12.2011 0.710592C12.2376 0.692601 12.2774 0.681988 12.318 0.679358C12.3587 0.676728 12.3995 0.682134 12.4381 0.695266C14.2131 1.30152 15.4943 2.90152 15.7006 4.77027C15.7193 4.93902 15.5943 5.09527 15.4256 5.11402H15.3943ZM13.8756 5.42652C13.7256 5.42652 13.5881 5.31402 13.5693 5.15777C13.4956 4.67033 13.3047 4.20808 13.0129 3.81072C12.7212 3.41336 12.3373 3.09277 11.8943 2.87652C11.8197 2.84005 11.7627 2.77544 11.7357 2.69691C11.7088 2.61838 11.7141 2.53236 11.7506 2.45777C11.787 2.38317 11.8516 2.32612 11.9302 2.29916C12.0087 2.27221 12.0947 2.27755 12.1693 2.31402C12.7027 2.5755 13.1649 2.96218 13.5165 3.44106C13.868 3.91993 14.0984 4.47677 14.1881 5.06402C14.2131 5.23277 14.0943 5.39527 13.9256 5.42027C13.9068 5.42027 13.8943 5.42652 13.8756 5.42652Z" fill="#BCBCBC"/>
</svg>
