<svg width="212" height="187" viewBox="0 0 212 187" fill="none" xmlns="http://www.w3.org/2000/svg">
<g clip-path="url(#clip0_1871_10818)">
<path d="M87.2762 44.2393L95.3466 54.8815C91.1568 56.1993 87.4214 58.1685 84.1667 60.394C81.5742 62.1675 78.0703 61.8418 75.8484 59.6299C74.5728 58.3592 73.9531 56.7182 73.9531 55.0883C73.9531 53.0374 74.9333 51.0026 76.8223 49.7455C79.8492 47.7305 83.3405 45.8035 87.2762 44.2393Z" fill="url(#paint0_linear_1871_10818)"/>
<path d="M137.15 59.628C134.929 61.8399 131.426 62.1656 128.833 60.3921C125.37 58.0241 121.366 55.9497 116.847 54.6356L106.16 40.5454C106.273 40.543 106.385 40.543 106.499 40.543C118.89 40.543 128.881 44.89 136.174 49.7424C139.566 52.0014 140.029 56.7596 137.15 59.628Z" fill="url(#paint1_linear_1871_10818)"/>
<path d="M75.5828 28.8223L83.3528 39.0682C78.2954 41.264 73.9692 43.9639 70.419 46.6291C67.9304 48.4968 64.4341 48.2615 62.2334 46.0694C61.0216 44.8618 60.4258 43.2976 60.4258 41.7384C60.4258 39.9352 61.2219 38.1381 62.7754 36.9095C66.0352 34.3347 70.3239 31.4156 75.5828 28.8223Z" fill="url(#paint2_linear_1871_10818)"/>
<path d="M150.766 46.0694C148.565 48.2615 145.069 48.4968 142.58 46.6292C134.448 40.5235 122.25 34.2382 106.5 34.2382C104.804 34.2382 103.15 34.3113 101.535 34.4488L92.8203 22.9581C97.0527 22.1172 101.617 21.623 106.5 21.623C127.051 21.623 141.958 30.3742 150.221 36.9109C153.12 39.2008 153.379 43.4661 150.766 46.0694Z" fill="url(#paint3_linear_1871_10818)"/>
<path d="M64.0644 13.6338L71.5953 23.5639C65.3725 26.6874 60.4667 30.1811 56.9679 33.0606C54.5569 35.0459 51.018 34.8948 48.8073 32.694L48.7535 32.6395C46.2961 30.1923 46.4401 26.2007 49.0689 23.9318C52.3712 21.082 57.4073 17.2464 64.0644 13.6338Z" fill="url(#paint4_linear_1871_10818)"/>
<path d="M164.246 32.6384L164.192 32.6929C161.981 34.8937 158.444 35.046 156.033 33.0595C147.484 26.0237 130.53 15.3158 106.5 15.3158C100.004 15.3158 94.0254 16.0985 88.59 17.3791L80.5195 6.73804C88.0868 4.4357 96.7718 2.91113 106.5 2.91113C135.696 2.91113 155.486 16.6434 163.932 23.9294C166.56 26.1995 166.704 30.1911 164.246 32.6384Z" fill="url(#paint5_linear_1871_10818)"/>
<path d="M108.822 72.6485C108.064 72.5507 107.29 72.5011 106.5 72.5011C103.2 72.5011 100.18 73.3804 97.452 74.801C94.9496 76.1063 91.8702 75.5899 89.8773 73.6034C88.5992 72.3302 87.9883 70.6991 87.9883 69.0829C87.9883 66.8363 89.1675 64.6157 91.3782 63.4181C93.8393 62.0855 96.5344 60.9907 99.4536 60.2959L108.822 72.6485Z" fill="url(#paint6_linear_1871_10818)"/>
<path d="M106.499 93.0001C110.489 93.0001 113.724 89.7997 113.724 85.8516C113.724 81.9036 110.489 78.7031 106.499 78.7031C102.508 78.7031 99.2734 81.9036 99.2734 85.8516C99.2734 89.7997 102.508 93.0001 106.499 93.0001Z" fill="url(#paint7_linear_1871_10818)"/>
<path d="M70.7876 -0.00104262L62.8301 5.90625L123.879 86.4014L131.837 80.4941L70.7876 -0.00104262Z" fill="url(#paint8_linear_1871_10818)"/>
</g>
<path d="M30.8 120H33.1V134H31.3L24.7 124.5V134H22.4V120H24.2L30.8 129.5V120ZM40.4761 134.26C39.0094 134.26 37.7628 133.753 36.7361 132.74C35.7094 131.727 35.1961 130.48 35.1961 129C35.1961 127.52 35.7094 126.273 36.7361 125.26C37.7628 124.247 39.0094 123.74 40.4761 123.74C41.9561 123.74 43.2028 124.247 44.2161 125.26C45.2428 126.273 45.7561 127.52 45.7561 129C45.7561 130.48 45.2428 131.727 44.2161 132.74C43.2028 133.753 41.9561 134.26 40.4761 134.26ZM38.2561 131.26C38.8561 131.86 39.5961 132.16 40.4761 132.16C41.3561 132.16 42.0961 131.86 42.6961 131.26C43.2961 130.66 43.5961 129.907 43.5961 129C43.5961 128.093 43.2961 127.34 42.6961 126.74C42.0961 126.14 41.3561 125.84 40.4761 125.84C39.5961 125.84 38.8561 126.14 38.2561 126.74C37.6561 127.34 37.3561 128.093 37.3561 129C37.3561 129.907 37.6561 130.66 38.2561 131.26ZM61.2492 120H63.5492V134H61.7492L55.1492 124.5V134H52.8492V120H54.6492L61.2492 129.5V120ZM67.9053 129.92C68.0653 130.68 68.432 131.267 69.0053 131.68C69.5786 132.08 70.2786 132.28 71.1053 132.28C72.252 132.28 73.112 131.867 73.6853 131.04L75.4653 132.08C74.4786 133.533 73.0186 134.26 71.0853 134.26C69.4586 134.26 68.1453 133.767 67.1453 132.78C66.1453 131.78 65.6453 130.52 65.6453 129C65.6453 127.507 66.1386 126.26 67.1253 125.26C68.112 124.247 69.3786 123.74 70.9253 123.74C72.392 123.74 73.592 124.253 74.5253 125.28C75.472 126.307 75.9453 127.553 75.9453 129.02C75.9453 129.247 75.9186 129.547 75.8653 129.92H67.9053ZM67.8853 128.16H73.7653C73.6186 127.347 73.2786 126.733 72.7453 126.32C72.2253 125.907 71.612 125.7 70.9053 125.7C70.1053 125.7 69.4386 125.92 68.9053 126.36C68.372 126.8 68.032 127.4 67.8853 128.16ZM83.1134 126.08H80.6334V130.88C80.6334 131.293 80.7268 131.593 80.9134 131.78C81.1001 131.953 81.3734 132.053 81.7334 132.08C82.1068 132.093 82.5668 132.087 83.1134 132.06V134C81.4601 134.2 80.2734 134.06 79.5534 133.58C78.8334 133.087 78.4734 132.187 78.4734 130.88V126.08H76.6334V124H78.4734V121.84L80.6334 121.2V124H83.1134V126.08ZM96.6902 124H98.9702L95.8302 134H93.7102L91.6302 127.26L89.5302 134H87.4102L84.2702 124H86.5502L88.4902 130.9L90.5902 124H92.6502L94.7302 130.9L96.6902 124ZM104.89 134.26C103.423 134.26 102.177 133.753 101.15 132.74C100.123 131.727 99.6102 130.48 99.6102 129C99.6102 127.52 100.123 126.273 101.15 125.26C102.177 124.247 103.423 123.74 104.89 123.74C106.37 123.74 107.617 124.247 108.63 125.26C109.657 126.273 110.17 127.52 110.17 129C110.17 130.48 109.657 131.727 108.63 132.74C107.617 133.753 106.37 134.26 104.89 134.26ZM102.67 131.26C103.27 131.86 104.01 132.16 104.89 132.16C105.77 132.16 106.51 131.86 107.11 131.26C107.71 130.66 108.01 129.907 108.01 129C108.01 128.093 107.71 127.34 107.11 126.74C106.51 126.14 105.77 125.84 104.89 125.84C104.01 125.84 103.27 126.14 102.67 126.74C102.07 127.34 101.77 128.093 101.77 129C101.77 129.907 102.07 130.66 102.67 131.26ZM114.283 125.68C114.83 124.44 115.857 123.82 117.363 123.82V126.16C116.537 126.107 115.817 126.307 115.203 126.76C114.59 127.2 114.283 127.933 114.283 128.96V134H112.123V124H114.283V125.68ZM127.799 134H125.219L121.119 129.38V134H118.959V120H121.119V128.42L124.999 124H127.639L123.239 128.9L127.799 134ZM142.592 122.2H136.692V126.12H142.392V128.32H136.692V134H134.392V120H142.592V122.2ZM149.324 134.26C147.857 134.26 146.61 133.753 145.584 132.74C144.557 131.727 144.044 130.48 144.044 129C144.044 127.52 144.557 126.273 145.584 125.26C146.61 124.247 147.857 123.74 149.324 123.74C150.804 123.74 152.05 124.247 153.064 125.26C154.09 126.273 154.604 127.52 154.604 129C154.604 130.48 154.09 131.727 153.064 132.74C152.05 133.753 150.804 134.26 149.324 134.26ZM147.104 131.26C147.704 131.86 148.444 132.16 149.324 132.16C150.204 132.16 150.944 131.86 151.544 131.26C152.144 130.66 152.444 129.907 152.444 129C152.444 128.093 152.144 127.34 151.544 126.74C150.944 126.14 150.204 125.84 149.324 125.84C148.444 125.84 147.704 126.14 147.104 126.74C146.504 127.34 146.204 128.093 146.204 129C146.204 129.907 146.504 130.66 147.104 131.26ZM163.297 124H165.457V134H163.297V132.72C162.644 133.747 161.61 134.26 160.197 134.26C159.05 134.26 158.124 133.893 157.417 133.16C156.71 132.427 156.357 131.42 156.357 130.14V124H158.517V129.92C158.517 130.667 158.717 131.24 159.117 131.64C159.517 132.04 160.064 132.24 160.757 132.24C161.517 132.24 162.13 132.007 162.597 131.54C163.064 131.06 163.297 130.333 163.297 129.36V124ZM173.243 123.74C174.389 123.74 175.316 124.107 176.023 124.84C176.729 125.573 177.083 126.58 177.083 127.86V134H174.923V128.08C174.923 127.333 174.723 126.76 174.323 126.36C173.923 125.96 173.376 125.76 172.683 125.76C171.923 125.76 171.309 126 170.843 126.48C170.376 126.947 170.143 127.667 170.143 128.64V134H167.983V124H170.143V125.28C170.796 124.253 171.829 123.74 173.243 123.74ZM187.328 120H189.488V134H187.328V132.56C186.515 133.693 185.348 134.26 183.828 134.26C182.455 134.26 181.282 133.753 180.308 132.74C179.335 131.713 178.848 130.467 178.848 129C178.848 127.52 179.335 126.273 180.308 125.26C181.282 124.247 182.455 123.74 183.828 123.74C185.348 123.74 186.515 124.3 187.328 125.42V120ZM181.908 131.3C182.508 131.9 183.262 132.2 184.168 132.2C185.075 132.2 185.828 131.9 186.428 131.3C187.028 130.687 187.328 129.92 187.328 129C187.328 128.08 187.028 127.32 186.428 126.72C185.828 126.107 185.075 125.8 184.168 125.8C183.262 125.8 182.508 126.107 181.908 126.72C181.308 127.32 181.008 128.08 181.008 129C181.008 129.92 181.308 130.687 181.908 131.3Z" fill="url(#paint9_linear_1871_10818)"/>
<path d="M6.23748 159.328C5.66148 159.872 4.90948 160.144 3.98148 160.144C3.05348 160.144 2.30148 159.872 1.72548 159.328C1.14948 158.784 0.861484 158.056 0.861484 157.144V151.6H1.70148V157.144C1.70148 157.816 1.90148 158.348 2.30148 158.74C2.70148 159.132 3.26148 159.328 3.98148 159.328C4.70148 159.328 5.26148 159.132 5.66148 158.74C6.06148 158.348 6.26148 157.816 6.26148 157.144V151.6H7.10148V157.144C7.10148 158.056 6.81348 158.784 6.23748 159.328ZM11.5914 153.856C12.3194 153.856 12.8914 154.08 13.3074 154.528C13.7314 154.968 13.9434 155.564 13.9434 156.316V160H13.1514V156.316C13.1514 155.78 13.0074 155.364 12.7194 155.068C12.4394 154.772 12.0394 154.624 11.5194 154.624C10.9434 154.624 10.4754 154.808 10.1154 155.176C9.75536 155.536 9.57536 156.096 9.57536 156.856V160H8.78336V154H9.57536V154.936C10.0234 154.216 10.6954 153.856 11.5914 153.856ZM20.6348 154H21.4268V160H20.6348V158.824C20.0828 159.704 19.2748 160.144 18.2108 160.144C17.3548 160.144 16.6228 159.84 16.0148 159.232C15.4148 158.624 15.1148 157.88 15.1148 157C15.1148 156.12 15.4148 155.376 16.0148 154.768C16.6228 154.16 17.3548 153.856 18.2108 153.856C19.2748 153.856 20.0828 154.296 20.6348 155.176V154ZM16.5908 158.692C17.0468 159.148 17.6068 159.376 18.2708 159.376C18.9348 159.376 19.4948 159.148 19.9508 158.692C20.4068 158.228 20.6348 157.664 20.6348 157C20.6348 156.336 20.4068 155.776 19.9508 155.32C19.4948 154.856 18.9348 154.624 18.2708 154.624C17.6068 154.624 17.0468 154.856 16.5908 155.32C16.1348 155.776 15.9068 156.336 15.9068 157C15.9068 157.664 16.1348 158.228 16.5908 158.692ZM26.3197 153.856C27.1757 153.856 27.9037 154.16 28.5037 154.768C29.1117 155.376 29.4157 156.12 29.4157 157C29.4157 157.88 29.1117 158.624 28.5037 159.232C27.9037 159.84 27.1757 160.144 26.3197 160.144C25.2557 160.144 24.4477 159.704 23.8957 158.824V160H23.1037V151.6H23.8957V155.176C24.4477 154.296 25.2557 153.856 26.3197 153.856ZM24.5797 158.692C25.0357 159.148 25.5957 159.376 26.2597 159.376C26.9237 159.376 27.4837 159.148 27.9397 158.692C28.3957 158.228 28.6237 157.664 28.6237 157C28.6237 156.336 28.3957 155.776 27.9397 155.32C27.4837 154.856 26.9237 154.624 26.2597 154.624C25.5957 154.624 25.0357 154.856 24.5797 155.32C24.1237 155.776 23.8957 156.336 23.8957 157C23.8957 157.664 24.1237 158.228 24.5797 158.692ZM30.7326 160V151.24H31.5246V160H30.7326ZM35.9772 153.856C36.8652 153.856 37.5812 154.172 38.1252 154.804C38.6772 155.428 38.9532 156.168 38.9532 157.024C38.9532 157.112 38.9452 157.236 38.9292 157.396H33.6612C33.7412 158.004 33.9972 158.488 34.4292 158.848C34.8692 159.2 35.4092 159.376 36.0492 159.376C36.5052 159.376 36.8972 159.284 37.2252 159.1C37.5612 158.908 37.8132 158.66 37.9812 158.356L38.6772 158.764C38.4132 159.188 38.0532 159.524 37.5972 159.772C37.1412 160.02 36.6212 160.144 36.0372 160.144C35.0932 160.144 34.3252 159.848 33.7332 159.256C33.1412 158.664 32.8452 157.912 32.8452 157C32.8452 156.104 33.1372 155.356 33.7212 154.756C34.3052 154.156 35.0572 153.856 35.9772 153.856ZM35.9772 154.624C35.3532 154.624 34.8292 154.812 34.4052 155.188C33.9892 155.556 33.7412 156.036 33.6612 156.628H38.1372C38.0572 155.996 37.8132 155.504 37.4052 155.152C36.9972 154.8 36.5212 154.624 35.9772 154.624ZM46.393 154.768H44.665V158.404C44.665 158.732 44.729 158.968 44.857 159.112C44.985 159.248 45.177 159.32 45.433 159.328C45.689 159.328 46.009 159.32 46.393 159.304V160C45.553 160.128 44.921 160.068 44.497 159.82C44.081 159.572 43.873 159.1 43.873 158.404V154.768H42.613V154H43.873V152.56L44.665 152.32V154H46.393V154.768ZM52.3778 159.244C51.7698 159.844 51.0258 160.144 50.1458 160.144C49.2658 160.144 48.5178 159.844 47.9018 159.244C47.2938 158.636 46.9898 157.888 46.9898 157C46.9898 156.112 47.2938 155.368 47.9018 154.768C48.5178 154.16 49.2658 153.856 50.1458 153.856C51.0258 153.856 51.7698 154.16 52.3778 154.768C52.9938 155.368 53.3018 156.112 53.3018 157C53.3018 157.888 52.9938 158.636 52.3778 159.244ZM48.4658 158.692C48.9218 159.148 49.4818 159.376 50.1458 159.376C50.8098 159.376 51.3698 159.148 51.8258 158.692C52.2818 158.228 52.5098 157.664 52.5098 157C52.5098 156.336 52.2818 155.776 51.8258 155.32C51.3698 154.856 50.8098 154.624 50.1458 154.624C49.4818 154.624 48.9218 154.856 48.4658 155.32C48.0098 155.776 47.7818 156.336 47.7818 157C47.7818 157.664 48.0098 158.228 48.4658 158.692ZM62.7871 151.6H63.5791V160H62.7871V158.824C62.2351 159.704 61.4271 160.144 60.3631 160.144C59.5071 160.144 58.7751 159.84 58.1671 159.232C57.5671 158.624 57.2671 157.88 57.2671 157C57.2671 156.12 57.5671 155.376 58.1671 154.768C58.7751 154.16 59.5071 153.856 60.3631 153.856C61.4271 153.856 62.2351 154.296 62.7871 155.176V151.6ZM58.7431 158.692C59.1991 159.148 59.7591 159.376 60.4231 159.376C61.0871 159.376 61.6471 159.148 62.1031 158.692C62.5591 158.228 62.7871 157.664 62.7871 157C62.7871 156.336 62.5591 155.776 62.1031 155.32C61.6471 154.856 61.0871 154.624 60.4231 154.624C59.7591 154.624 59.1991 154.856 58.7431 155.32C58.2871 155.776 58.0591 156.336 58.0591 157C58.0591 157.664 58.2871 158.228 58.7431 158.692ZM68.028 153.856C68.916 153.856 69.632 154.172 70.176 154.804C70.728 155.428 71.004 156.168 71.004 157.024C71.004 157.112 70.996 157.236 70.98 157.396H65.712C65.792 158.004 66.048 158.488 66.48 158.848C66.92 159.2 67.46 159.376 68.1 159.376C68.556 159.376 68.948 159.284 69.276 159.1C69.612 158.908 69.864 158.66 70.032 158.356L70.728 158.764C70.464 159.188 70.104 159.524 69.648 159.772C69.192 160.02 68.672 160.144 68.088 160.144C67.144 160.144 66.376 159.848 65.784 159.256C65.192 158.664 64.896 157.912 64.896 157C64.896 156.104 65.188 155.356 65.772 154.756C66.356 154.156 67.108 153.856 68.028 153.856ZM68.028 154.624C67.404 154.624 66.88 154.812 66.456 155.188C66.04 155.556 65.792 156.036 65.712 156.628H70.188C70.108 155.996 69.864 155.504 69.456 155.152C69.048 154.8 68.572 154.624 68.028 154.624ZM75.268 154.768H73.54V158.404C73.54 158.732 73.604 158.968 73.732 159.112C73.86 159.248 74.052 159.32 74.308 159.328C74.564 159.328 74.884 159.32 75.268 159.304V160C74.428 160.128 73.796 160.068 73.372 159.82C72.956 159.572 72.748 159.1 72.748 158.404V154.768H71.488V154H72.748V152.56L73.54 152.32V154H75.268V154.768ZM78.9968 153.856C79.8848 153.856 80.6008 154.172 81.1448 154.804C81.6968 155.428 81.9728 156.168 81.9728 157.024C81.9728 157.112 81.9648 157.236 81.9488 157.396H76.6808C76.7608 158.004 77.0168 158.488 77.4488 158.848C77.8888 159.2 78.4288 159.376 79.0688 159.376C79.5248 159.376 79.9168 159.284 80.2448 159.1C80.5808 158.908 80.8328 158.66 81.0008 158.356L81.6968 158.764C81.4328 159.188 81.0728 159.524 80.6168 159.772C80.1608 160.02 79.6408 160.144 79.0568 160.144C78.1128 160.144 77.3448 159.848 76.7528 159.256C76.1608 158.664 75.8648 157.912 75.8648 157C75.8648 156.104 76.1568 155.356 76.7408 154.756C77.3248 154.156 78.0768 153.856 78.9968 153.856ZM78.9968 154.624C78.3728 154.624 77.8488 154.812 77.4248 155.188C77.0088 155.556 76.7608 156.036 76.6808 156.628H81.1568C81.0768 155.996 80.8328 155.504 80.4248 155.152C80.0168 154.8 79.5408 154.624 78.9968 154.624ZM86.0286 160.144C85.1246 160.144 84.3726 159.844 83.7726 159.244C83.1726 158.636 82.8726 157.888 82.8726 157C82.8726 156.112 83.1726 155.368 83.7726 154.768C84.3726 154.16 85.1246 153.856 86.0286 153.856C86.6206 153.856 87.1526 154 87.6246 154.288C88.0966 154.568 88.4406 154.948 88.6566 155.428L88.0086 155.8C87.8486 155.44 87.5886 155.156 87.2286 154.948C86.8766 154.732 86.4766 154.624 86.0286 154.624C85.3646 154.624 84.8046 154.856 84.3486 155.32C83.8926 155.776 83.6646 156.336 83.6646 157C83.6646 157.664 83.8926 158.228 84.3486 158.692C84.8046 159.148 85.3646 159.376 86.0286 159.376C86.4766 159.376 86.8766 159.272 87.2286 159.064C87.5806 158.848 87.8566 158.56 88.0566 158.2L88.7166 158.584C88.4686 159.064 88.1046 159.444 87.6246 159.724C87.1446 160.004 86.6126 160.144 86.0286 160.144ZM93.0337 154.768H91.3057V158.404C91.3057 158.732 91.3697 158.968 91.4977 159.112C91.6257 159.248 91.8177 159.32 92.0737 159.328C92.3297 159.328 92.6497 159.32 93.0337 159.304V160C92.1937 160.128 91.5617 160.068 91.1377 159.82C90.7217 159.572 90.5137 159.1 90.5137 158.404V154.768H89.2537V154H90.5137V152.56L91.3057 152.32V154H93.0337V154.768ZM102.514 154H103.306V160H102.514V158.824C101.962 159.704 101.154 160.144 100.09 160.144C99.2337 160.144 98.5017 159.84 97.8937 159.232C97.2937 158.624 96.9937 157.88 96.9937 157C96.9937 156.12 97.2937 155.376 97.8937 154.768C98.5017 154.16 99.2337 153.856 100.09 153.856C101.154 153.856 101.962 154.296 102.514 155.176V154ZM98.4697 158.692C98.9257 159.148 99.4857 159.376 100.15 159.376C100.814 159.376 101.374 159.148 101.83 158.692C102.286 158.228 102.514 157.664 102.514 157C102.514 156.336 102.286 155.776 101.83 155.32C101.374 154.856 100.814 154.624 100.15 154.624C99.4857 154.624 98.9257 154.856 98.4697 155.32C98.0137 155.776 97.7857 156.336 97.7857 157C97.7857 157.664 98.0137 158.228 98.4697 158.692ZM110.791 153.856C111.519 153.856 112.091 154.08 112.507 154.528C112.931 154.968 113.143 155.564 113.143 156.316V160H112.351V156.316C112.351 155.78 112.207 155.364 111.919 155.068C111.639 154.772 111.239 154.624 110.719 154.624C110.143 154.624 109.675 154.808 109.315 155.176C108.955 155.536 108.775 156.096 108.775 156.856V160H107.983V154H108.775V154.936C109.223 154.216 109.895 153.856 110.791 153.856ZM117.446 153.856C118.334 153.856 119.05 154.172 119.594 154.804C120.146 155.428 120.422 156.168 120.422 157.024C120.422 157.112 120.414 157.236 120.398 157.396H115.13C115.21 158.004 115.466 158.488 115.898 158.848C116.338 159.2 116.878 159.376 117.518 159.376C117.974 159.376 118.366 159.284 118.694 159.1C119.03 158.908 119.282 158.66 119.45 158.356L120.146 158.764C119.882 159.188 119.522 159.524 119.066 159.772C118.61 160.02 118.09 160.144 117.506 160.144C116.562 160.144 115.794 159.848 115.202 159.256C114.61 158.664 114.314 157.912 114.314 157C114.314 156.104 114.606 155.356 115.19 154.756C115.774 154.156 116.526 153.856 117.446 153.856ZM117.446 154.624C116.822 154.624 116.298 154.812 115.874 155.188C115.458 155.556 115.21 156.036 115.13 156.628H119.606C119.526 155.996 119.282 155.504 118.874 155.152C118.466 154.8 117.99 154.624 117.446 154.624ZM124.686 154.768H122.958V158.404C122.958 158.732 123.022 158.968 123.15 159.112C123.278 159.248 123.47 159.32 123.726 159.328C123.982 159.328 124.302 159.32 124.686 159.304V160C123.846 160.128 123.214 160.068 122.79 159.82C122.374 159.572 122.166 159.1 122.166 158.404V154.768H120.906V154H122.166V152.56L122.958 152.32V154H124.686V154.768ZM133.23 154H134.046L132.198 160H131.334L129.786 155.164L128.238 160H127.374L125.526 154H126.342L127.818 158.98L129.39 154H130.182L131.754 158.98L133.23 154ZM140.034 159.244C139.426 159.844 138.682 160.144 137.802 160.144C136.922 160.144 136.174 159.844 135.558 159.244C134.95 158.636 134.646 157.888 134.646 157C134.646 156.112 134.95 155.368 135.558 154.768C136.174 154.16 136.922 153.856 137.802 153.856C138.682 153.856 139.426 154.16 140.034 154.768C140.65 155.368 140.958 156.112 140.958 157C140.958 157.888 140.65 158.636 140.034 159.244ZM136.122 158.692C136.578 159.148 137.138 159.376 137.802 159.376C138.466 159.376 139.026 159.148 139.482 158.692C139.938 158.228 140.166 157.664 140.166 157C140.166 156.336 139.938 155.776 139.482 155.32C139.026 154.856 138.466 154.624 137.802 154.624C137.138 154.624 136.578 154.856 136.122 155.32C135.666 155.776 135.438 156.336 135.438 157C135.438 157.664 135.666 158.228 136.122 158.692ZM143.075 154.996C143.443 154.268 144.075 153.904 144.971 153.904V154.672C144.427 154.672 143.975 154.832 143.615 155.152C143.255 155.472 143.075 155.976 143.075 156.664V160H142.283V154H143.075V154.996ZM150.905 160H149.849L146.849 157.108V160H146.057V151.6H146.849V156.652L149.705 154H150.785L147.689 156.88L150.905 160ZM152.994 159.928C152.866 160.056 152.71 160.12 152.526 160.12C152.342 160.12 152.186 160.056 152.058 159.928C151.93 159.8 151.866 159.644 151.866 159.46C151.866 159.276 151.93 159.12 152.058 158.992C152.186 158.864 152.342 158.8 152.526 158.8C152.71 158.8 152.866 158.864 152.994 158.992C153.122 159.12 153.186 159.276 153.186 159.46C153.186 159.644 153.122 159.8 152.994 159.928ZM165.552 151.6V160H164.712V152.872L161.772 157.792H161.652L158.712 152.872V160H157.872V151.6H158.916L161.712 156.28L164.508 151.6H165.552ZM172.51 154H173.302V160H172.51V158.824C171.958 159.704 171.15 160.144 170.086 160.144C169.23 160.144 168.498 159.84 167.89 159.232C167.29 158.624 166.99 157.88 166.99 157C166.99 156.12 167.29 155.376 167.89 154.768C168.498 154.16 169.23 153.856 170.086 153.856C171.15 153.856 171.958 154.296 172.51 155.176V154ZM168.466 158.692C168.922 159.148 169.482 159.376 170.146 159.376C170.81 159.376 171.37 159.148 171.826 158.692C172.282 158.228 172.51 157.664 172.51 157C172.51 156.336 172.282 155.776 171.826 155.32C171.37 154.856 170.81 154.624 170.146 154.624C169.482 154.624 168.922 154.856 168.466 155.32C168.01 155.776 167.782 156.336 167.782 157C167.782 157.664 168.01 158.228 168.466 158.692ZM179.827 160H178.771L175.771 157.108V160H174.979V151.6H175.771V156.652L178.627 154H179.707L176.611 156.88L179.827 160ZM183.083 153.856C183.971 153.856 184.687 154.172 185.231 154.804C185.783 155.428 186.059 156.168 186.059 157.024C186.059 157.112 186.051 157.236 186.035 157.396H180.767C180.847 158.004 181.103 158.488 181.535 158.848C181.975 159.2 182.515 159.376 183.155 159.376C183.611 159.376 184.003 159.284 184.331 159.1C184.667 158.908 184.919 158.66 185.087 158.356L185.783 158.764C185.519 159.188 185.159 159.524 184.703 159.772C184.247 160.02 183.727 160.144 183.143 160.144C182.199 160.144 181.431 159.848 180.839 159.256C180.247 158.664 179.951 157.912 179.951 157C179.951 156.104 180.243 155.356 180.827 154.756C181.411 154.156 182.163 153.856 183.083 153.856ZM183.083 154.624C182.459 154.624 181.935 154.812 181.511 155.188C181.095 155.556 180.847 156.036 180.767 156.628H185.243C185.163 155.996 184.919 155.504 184.511 155.152C184.103 154.8 183.627 154.624 183.083 154.624ZM190.943 155.572C190.943 155.844 191.063 156.06 191.303 156.22C191.543 156.38 191.835 156.504 192.179 156.592C192.523 156.68 192.867 156.78 193.211 156.892C193.555 156.996 193.847 157.176 194.087 157.432C194.327 157.68 194.447 158.008 194.447 158.416C194.447 158.928 194.243 159.344 193.835 159.664C193.435 159.984 192.915 160.144 192.275 160.144C191.699 160.144 191.207 160.016 190.799 159.76C190.399 159.504 190.119 159.172 189.959 158.764L190.631 158.368C190.743 158.68 190.943 158.928 191.231 159.112C191.527 159.288 191.875 159.376 192.275 159.376C192.667 159.376 192.995 159.3 193.259 159.148C193.523 158.988 193.655 158.744 193.655 158.416C193.655 158.144 193.535 157.928 193.295 157.768C193.055 157.608 192.763 157.484 192.419 157.396C192.075 157.308 191.731 157.212 191.387 157.108C191.043 156.996 190.751 156.816 190.511 156.568C190.271 156.312 190.151 155.98 190.151 155.572C190.151 155.084 190.343 154.676 190.727 154.348C191.119 154.02 191.611 153.856 192.203 153.856C192.691 153.856 193.119 153.968 193.487 154.192C193.855 154.408 194.127 154.704 194.303 155.08L193.643 155.464C193.411 154.904 192.931 154.624 192.203 154.624C191.859 154.624 191.563 154.708 191.315 154.876C191.067 155.036 190.943 155.268 190.943 155.572ZM199.933 154H200.725V160H199.933V159.064C199.485 159.784 198.813 160.144 197.917 160.144C197.189 160.144 196.613 159.924 196.189 159.484C195.773 159.036 195.565 158.436 195.565 157.684V154H196.357V157.684C196.357 158.22 196.497 158.636 196.777 158.932C197.065 159.228 197.469 159.376 197.989 159.376C198.565 159.376 199.033 159.196 199.393 158.836C199.753 158.468 199.933 157.904 199.933 157.144V154ZM203.193 154.996C203.561 154.268 204.193 153.904 205.089 153.904V154.672C204.545 154.672 204.093 154.832 203.733 155.152C203.373 155.472 203.193 155.976 203.193 156.664V160H202.401V154H203.193V154.996ZM208.583 153.856C209.471 153.856 210.187 154.172 210.731 154.804C211.283 155.428 211.559 156.168 211.559 157.024C211.559 157.112 211.551 157.236 211.535 157.396H206.267C206.347 158.004 206.603 158.488 207.035 158.848C207.475 159.2 208.015 159.376 208.655 159.376C209.111 159.376 209.503 159.284 209.831 159.1C210.167 158.908 210.419 158.66 210.587 158.356L211.283 158.764C211.019 159.188 210.659 159.524 210.203 159.772C209.747 160.02 209.227 160.144 208.643 160.144C207.699 160.144 206.931 159.848 206.339 159.256C205.747 158.664 205.451 157.912 205.451 157C205.451 156.104 205.743 155.356 206.327 154.756C206.911 154.156 207.663 153.856 208.583 153.856ZM208.583 154.624C207.959 154.624 207.435 154.812 207.011 155.188C206.595 155.556 206.347 156.036 206.267 156.628H210.743C210.663 155.996 210.419 155.504 210.011 155.152C209.603 154.8 209.127 154.624 208.583 154.624ZM20.8058 180L18.3698 171.6H19.2578L21.3338 178.86L23.5178 171.6H24.5018L26.6858 178.86L28.7618 171.6H29.6498L27.2138 180H26.2058L24.0098 172.704L21.8138 180H20.8058ZM31.4194 172.56C31.3074 172.672 31.1714 172.728 31.0114 172.728C30.8514 172.728 30.7154 172.672 30.6034 172.56C30.4914 172.448 30.4354 172.312 30.4354 172.152C30.4354 171.992 30.4914 171.856 30.6034 171.744C30.7154 171.632 30.8514 171.576 31.0114 171.576C31.1714 171.576 31.3074 171.632 31.4194 171.744C31.5314 171.856 31.5874 171.992 31.5874 172.152C31.5874 172.312 31.5314 172.448 31.4194 172.56ZM30.6154 180V174H31.4074V180H30.6154ZM33.208 176.676V175.908H37.528V176.676H33.208ZM44.1824 172.392H40.2824V175.488H44.0024V176.28H40.2824V180H39.4424V171.6H44.1824V172.392ZM46.3022 172.56C46.1902 172.672 46.0542 172.728 45.8942 172.728C45.7342 172.728 45.5982 172.672 45.4862 172.56C45.3742 172.448 45.3182 172.312 45.3182 172.152C45.3182 171.992 45.3742 171.856 45.4862 171.744C45.5982 171.632 45.7342 171.576 45.8942 171.576C46.0542 171.576 46.1902 171.632 46.3022 171.744C46.4142 171.856 46.4702 171.992 46.4702 172.152C46.4702 172.312 46.4142 172.448 46.3022 172.56ZM45.4982 180V174H46.2902V180H45.4982ZM55.9989 179.244C55.3909 179.844 54.6469 180.144 53.7669 180.144C52.8869 180.144 52.1389 179.844 51.5229 179.244C50.9149 178.636 50.6109 177.888 50.6109 177C50.6109 176.112 50.9149 175.368 51.5229 174.768C52.1389 174.16 52.8869 173.856 53.7669 173.856C54.6469 173.856 55.3909 174.16 55.9989 174.768C56.6149 175.368 56.9229 176.112 56.9229 177C56.9229 177.888 56.6149 178.636 55.9989 179.244ZM52.0869 178.692C52.5429 179.148 53.1029 179.376 53.7669 179.376C54.4309 179.376 54.9909 179.148 55.4469 178.692C55.9029 178.228 56.1309 177.664 56.1309 177C56.1309 176.336 55.9029 175.776 55.4469 175.32C54.9909 174.856 54.4309 174.624 53.7669 174.624C53.1029 174.624 52.5429 174.856 52.0869 175.32C51.6309 175.776 51.4029 176.336 51.4029 177C51.4029 177.664 51.6309 178.228 52.0869 178.692ZM59.0402 174.996C59.4082 174.268 60.0402 173.904 60.9362 173.904V174.672C60.3922 174.672 59.9402 174.832 59.5802 175.152C59.2202 175.472 59.0402 175.976 59.0402 176.664V180H58.2482V174H59.0402V174.996ZM71.4176 173.856C72.0896 173.856 72.6296 174.072 73.0376 174.504C73.4536 174.936 73.6616 175.52 73.6616 176.256V180H72.8696V176.256C72.8696 175.736 72.7336 175.336 72.4616 175.056C72.1976 174.768 71.8456 174.624 71.4056 174.624C70.9096 174.624 70.5056 174.792 70.1936 175.128C69.8896 175.456 69.7376 175.972 69.7376 176.676V180H68.9456V176.256C68.9456 175.728 68.8176 175.324 68.5616 175.044C68.3136 174.764 67.9736 174.624 67.5416 174.624C67.0616 174.624 66.6536 174.792 66.3176 175.128C65.9816 175.464 65.8136 175.98 65.8136 176.676V180H65.0216V174H65.8136V174.876C66.2456 174.196 66.8576 173.856 67.6496 173.856C68.5136 173.856 69.1216 174.22 69.4736 174.948C69.9056 174.22 70.5536 173.856 71.4176 173.856ZM80.2215 179.244C79.6135 179.844 78.8695 180.144 77.9895 180.144C77.1095 180.144 76.3615 179.844 75.7455 179.244C75.1375 178.636 74.8335 177.888 74.8335 177C74.8335 176.112 75.1375 175.368 75.7455 174.768C76.3615 174.16 77.1095 173.856 77.9895 173.856C78.8695 173.856 79.6135 174.16 80.2215 174.768C80.8375 175.368 81.1455 176.112 81.1455 177C81.1455 177.888 80.8375 178.636 80.2215 179.244ZM76.3095 178.692C76.7655 179.148 77.3255 179.376 77.9895 179.376C78.6535 179.376 79.2135 179.148 79.6695 178.692C80.1255 178.228 80.3535 177.664 80.3535 177C80.3535 176.336 80.1255 175.776 79.6695 175.32C79.2135 174.856 78.6535 174.624 77.9895 174.624C77.3255 174.624 76.7655 174.856 76.3095 175.32C75.8535 175.776 75.6255 176.336 75.6255 177C75.6255 177.664 75.8535 178.228 76.3095 178.692ZM85.6869 173.856C86.5429 173.856 87.2709 174.16 87.8709 174.768C88.4789 175.376 88.7829 176.12 88.7829 177C88.7829 177.88 88.4789 178.624 87.8709 179.232C87.2709 179.84 86.5429 180.144 85.6869 180.144C84.6229 180.144 83.8149 179.704 83.2629 178.824V180H82.4709V171.6H83.2629V175.176C83.8149 174.296 84.6229 173.856 85.6869 173.856ZM83.9469 178.692C84.4029 179.148 84.9629 179.376 85.6269 179.376C86.2909 179.376 86.8509 179.148 87.3069 178.692C87.7629 178.228 87.9909 177.664 87.9909 177C87.9909 176.336 87.7629 175.776 87.3069 175.32C86.8509 174.856 86.2909 174.624 85.6269 174.624C84.9629 174.624 84.4029 174.856 83.9469 175.32C83.4909 175.776 83.2629 176.336 83.2629 177C83.2629 177.664 83.4909 178.228 83.9469 178.692ZM90.9038 172.56C90.7918 172.672 90.6558 172.728 90.4958 172.728C90.3358 172.728 90.1998 172.672 90.0878 172.56C89.9758 172.448 89.9198 172.312 89.9198 172.152C89.9198 171.992 89.9758 171.856 90.0878 171.744C90.1998 171.632 90.3358 171.576 90.4958 171.576C90.6558 171.576 90.7918 171.632 90.9038 171.744C91.0158 171.856 91.0718 171.992 91.0718 172.152C91.0718 172.312 91.0158 172.448 90.9038 172.56ZM90.0998 180V174H90.8918V180H90.0998ZM92.5724 180V171.24H93.3644V180H92.5724ZM97.8171 173.856C98.7051 173.856 99.4211 174.172 99.9651 174.804C100.517 175.428 100.793 176.168 100.793 177.024C100.793 177.112 100.785 177.236 100.769 177.396H95.5011C95.5811 178.004 95.8371 178.488 96.2691 178.848C96.7091 179.2 97.2491 179.376 97.8891 179.376C98.3451 179.376 98.7371 179.284 99.0651 179.1C99.4011 178.908 99.6531 178.66 99.8211 178.356L100.517 178.764C100.253 179.188 99.8931 179.524 99.4371 179.772C98.9811 180.02 98.4611 180.144 97.8771 180.144C96.9331 180.144 96.1651 179.848 95.5731 179.256C94.9811 178.664 94.6851 177.912 94.6851 177C94.6851 176.104 94.9771 175.356 95.5611 174.756C96.1451 174.156 96.8971 173.856 97.8171 173.856ZM97.8171 174.624C97.1931 174.624 96.6691 174.812 96.2451 175.188C95.8291 175.556 95.5811 176.036 95.5011 176.628H99.9771C99.8971 175.996 99.6531 175.504 99.2451 175.152C98.8371 174.8 98.3611 174.624 97.8171 174.624ZM110.213 171.6H111.005V180H110.213V178.824C109.661 179.704 108.853 180.144 107.789 180.144C106.933 180.144 106.201 179.84 105.593 179.232C104.993 178.624 104.693 177.88 104.693 177C104.693 176.12 104.993 175.376 105.593 174.768C106.201 174.16 106.933 173.856 107.789 173.856C108.853 173.856 109.661 174.296 110.213 175.176V171.6ZM106.169 178.692C106.625 179.148 107.185 179.376 107.849 179.376C108.513 179.376 109.073 179.148 109.529 178.692C109.985 178.228 110.213 177.664 110.213 177C110.213 176.336 109.985 175.776 109.529 175.32C109.073 174.856 108.513 174.624 107.849 174.624C107.185 174.624 106.625 174.856 106.169 175.32C105.713 175.776 105.485 176.336 105.485 177C105.485 177.664 105.713 178.228 106.169 178.692ZM117.842 174H118.634V180H117.842V178.824C117.29 179.704 116.482 180.144 115.418 180.144C114.562 180.144 113.83 179.84 113.222 179.232C112.622 178.624 112.322 177.88 112.322 177C112.322 176.12 112.622 175.376 113.222 174.768C113.83 174.16 114.562 173.856 115.418 173.856C116.482 173.856 117.29 174.296 117.842 175.176V174ZM113.798 178.692C114.254 179.148 114.814 179.376 115.478 179.376C116.142 179.376 116.702 179.148 117.158 178.692C117.614 178.228 117.842 177.664 117.842 177C117.842 176.336 117.614 175.776 117.158 175.32C116.702 174.856 116.142 174.624 115.478 174.624C114.814 174.624 114.254 174.856 113.798 175.32C113.342 175.776 113.114 176.336 113.114 177C113.114 177.664 113.342 178.228 113.798 178.692ZM123.491 174.768H121.763V178.404C121.763 178.732 121.827 178.968 121.955 179.112C122.083 179.248 122.275 179.32 122.531 179.328C122.787 179.328 123.107 179.32 123.491 179.304V180C122.651 180.128 122.019 180.068 121.595 179.82C121.179 179.572 120.971 179.1 120.971 178.404V174.768H119.711V174H120.971V172.56L121.763 172.32V174H123.491V174.768ZM129.607 174H130.399V180H129.607V178.824C129.055 179.704 128.247 180.144 127.183 180.144C126.327 180.144 125.595 179.84 124.987 179.232C124.387 178.624 124.087 177.88 124.087 177C124.087 176.12 124.387 175.376 124.987 174.768C125.595 174.16 126.327 173.856 127.183 173.856C128.247 173.856 129.055 174.296 129.607 175.176V174ZM125.563 178.692C126.019 179.148 126.579 179.376 127.243 179.376C127.907 179.376 128.467 179.148 128.923 178.692C129.379 178.228 129.607 177.664 129.607 177C129.607 176.336 129.379 175.776 128.923 175.32C128.467 174.856 127.907 174.624 127.243 174.624C126.579 174.624 126.019 174.856 125.563 175.32C125.107 175.776 124.879 176.336 124.879 177C124.879 177.664 125.107 178.228 125.563 178.692ZM135.88 172.56C135.768 172.672 135.632 172.728 135.472 172.728C135.312 172.728 135.176 172.672 135.064 172.56C134.952 172.448 134.896 172.312 134.896 172.152C134.896 171.992 134.952 171.856 135.064 171.744C135.176 171.632 135.312 171.576 135.472 171.576C135.632 171.576 135.768 171.632 135.88 171.744C135.992 171.856 136.048 171.992 136.048 172.152C136.048 172.312 135.992 172.448 135.88 172.56ZM135.076 180V174H135.868V180H135.076ZM138.173 175.572C138.173 175.844 138.293 176.06 138.533 176.22C138.773 176.38 139.065 176.504 139.409 176.592C139.753 176.68 140.097 176.78 140.441 176.892C140.785 176.996 141.077 177.176 141.317 177.432C141.557 177.68 141.677 178.008 141.677 178.416C141.677 178.928 141.473 179.344 141.065 179.664C140.665 179.984 140.145 180.144 139.505 180.144C138.929 180.144 138.437 180.016 138.029 179.76C137.629 179.504 137.349 179.172 137.189 178.764L137.861 178.368C137.973 178.68 138.173 178.928 138.461 179.112C138.757 179.288 139.105 179.376 139.505 179.376C139.897 179.376 140.225 179.3 140.489 179.148C140.753 178.988 140.885 178.744 140.885 178.416C140.885 178.144 140.765 177.928 140.525 177.768C140.285 177.608 139.993 177.484 139.649 177.396C139.305 177.308 138.961 177.212 138.617 177.108C138.273 176.996 137.981 176.816 137.741 176.568C137.501 176.312 137.381 175.98 137.381 175.572C137.381 175.084 137.573 174.676 137.957 174.348C138.349 174.02 138.841 173.856 139.433 173.856C139.921 173.856 140.349 173.968 140.717 174.192C141.085 174.408 141.357 174.704 141.533 175.08L140.873 175.464C140.641 174.904 140.161 174.624 139.433 174.624C139.089 174.624 138.793 174.708 138.545 174.876C138.297 175.036 138.173 175.268 138.173 175.572ZM148.77 173.856C149.658 173.856 150.374 174.172 150.918 174.804C151.47 175.428 151.746 176.168 151.746 177.024C151.746 177.112 151.738 177.236 151.722 177.396H146.454C146.534 178.004 146.79 178.488 147.222 178.848C147.662 179.2 148.202 179.376 148.842 179.376C149.298 179.376 149.69 179.284 150.018 179.1C150.354 178.908 150.606 178.66 150.774 178.356L151.47 178.764C151.206 179.188 150.846 179.524 150.39 179.772C149.934 180.02 149.414 180.144 148.83 180.144C147.886 180.144 147.118 179.848 146.526 179.256C145.934 178.664 145.638 177.912 145.638 177C145.638 176.104 145.93 175.356 146.514 174.756C147.098 174.156 147.85 173.856 148.77 173.856ZM148.77 174.624C148.146 174.624 147.622 174.812 147.198 175.188C146.782 175.556 146.534 176.036 146.454 176.628H150.93C150.85 175.996 150.606 175.504 150.198 175.152C149.79 174.8 149.314 174.624 148.77 174.624ZM155.814 173.856C156.542 173.856 157.114 174.08 157.53 174.528C157.954 174.968 158.166 175.564 158.166 176.316V180H157.374V176.316C157.374 175.78 157.23 175.364 156.942 175.068C156.662 174.772 156.262 174.624 155.742 174.624C155.166 174.624 154.698 174.808 154.338 175.176C153.978 175.536 153.798 176.096 153.798 176.856V180H153.006V174H153.798V174.936C154.246 174.216 154.918 173.856 155.814 173.856ZM164.857 174H165.649V180H164.857V178.824C164.305 179.704 163.497 180.144 162.433 180.144C161.577 180.144 160.845 179.84 160.237 179.232C159.637 178.624 159.337 177.88 159.337 177C159.337 176.12 159.637 175.376 160.237 174.768C160.845 174.16 161.577 173.856 162.433 173.856C163.497 173.856 164.305 174.296 164.857 175.176V174ZM160.813 178.692C161.269 179.148 161.829 179.376 162.493 179.376C163.157 179.376 163.717 179.148 164.173 178.692C164.629 178.228 164.857 177.664 164.857 177C164.857 176.336 164.629 175.776 164.173 175.32C163.717 174.856 163.157 174.624 162.493 174.624C161.829 174.624 161.269 174.856 160.813 175.32C160.357 175.776 160.129 176.336 160.129 177C160.129 177.664 160.357 178.228 160.813 178.692ZM170.542 173.856C171.398 173.856 172.126 174.16 172.726 174.768C173.334 175.376 173.638 176.12 173.638 177C173.638 177.88 173.334 178.624 172.726 179.232C172.126 179.84 171.398 180.144 170.542 180.144C169.478 180.144 168.67 179.704 168.118 178.824V180H167.326V171.6H168.118V175.176C168.67 174.296 169.478 173.856 170.542 173.856ZM168.802 178.692C169.258 179.148 169.818 179.376 170.482 179.376C171.146 179.376 171.706 179.148 172.162 178.692C172.618 178.228 172.846 177.664 172.846 177C172.846 176.336 172.618 175.776 172.162 175.32C171.706 174.856 171.146 174.624 170.482 174.624C169.818 174.624 169.258 174.856 168.802 175.32C168.346 175.776 168.118 176.336 168.118 177C168.118 177.664 168.346 178.228 168.802 178.692ZM174.955 180V171.24H175.747V180H174.955ZM180.2 173.856C181.088 173.856 181.804 174.172 182.348 174.804C182.9 175.428 183.176 176.168 183.176 177.024C183.176 177.112 183.168 177.236 183.152 177.396H177.884C177.964 178.004 178.22 178.488 178.652 178.848C179.092 179.2 179.632 179.376 180.272 179.376C180.728 179.376 181.12 179.284 181.448 179.1C181.784 178.908 182.036 178.66 182.204 178.356L182.9 178.764C182.636 179.188 182.276 179.524 181.82 179.772C181.364 180.02 180.844 180.144 180.26 180.144C179.316 180.144 178.548 179.848 177.956 179.256C177.364 178.664 177.068 177.912 177.068 177C177.068 176.104 177.36 175.356 177.944 174.756C178.528 174.156 179.28 173.856 180.2 173.856ZM180.2 174.624C179.576 174.624 179.052 174.812 178.628 175.188C178.212 175.556 177.964 176.036 177.884 176.628H182.36C182.28 175.996 182.036 175.504 181.628 175.152C181.22 174.8 180.744 174.624 180.2 174.624ZM189.596 171.6H190.388V180H189.596V178.824C189.044 179.704 188.236 180.144 187.172 180.144C186.316 180.144 185.584 179.84 184.976 179.232C184.376 178.624 184.076 177.88 184.076 177C184.076 176.12 184.376 175.376 184.976 174.768C185.584 174.16 186.316 173.856 187.172 173.856C188.236 173.856 189.044 174.296 189.596 175.176V171.6ZM185.552 178.692C186.008 179.148 186.568 179.376 187.232 179.376C187.896 179.376 188.456 179.148 188.912 178.692C189.368 178.228 189.596 177.664 189.596 177C189.596 176.336 189.368 175.776 188.912 175.32C188.456 174.856 187.896 174.624 187.232 174.624C186.568 174.624 186.008 174.856 185.552 175.32C185.096 175.776 184.868 176.336 184.868 177C184.868 177.664 185.096 178.228 185.552 178.692ZM193.073 179.928C192.945 180.056 192.789 180.12 192.605 180.12C192.421 180.12 192.265 180.056 192.137 179.928C192.009 179.8 191.945 179.644 191.945 179.46C191.945 179.276 192.009 179.12 192.137 178.992C192.265 178.864 192.421 178.8 192.605 178.8C192.789 178.8 192.945 178.864 193.073 178.992C193.201 179.12 193.265 179.276 193.265 179.46C193.265 179.644 193.201 179.8 193.073 179.928Z" fill="#333333"/>
<defs>
<linearGradient id="paint0_linear_1871_10818" x1="84.6499" y1="44.2393" x2="84.6499" y2="61.5343" gradientUnits="userSpaceOnUse">
<stop stop-color="#0AC00A"/>
<stop offset="1" stop-color="#006400"/>
</linearGradient>
<linearGradient id="paint1_linear_1871_10818" x1="122.602" y1="40.543" x2="122.602" y2="61.5324" gradientUnits="userSpaceOnUse">
<stop stop-color="#0AC00A"/>
<stop offset="1" stop-color="#006400"/>
</linearGradient>
<linearGradient id="paint2_linear_1871_10818" x1="71.8893" y1="28.8223" x2="71.8893" y2="47.8862" gradientUnits="userSpaceOnUse">
<stop stop-color="#0AC00A"/>
<stop offset="1" stop-color="#006400"/>
</linearGradient>
<linearGradient id="paint3_linear_1871_10818" x1="122.696" y1="21.623" x2="122.696" y2="47.8863" gradientUnits="userSpaceOnUse">
<stop stop-color="#0AC00A"/>
<stop offset="1" stop-color="#006400"/>
</linearGradient>
<linearGradient id="paint4_linear_1871_10818" x1="59.2977" y1="13.6338" x2="59.2977" y2="34.4531" gradientUnits="userSpaceOnUse">
<stop stop-color="#0AC00A"/>
<stop offset="1" stop-color="#006400"/>
</linearGradient>
<linearGradient id="paint5_linear_1871_10818" x1="123.26" y1="2.91113" x2="123.26" y2="34.4524" gradientUnits="userSpaceOnUse">
<stop stop-color="#0AC00A"/>
<stop offset="1" stop-color="#006400"/>
</linearGradient>
<linearGradient id="paint6_linear_1871_10818" x1="98.4053" y1="60.2959" x2="98.4053" y2="75.5195" gradientUnits="userSpaceOnUse">
<stop stop-color="#0AC00A"/>
<stop offset="1" stop-color="#006400"/>
</linearGradient>
<linearGradient id="paint7_linear_1871_10818" x1="106.499" y1="78.7031" x2="106.499" y2="93.0001" gradientUnits="userSpaceOnUse">
<stop stop-color="#0AC00A"/>
<stop offset="1" stop-color="#006400"/>
</linearGradient>
<linearGradient id="paint8_linear_1871_10818" x1="66.8088" y1="2.9526" x2="127.024" y2="84.0669" gradientUnits="userSpaceOnUse">
<stop stop-color="#0AC00A"/>
<stop offset="1" stop-color="#006400"/>
</linearGradient>
<linearGradient id="paint9_linear_1871_10818" x1="106" y1="119" x2="106" y2="139" gradientUnits="userSpaceOnUse">
<stop stop-color="#0AC00A"/>
<stop offset="1" stop-color="#006400"/>
</linearGradient>
<clipPath id="clip0_1871_10818">
<rect width="119" height="93" fill="white" transform="translate(47)"/>
</clipPath>
</defs>
</svg>
