<svg width="17" height="16" viewBox="0 0 17 16" fill="none" xmlns="http://www.w3.org/2000/svg">
<path d="M11.8335 14H5.16683C2.50016 14 1.8335 13.3333 1.8335 10.6667V5.33333C1.8335 2.66667 2.50016 2 5.16683 2H11.8335C14.5002 2 15.1668 2.66667 15.1668 5.33333V10.6667C15.1668 13.3333 14.5002 14 11.8335 14Z" stroke="#737373" stroke-linecap="round" stroke-linejoin="round"/>
<path d="M8.83333 8.33268C9.98393 8.33268 10.9167 7.39994 10.9167 6.24935C10.9167 5.09876 9.98393 4.16602 8.83333 4.16602C7.68274 4.16602 6.75 5.09876 6.75 6.24935C6.75 7.39994 7.68274 8.33268 8.83333 8.33268Z" stroke="#737373" stroke-linecap="round" stroke-linejoin="round"/>
<path d="M5.25439 12.4997C5.25439 10.8872 6.85856 9.58301 8.83356 9.58301C9.23356 9.58301 9.62106 9.63717 9.98356 9.73717" stroke="#737373" stroke-linecap="round" stroke-linejoin="round"/>
<path d="M13.0003 10.8327C13.0003 10.966 12.9837 11.0952 12.9503 11.2202C12.9128 11.3868 12.8462 11.5493 12.7587 11.691C12.4712 12.1743 11.942 12.4993 11.3337 12.4993C10.9045 12.4993 10.517 12.3368 10.2253 12.0702C10.1003 11.9618 9.99199 11.8327 9.90865 11.691C9.75449 11.441 9.66699 11.1452 9.66699 10.8327C9.66699 10.3827 9.84616 9.97019 10.1378 9.67019C10.442 9.35769 10.867 9.16602 11.3337 9.16602C11.8253 9.16602 12.2712 9.37852 12.5712 9.72019C12.8378 10.016 13.0003 10.4077 13.0003 10.8327Z" stroke="#737373" stroke-miterlimit="10" stroke-linecap="round" stroke-linejoin="round"/>
<path d="M11.9545 10.8252H10.7129" stroke="#737373" stroke-width="0.5" stroke-miterlimit="10" stroke-linecap="round" stroke-linejoin="round"/>
<path d="M11.3335 10.2168V11.4626" stroke="#737373" stroke-width="0.5" stroke-miterlimit="10" stroke-linecap="round" stroke-linejoin="round"/>
</svg>
