<svg width="22" height="22" viewBox="0 0 22 22" fill="none" xmlns="http://www.w3.org/2000/svg">
<path d="M18.901 7.74591C17.9385 3.51091 14.2444 1.60425 10.9994 1.60425C10.9994 1.60425 10.9994 1.60425 10.9902 1.60425C7.75436 1.60425 4.05102 3.50175 3.08852 7.73675C2.01602 12.4667 4.91269 16.4726 7.53436 18.9934C8.50602 19.9284 9.75269 20.3959 10.9994 20.3959C12.246 20.3959 13.4927 19.9284 14.4552 18.9934C17.0769 16.4726 19.9735 12.4759 18.901 7.74591ZM10.9994 12.3384C9.40436 12.3384 8.11186 11.0459 8.11186 9.45091C8.11186 7.85591 9.40436 6.56341 10.9994 6.56341C12.5944 6.56341 13.8869 7.85591 13.8869 9.45091C13.8869 11.0459 12.5944 12.3384 10.9994 12.3384Z" fill="black"/>
</svg>
