<svg width="84" height="84" viewBox="0 0 84 84" fill="none" xmlns="http://www.w3.org/2000/svg">
<path d="M51.8667 27.8672C49.2935 27.8672 47.2 25.7737 47.2 23.2005V7.86719H23.3333C19.2897 7.86719 16 11.1569 16 15.2005V68.8005C16 72.8441 19.2897 76.1339 23.3333 76.1339H60.6667C64.7103 76.1339 68 72.8441 68 68.8005V27.8672H51.8667ZM26.9333 55.8672H36.6293C37.7339 55.8672 38.6293 56.7627 38.6293 57.8672C38.6293 58.9717 37.7339 59.8672 36.6293 59.8672H26.9333C25.8288 59.8672 24.9333 58.9717 24.9333 57.8672C24.9333 56.7627 25.8288 55.8672 26.9333 55.8672ZM24.9333 47.2005C24.9333 46.096 25.8288 45.2005 26.9333 45.2005H56.2667C57.3712 45.2005 58.2667 46.096 58.2667 47.2005C58.2667 48.3051 57.3712 49.2005 56.2667 49.2005H26.9333C25.8288 49.2005 24.9333 48.3051 24.9333 47.2005ZM56.2667 34.5339C57.3712 34.5339 58.2667 35.4293 58.2667 36.5339C58.2667 37.6384 57.3712 38.5339 56.2667 38.5339H26.9333C25.8288 38.5339 24.9333 37.6384 24.9333 36.5339C24.9333 35.4293 25.8288 34.5339 26.9333 34.5339H56.2667Z" fill="#FAE390"/>
<path d="M51.2002 23.2011C51.2002 23.5687 51.4993 23.8678 51.8669 23.8678H67.1087C66.7411 23.1872 66.2679 22.5692 65.7067 22.0369L52.8503 9.87393C52.3573 9.40742 51.802 9.01144 51.2003 8.69727V23.2011H51.2002Z" fill="#FAE390"/>
</svg>
