<svg width="84" height="84" viewBox="0 0 84 84" fill="none" xmlns="http://www.w3.org/2000/svg">
<path d="M42.0001 9C23.8038 9 9 23.8037 9 42C9 60.1963 23.8038 75 42.0001 75C60.1963 75 75 60.1963 75 42C75 23.8037 60.1963 9 42.0001 9ZM39.8615 53.0001L36.8626 55.999C35.2356 57.6259 33.1001 58.4402 30.9688 58.4402C28.8525 58.4403 26.7404 57.6376 25.1336 56.0309C23.5752 54.4726 22.7211 52.3904 22.7285 50.1679C22.736 47.9493 23.6014 45.866 25.1655 44.302L32.778 36.6894C34.342 35.1254 36.4252 34.26 38.6439 34.2526L38.6726 34.2525C40.8844 34.2525 42.9553 35.106 44.5069 36.6576C45.6455 37.7962 46.4186 39.2346 46.7425 40.8173C46.9139 41.6541 46.3742 42.4715 45.5373 42.6429C44.7001 42.8151 43.883 42.2747 43.7116 41.4376C43.5096 40.4505 43.0281 39.5541 42.3192 38.8453C41.3523 37.8782 40.0577 37.3464 38.6722 37.3464H38.6542C37.258 37.351 35.948 37.8946 34.9655 38.8771L27.3531 46.4897C26.3705 47.4722 25.8269 48.7821 25.8223 50.1782C25.8177 51.5705 26.3499 52.8721 27.3212 53.8434C28.2883 54.8104 29.5828 55.3423 30.9682 55.3423H30.9864C32.3826 55.3377 33.6926 54.7941 34.675 53.8116L37.6738 50.8127C38.2779 50.2086 39.2575 50.2085 39.8615 50.8127C40.4656 51.4166 40.4656 52.3959 39.8615 53.0001ZM58.8572 39.6757L51.2954 47.2375C49.6829 48.8498 47.565 49.6561 45.4468 49.6561C43.3287 49.6561 41.2108 48.8499 39.5983 47.2375C38.4623 46.1027 37.6836 44.6601 37.3584 43.0877C37.1845 42.2514 37.7217 41.4322 38.5581 41.2584C39.3941 41.0844 40.2136 41.6215 40.3874 42.4581C40.5904 43.4402 41.0765 44.3412 41.786 45.0499C43.8045 47.0686 47.0892 47.0682 49.1077 45.0499L56.6695 37.4882C58.6882 35.4695 58.6882 32.1849 56.6695 30.1663C55.6969 29.1937 54.3967 28.6581 53.0085 28.6581C51.6204 28.6581 50.3203 29.1937 49.3477 30.1663L46.3688 33.1452C45.7646 33.7492 44.7854 33.7492 44.1812 33.1452C43.5771 32.541 43.577 31.5617 44.1812 30.9575L47.1601 27.9786C48.717 26.4217 50.7941 25.5642 53.0085 25.5642C55.2232 25.5642 57.3001 26.4217 58.8572 27.9786C62.082 31.2035 62.082 36.4507 58.8572 39.6757Z" fill="#FAE390"/>
</svg>
