<svg width="84" height="84" viewBox="0 0 84 84" fill="none" xmlns="http://www.w3.org/2000/svg">
<path d="M41.9721 17.5702H42.0279C48.0591 17.5038 57.0236 18.34 59.8958 18.9134L59.9104 18.9161C64.3223 19.7722 68.6851 23.9545 69.6434 28.2456C70.5035 32.392 70.9242 36.6951 70.9322 41.3923C70.9269 44.3854 70.7543 47.2138 70.4079 49.9414C67.5702 46.1042 64.4059 42.1595 61.2589 38.6369C59.6078 36.7999 57.155 35.9943 54.7181 35.9836C52.9554 35.9916 51.1875 36.4177 49.7182 37.3454L72.7585 60.1416C73.6 58.7121 74.2252 57.1857 74.5716 55.6222L74.5782 55.5903C75.51 51.1041 75.9679 46.4626 75.9772 41.3923C75.9692 36.334 75.5113 31.6925 74.5782 27.2023L74.5716 27.1705C73.1806 20.8884 67.2941 15.2129 60.8767 13.9653C57.3355 13.2592 48.136 12.4615 41.9987 12.5252C37.0187 12.4734 30.0319 12.9884 25.6784 13.5605L30.3026 18.1356C34.0084 17.7958 38.4814 17.5317 41.9708 17.5702H41.9721ZM15.6414 10.7294C14.6513 9.74984 13.0532 9.7578 12.0737 10.748C11.0942 11.7381 11.1021 13.3362 12.0923 14.3157L15.5034 17.691C12.4971 20.169 10.2235 23.5642 9.42575 27.1705L9.41912 27.2023C8.48736 31.6859 8.03078 36.3274 8.02148 41.4016C8.03078 46.4599 8.48736 51.1014 9.41912 55.5916L9.42575 55.6248C10.8167 61.9055 16.7019 67.581 23.1194 68.83C26.6606 69.5374 35.86 70.3365 41.9987 70.2701C42.2349 70.2727 42.4752 70.2741 42.7194 70.2741C48.8369 70.2741 57.4708 69.5096 60.8767 68.83C62.4668 68.5207 64.0223 67.9394 65.4863 67.1457L71.6781 73.2724C72.1705 73.7595 72.8116 74.0024 73.4527 74.0024C74.0938 74.0024 74.7534 73.7529 75.2459 73.2538C76.2254 72.2637 76.2174 70.6656 75.2273 69.6861L15.6414 10.7294ZM36.9338 52.8415C35.3025 50.7311 33.5744 48.6314 31.8529 46.7041C30.6411 45.3556 28.8413 44.765 27.0521 44.757C25.2629 44.765 23.4631 45.3556 22.2513 46.7041C19.6684 49.595 17.0722 52.872 14.8106 55.9938C14.6194 55.516 14.4655 55.0329 14.3579 54.5471C13.4979 50.4006 13.0771 46.0976 13.0692 41.4003C13.0771 36.6884 13.4992 32.384 14.3579 28.2442C14.9406 25.6348 16.7802 23.0718 19.1242 21.2694L24.9364 27.0205C22.7305 27.8699 21.1643 30.0082 21.1643 32.5141C21.1643 35.7646 23.8003 38.4006 27.0508 38.4006C29.5779 38.4006 31.7334 36.8079 32.567 34.5714L42.9543 44.8486C40.8254 47.5085 38.7827 50.2254 36.9338 52.8402V52.8415Z" fill="#FAE390"/>
</svg>
