<svg width="64" height="64" viewBox="0 0 64 64" fill="none" xmlns="http://www.w3.org/2000/svg">
<path d="M26.3743 19.375C11.8994 19.375 -0.00146361 29.3289 -0.00146361 41.5644C-0.00146361 46.4553 1.89563 51.4259 5.37469 55.2785L0.46181 60.8927C0.224622 61.1636 0.0706503 61.4973 0.0183661 61.8536C-0.0339182 62.2099 0.0177059 62.5737 0.167045 62.9014C0.315628 63.2295 0.555624 63.5077 0.858295 63.7029C1.16097 63.8981 1.51348 64.0019 1.87363 64.0019H28.2494C38.9368 64.0019 52.75 54.799 52.75 41.5644C52.75 29.3289 40.8492 19.375 26.3743 19.375ZM14.9989 45.0013C12.9316 45.0013 11.2489 43.3185 11.2489 41.2513C11.2489 39.1839 12.9317 37.5012 14.9989 37.5012C17.0662 37.5012 18.749 39.184 18.749 41.2513C18.7491 43.3185 17.0663 45.0013 14.9989 45.0013ZM26.3743 45.0013C24.3069 45.0013 22.6242 43.3185 22.6242 41.2513C22.6242 39.1839 24.307 37.5012 26.3743 37.5012C28.4415 37.5012 30.1244 39.184 30.1244 41.2513C30.1244 43.3185 28.4416 45.0013 26.3743 45.0013ZM37.7496 45.0013C35.6823 45.0013 33.9996 43.3185 33.9996 41.2513C33.9996 39.1839 35.6824 37.5012 37.7496 37.5012C39.8169 37.5012 41.4997 39.184 41.4997 41.2513C41.4997 43.3185 39.817 45.0013 37.7496 45.0013Z" fill="#FAE390"/>
<path d="M63.548 38.1547L59.1333 33.0038C62.2846 29.4479 64.0004 25.1117 64.0004 20.6256C64.0003 9.25261 53.065 0 39.6247 0C27.4709 0 17.1452 7.57402 15.322 17.4322C18.7132 16.2798 22.5163 15.6248 26.3743 15.6248C42.7943 15.6248 56.2848 27.0935 56.4819 41.2511H62.1253C63.727 41.2513 64.5872 39.3652 63.548 38.1547Z" fill="#FAE390"/>
</svg>
