<svg width="71" height="62" viewBox="0 0 71 62" fill="none" xmlns="http://www.w3.org/2000/svg">
<path d="M48.8997 0.638672H8.40779C4.04178 0.638672 0.490723 4.18973 0.490723 8.55574V44.039C0.490723 45.7195 2.39123 46.6668 3.73275 45.7085L15.0094 37.6629C15.9557 36.9888 17.0687 36.6319 18.231 36.6319H43.0337C47.3997 36.6319 50.9507 33.0809 50.9507 28.7149V2.68973C50.9507 1.55754 50.0319 0.638672 48.8997 0.638672ZM38.937 25.4851H15.2392C14.107 25.4851 13.1881 24.5676 13.1881 23.4341C13.1881 22.3019 14.107 21.383 15.2392 21.383H38.937C40.0692 21.383 40.9881 22.3019 40.9881 23.4341C40.9881 24.5676 40.0692 25.4851 38.937 25.4851ZM38.937 15.9136H15.2392C14.107 15.9136 13.1881 14.996 13.1881 13.8625C13.1881 12.7303 14.107 11.8114 15.2392 11.8114H38.937C40.0692 11.8114 40.9881 12.7303 40.9881 13.8625C40.9881 14.996 40.0692 15.9136 38.937 15.9136Z" fill="#FAE390"/>
<path d="M70.5 24.4634V59.9452C70.5 61.6143 68.6091 62.5798 67.258 61.6148L55.9813 53.5705C55.0351 52.8964 53.9221 52.5395 52.7598 52.5395H27.9571C23.5911 52.5395 20.04 48.9871 20.04 44.6211V40.7323H43.0337C49.6614 40.7323 55.0529 35.3408 55.0529 28.7131V16.5449H62.583C66.949 16.5449 70.5 20.0973 70.5 24.4634Z" fill="#FAE390"/>
</svg>
