<svg width="64" height="64" viewBox="0 0 64 64" fill="none" xmlns="http://www.w3.org/2000/svg">
<path d="M55.5648 18.3842L42.9898 16.5742C42.0845 16.4435 41.2249 16.0965 40.485 15.5632C39.7452 15.0299 39.1474 14.3263 38.7431 13.5131L33.117 2.22557C32.7919 1.55253 32.2795 0.985541 31.6402 0.591313C31.0009 0.197086 30.2612 -0.00797024 29.5083 0.000275064C28.7547 -0.00857259 28.0142 0.19619 27.3741 0.590443C26.7341 0.984696 26.221 1.55201 25.8954 2.22557L20.2721 13.5171C19.8678 14.3303 19.27 15.0339 18.5301 15.5672C17.7903 16.1005 16.9307 16.4474 16.0254 16.5782L3.45173 18.3882C2.7092 18.4964 2.01192 18.808 1.43849 19.2878C0.865056 19.7677 0.438264 20.3967 0.206213 21.104C-0.0258384 21.8113 -0.0539235 22.5687 0.125123 23.291C0.304169 24.0133 0.68323 24.6716 1.21958 25.1919L10.3187 33.9759C10.9733 34.6086 11.4629 35.3894 11.7453 36.2512C12.0277 37.113 12.0944 38.0299 11.9398 38.9229L9.79093 51.3337C9.66415 52.0678 9.74709 52.8224 10.0304 53.5123C10.3137 54.2021 10.786 54.7997 11.394 55.2374C12.002 55.6752 12.7215 55.9357 13.4711 55.9896C14.2207 56.0434 14.9705 55.8884 15.6359 55.5421L26.8826 49.6861C27.6919 49.2645 28.5926 49.0443 29.5069 49.0443C30.4212 49.0443 31.3219 49.2645 32.1312 49.6861L40.0203 53.7959C39.9731 53.3503 39.9493 52.9025 39.9491 52.4544C39.9415 50.0184 40.6408 47.6317 41.9639 45.5787C43.2869 43.5257 45.1778 41.8931 47.4111 40.8754L47.074 38.9282C46.9196 38.0351 46.9865 37.1181 47.2692 36.2563C47.5518 35.3945 48.0416 34.6138 48.6964 33.9812L57.7942 25.1972C58.3317 24.6772 58.7119 24.0186 58.8917 23.2959C59.0715 22.5731 59.0438 21.815 58.8118 21.107C58.5798 20.399 58.1527 19.7694 57.5787 19.2892C57.0047 18.809 56.3067 18.4974 55.5634 18.3895L55.5648 18.3842Z" fill="#FAE390"/>
<path d="M52.5088 42C50.2343 42 48.0109 42.6451 46.1197 43.8538C44.2286 45.0625 42.7546 46.7805 41.8842 48.7905C41.0138 50.8005 40.786 53.0122 41.2298 55.146C41.6735 57.2798 42.7688 59.2398 44.3771 60.7782C45.9854 62.3165 48.0345 63.3642 50.2653 63.7886C52.496 64.2131 54.8083 63.9952 56.9097 63.1627C59.011 62.3301 60.8071 60.9202 62.0707 59.1113C63.3343 57.3023 64.0088 55.1756 64.0088 53C64.0041 50.084 62.791 47.2887 60.6353 45.2268C58.4797 43.1649 55.5573 42.0045 52.5088 42ZM57.685 57.9524C57.2738 58.3441 56.7172 58.564 56.1369 58.564C55.5566 58.564 55 58.3441 54.5889 57.9524L52.5074 55.9615L50.4246 57.9524C50.2275 58.171 49.9853 58.3484 49.7132 58.4734C49.4411 58.5984 49.145 58.6683 48.8434 58.6788C48.5418 58.6894 48.2411 58.6402 47.9603 58.5346C47.6794 58.4289 47.4244 58.2689 47.2111 58.0646C46.9978 57.8603 46.8309 57.6162 46.7208 57.3474C46.6106 57.0786 46.5597 56.7909 46.5711 56.5024C46.5825 56.2139 46.656 55.9308 46.7871 55.6707C46.9181 55.4106 47.1038 55.1792 47.3326 54.9909L49.4154 53L47.3326 51.0077C47.1072 50.8184 46.9247 50.5867 46.7966 50.3272C46.6684 50.0677 46.5973 49.7858 46.5876 49.4989C46.5779 49.2121 46.6298 48.9263 46.7401 48.6594C46.8504 48.3925 47.0168 48.1501 47.229 47.9471C47.4412 47.7442 47.6946 47.585 47.9737 47.4795C48.2527 47.374 48.5514 47.3243 48.8513 47.3336C49.1512 47.3429 49.4459 47.4109 49.7173 47.5335C49.9886 47.6561 50.2307 47.8306 50.4287 48.0463L52.5115 50.0385L54.593 48.0463C54.791 47.8306 55.0331 47.6561 55.3044 47.5335C55.5758 47.4109 55.8705 47.3429 56.1704 47.3336C56.4703 47.3243 56.769 47.374 57.048 47.4795C57.3271 47.585 57.5805 47.7442 57.7927 47.9471C58.0049 48.1501 58.1713 48.3925 58.2816 48.6594C58.3919 48.9263 58.4438 49.2121 58.4341 49.4989C58.4244 49.7858 58.3533 50.0677 58.2251 50.3272C58.097 50.5867 57.9145 50.8184 57.6891 51.0077L55.6076 53L57.6891 54.9922C58.0976 55.386 58.3264 55.9184 58.3257 56.4731C58.3249 57.0279 58.0945 57.5597 57.685 57.9524Z" fill="#FAE390"/>
</svg>
