<svg width="28" height="28" viewBox="0 0 28 28" fill="none" xmlns="http://www.w3.org/2000/svg">
<path d="M14.0237 3.39453C10.162 3.39453 7.02368 6.53286 7.02368 10.3945V13.7662C7.02368 14.4779 6.72035 15.5629 6.35868 16.1695L5.01701 18.3979C4.18868 19.7745 4.76035 21.3029 6.27701 21.8162C11.3053 23.4962 16.7303 23.4962 21.7587 21.8162C23.1703 21.3495 23.7887 19.6812 23.0187 18.3979L21.677 16.1695C21.327 15.5629 21.0237 14.4779 21.0237 13.7662V10.3945C21.0237 6.54453 17.8737 3.39453 14.0237 3.39453Z" stroke="#222222" stroke-width="1.5" stroke-miterlimit="10" stroke-linecap="round"/>
<path d="M16.1819 3.73367C15.8202 3.62867 15.4469 3.54701 15.0619 3.50034C13.9419 3.36034 12.8686 3.44201 11.8652 3.73367C12.2036 2.87034 13.0436 2.26367 14.0236 2.26367C15.0036 2.26367 15.8436 2.87034 16.1819 3.73367Z" stroke="#222222" stroke-width="1.5" stroke-miterlimit="10" stroke-linecap="round" stroke-linejoin="round"/>
<path d="M17.5234 22.2363C17.5234 24.1613 15.9484 25.7363 14.0234 25.7363C13.0668 25.7363 12.1801 25.3397 11.5501 24.7097C10.9201 24.0797 10.5234 23.193 10.5234 22.2363" stroke="#222222" stroke-width="1.5" stroke-miterlimit="10"/>
</svg>
