<svg width="24" height="30" viewBox="0 0 24 30" fill="none" xmlns="http://www.w3.org/2000/svg">
<path fill-rule="evenodd" clip-rule="evenodd" d="M4.68678 0H14.7168L23.2175 8.86058V26.0945C23.2175 28.2534 21.4709 30 19.3194 30H4.68678C2.52787 30 0.78125 28.2534 0.78125 26.0945V3.90553C0.781212 1.74662 2.52783 0 4.68678 0Z" fill="#E5252A"/>
<path fill-rule="evenodd" clip-rule="evenodd" d="M14.7109 0V8.79311H23.2192L14.7109 0Z" fill="white"/>
<path d="M5.125 22.3841V16.9043H7.45634C8.03356 16.9043 8.49084 17.0617 8.83566 17.3841C9.18048 17.6989 9.35291 18.1262 9.35291 18.6584C9.35291 19.1906 9.18048 19.6179 8.83566 19.9328C8.49084 20.2551 8.03356 20.4125 7.45634 20.4125H6.5268V22.3841H5.125ZM6.5268 19.2207H7.29892C7.5088 19.2207 7.67373 19.1757 7.78619 19.0708C7.89862 18.9733 7.95862 18.8384 7.95862 18.6585C7.95862 18.4786 7.89865 18.3436 7.78619 18.2462C7.67376 18.1412 7.50884 18.0963 7.29892 18.0963H6.5268V19.2207ZM9.93009 22.3841V16.9043H11.8716C12.2539 16.9043 12.6138 16.9568 12.9511 17.0692C13.2884 17.1816 13.5958 17.3391 13.8656 17.5565C14.1355 17.7664 14.3529 18.0512 14.5103 18.4111C14.6602 18.7709 14.7427 19.1832 14.7427 19.6479C14.7427 20.1052 14.6602 20.5175 14.5103 20.8773C14.3529 21.2371 14.1355 21.522 13.8656 21.7319C13.5957 21.9493 13.2884 22.1067 12.9511 22.2191C12.6138 22.3316 12.2539 22.3841 11.8716 22.3841H9.93009ZM11.3019 21.1922H11.7067C11.9241 21.1922 12.1265 21.1697 12.3139 21.1172C12.4938 21.0647 12.6662 20.9823 12.8311 20.8698C12.9886 20.7574 13.116 20.5999 13.2059 20.3901C13.2959 20.1802 13.3409 19.9328 13.3409 19.6479C13.3409 19.3556 13.2959 19.1082 13.2059 18.8983C13.116 18.6884 12.9886 18.531 12.8311 18.4186C12.6662 18.3061 12.4938 18.2237 12.3139 18.1712C12.1265 18.1187 11.9241 18.0962 11.7067 18.0962H11.3019V21.1922ZM15.4473 22.3841V16.9043H19.3454V18.0962H16.8491V18.9733H18.8431V20.1577H16.8491V22.3841H15.4473Z" fill="white"/>
</svg>
