<svg width="17" height="17" viewBox="0 0 17 17" fill="none" xmlns="http://www.w3.org/2000/svg">
<path d="M10.8184 0.741699C11.2996 0.741699 11.7614 0.932606 12.1025 1.27197L16.2275 5.39697C16.5681 5.73765 16.7598 6.20041 16.7598 6.68213C16.7596 7.16359 16.5679 7.62478 16.2275 7.96533L16.2285 7.96631C16.06 8.13542 15.8591 8.26929 15.6387 8.36084C15.4183 8.45233 15.182 8.4995 14.9434 8.49951C14.7048 8.49951 14.4684 8.4523 14.248 8.36084C14.0276 8.2693 13.8267 8.13538 13.6582 7.96631L13.4697 7.77686L11.1826 10.064C11.8968 12.11 11.3797 14.5999 9.74512 16.2163C9.63864 16.3216 9.49451 16.3804 9.34473 16.3804C9.19513 16.3803 9.05168 16.3215 8.94531 16.2163L5.51465 12.7856L2.96973 15.3315L2.96777 15.3335C2.86096 15.4367 2.71783 15.4939 2.56934 15.4927C2.42076 15.4914 2.27792 15.4317 2.17285 15.3267C2.06801 15.2216 2.00912 15.0795 2.00781 14.9312C2.00652 14.7827 2.06299 14.6396 2.16602 14.5327L4.71387 11.9849L1.28418 8.55615V8.55518C1.23139 8.50311 1.1889 8.44092 1.16016 8.37256C1.13124 8.30364 1.11621 8.22952 1.11621 8.15479C1.11621 8.08004 1.13123 8.00593 1.16016 7.93701C1.18917 7.86801 1.23167 7.80481 1.28516 7.75244C2.87913 6.1593 5.28903 5.57447 7.43555 6.31592L9.72168 4.02881L9.53418 3.84131C9.19376 3.50057 9.00202 3.03878 9.00195 2.55713C9.00195 2.0754 9.1937 1.61277 9.53418 1.27197C9.87534 0.932607 10.3372 0.741731 10.8184 0.741699ZM10.8184 1.87354C10.6372 1.87357 10.4631 1.94565 10.335 2.07373C10.2079 2.20239 10.1367 2.3763 10.1367 2.55713C10.1368 2.73822 10.2085 2.91185 10.3359 3.04053H10.335L10.9248 3.62939C11.1282 3.83298 11.159 4.19518 10.9248 4.43018L7.97949 7.37646C7.90037 7.45544 7.79909 7.50889 7.68945 7.53076C7.57999 7.55253 7.46649 7.54198 7.36328 7.49951C5.81745 6.86373 3.9627 7.02651 2.51172 8.18018L9.31934 14.9878C10.3456 13.7056 10.6073 11.8799 10.1143 10.4321L10.002 10.1392C9.89204 9.88423 10.0038 9.64244 10.123 9.52197V9.521L13.0693 6.57568C13.2478 6.39769 13.5398 6.34857 13.7734 6.49756L13.8691 6.57373L14.46 7.16455C14.5881 7.29273 14.7621 7.36471 14.9434 7.36475C15.1245 7.36472 15.2986 7.29263 15.4268 7.16455C15.5546 7.03653 15.6268 6.86306 15.627 6.68213C15.627 6.50098 15.5548 6.32689 15.4268 6.19873L11.3018 2.07373C11.1736 1.94563 10.9996 1.87354 10.8184 1.87354Z" fill="black" stroke="black" stroke-width="0.3"/>
</svg>
