<svg width="6" height="12" viewBox="0 0 6 12" fill="none" xmlns="http://www.w3.org/2000/svg">
<path d="M5.8783 6.22504C5.56198 5.62616 5.06846 5.11153 4.48672 4.75449L4.31103 3.39664C4.81329 3.00414 5.14259 2.3998 5.14259 1.71449C5.14259 1.12567 4.03189 0.857422 2.99988 0.857422C1.96787 0.857422 0.85718 1.12567 0.85718 1.71451C0.85718 2.39986 1.18652 3.00422 1.68883 3.39672L1.51262 4.75489C0.931144 5.11161 0.437808 5.62592 0.121465 6.22504C-0.0137052 6.48053 -0.0371477 6.79147 0.056602 7.07772C0.142397 7.33949 0.320676 7.55187 0.545197 7.66069C1.21882 7.9873 1.98738 8.10081 2.61048 8.13163L2.78603 10.9415C2.79314 11.0545 2.88667 11.1424 2.99988 11.1424C3.0544 11.1424 3.10687 11.1216 3.1466 11.0843C3.18634 11.047 3.21035 10.9959 3.21374 10.9415L3.3893 8.13163C4.01239 8.10081 4.78093 7.98732 5.45437 7.66089C5.67911 7.55187 5.85739 7.33949 5.94316 7.07772C6.03689 6.79147 6.01347 6.48053 5.8783 6.22504Z" fill="black"/>
</svg>
