<svg width="14" height="14" viewBox="0 0 14 14" fill="none" xmlns="http://www.w3.org/2000/svg">
<path d="M9.66667 14H1.66667C1.2248 13.9995 0.801186 13.8237 0.48874 13.5113C0.176294 13.1988 0.000529286 12.7752 0 12.3333V1.66667C0.000529286 1.2248 0.176294 0.801186 0.48874 0.48874C0.801186 0.176294 1.2248 0.000529286 1.66667 0H6.82C7.04196 0.000148663 7.26168 0.0444296 7.46638 0.130267C7.67107 0.216105 7.85665 0.341786 8.01233 0.5L10.8583 3.413C11.1636 3.72464 11.3342 4.14376 11.3333 4.58V7.06333C11.3333 7.15174 11.2982 7.23652 11.2357 7.29904C11.1732 7.36155 11.0884 7.39667 11 7.39667C10.9116 7.39667 10.8268 7.36155 10.7643 7.29904C10.7018 7.23652 10.6667 7.15174 10.6667 7.06333V4.58C10.6668 4.31832 10.5644 4.06701 10.3813 3.88L7.535 0.966667C7.44173 0.871669 7.33046 0.796212 7.20769 0.744702C7.08493 0.693193 6.95313 0.666664 6.82 0.666667H1.66667C1.40145 0.666667 1.1471 0.772024 0.95956 0.95956C0.772023 1.1471 0.666667 1.40145 0.666667 1.66667V12.3333C0.666667 12.5985 0.772023 12.8529 0.95956 13.0404C1.1471 13.228 1.40145 13.3333 1.66667 13.3333H9.66667C9.79242 13.3338 9.91702 13.3095 10.0333 13.2617C10.1151 13.228 10.2069 13.2283 10.2885 13.2623C10.3701 13.2963 10.4349 13.3614 10.4685 13.4432C10.5021 13.5249 10.5019 13.6167 10.4679 13.6983C10.4338 13.78 10.3688 13.8447 10.287 13.8783C10.0902 13.9592 9.87942 14.0005 9.66667 14Z" fill="black"/>
<path d="M10.8607 4.33156H8.66406C8.2222 4.33103 7.79858 4.15527 7.48614 3.84282C7.17369 3.53038 6.99793 3.10676 6.9974 2.6649V0.434896C6.9974 0.34649 7.03252 0.261706 7.09503 0.199194C7.15754 0.136681 7.24233 0.101563 7.33073 0.101562C7.41914 0.101563 7.50392 0.136681 7.56643 0.199194C7.62895 0.261706 7.66406 0.34649 7.66406 0.434896V2.6649C7.66406 2.93011 7.76942 3.18447 7.95696 3.372C8.14449 3.55954 8.39885 3.6649 8.66406 3.6649H10.8607C10.9491 3.6649 11.0339 3.70001 11.0964 3.76253C11.1589 3.82504 11.1941 3.90982 11.1941 3.99823C11.1941 4.08663 11.1589 4.17142 11.0964 4.23393C11.0339 4.29644 10.9491 4.33156 10.8607 4.33156ZM10.3307 13.9496C10.1993 13.9497 10.0707 13.9109 9.9614 13.8379L8.89073 13.1239C8.20529 12.6681 7.64327 12.0499 7.25476 11.3242C6.86624 10.5985 6.66332 9.78802 6.66406 8.9649V8.39423C6.66472 8.24425 6.7157 8.09883 6.80883 7.98128C6.90197 7.86372 7.03188 7.78083 7.17773 7.7459C8.1677 7.47226 9.10947 7.04736 9.96973 6.48623C10.0774 6.4169 10.2027 6.38003 10.3307 6.38003C10.4588 6.38003 10.5841 6.4169 10.6917 6.48623C11.552 7.04743 12.4937 7.47233 13.4837 7.7459C13.6296 7.78083 13.7595 7.86372 13.8526 7.98128C13.9458 8.09883 13.9967 8.24425 13.9974 8.39423V8.9649C13.9984 9.78825 13.7955 10.599 13.407 11.325C13.0185 12.0509 12.4564 12.6694 11.7707 13.1252L10.7004 13.8389C10.5908 13.9115 10.4622 13.9501 10.3307 13.9496ZM10.3307 7.04623C9.40912 7.64745 8.39977 8.10197 7.33873 8.39356L7.33073 8.9649C7.32992 9.67846 7.5057 10.3811 7.84239 11.0103C8.17909 11.6394 8.66624 12.1754 9.2604 12.5706L10.3307 13.2829L11.4011 12.5692C11.995 12.1742 12.4821 11.6384 12.8188 11.0095C13.1554 10.3806 13.3313 9.67823 13.3307 8.9649V8.39423C12.2671 8.1028 11.255 7.64817 10.3307 7.04656V7.04623Z" fill="black"/>
<path d="M10 10.9974C9.9116 10.9974 9.82683 10.9622 9.76433 10.8997L9.09767 10.2331C9.03695 10.1702 9.00335 10.086 9.00411 9.9986C9.00487 9.9112 9.03993 9.82759 9.10173 9.76579C9.16353 9.70399 9.24714 9.66893 9.33453 9.66817C9.42193 9.66741 9.50613 9.70101 9.569 9.76173L10 10.1927L11.0977 9.09506C11.1605 9.03434 11.2447 9.00074 11.3321 9.0015C11.4195 9.00226 11.5031 9.03732 11.5649 9.09912C11.6267 9.16093 11.6618 9.24453 11.6626 9.33193C11.6633 9.41933 11.6297 9.50353 11.569 9.5664L10.2357 10.8997C10.1732 10.9622 10.0884 10.9974 10 10.9974ZM5 3.33073H2.33333C2.24493 3.33073 2.16014 3.29561 2.09763 3.2331C2.03512 3.17059 2 3.0858 2 2.9974C2 2.90899 2.03512 2.82421 2.09763 2.76169C2.16014 2.69918 2.24493 2.66406 2.33333 2.66406H5C5.08841 2.66406 5.17319 2.69918 5.2357 2.76169C5.29822 2.82421 5.33333 2.90899 5.33333 2.9974C5.33333 3.0858 5.29822 3.17059 5.2357 3.2331C5.17319 3.29561 5.08841 3.33073 5 3.33073ZM7 5.33073H2.33333C2.24493 5.33073 2.16014 5.29561 2.09763 5.2331C2.03512 5.17059 2 5.0858 2 4.9974C2 4.90899 2.03512 4.82421 2.09763 4.76169C2.16014 4.69918 2.24493 4.66406 2.33333 4.66406H7C7.08841 4.66406 7.17319 4.69918 7.2357 4.76169C7.29822 4.82421 7.33333 4.90899 7.33333 4.9974C7.33333 5.0858 7.29822 5.17059 7.2357 5.2331C7.17319 5.29561 7.08841 5.33073 7 5.33073ZM7.66667 7.33073H2.33333C2.24493 7.33073 2.16014 7.29561 2.09763 7.2331C2.03512 7.17059 2 7.0858 2 6.9974C2 6.90899 2.03512 6.82421 2.09763 6.76169C2.16014 6.69918 2.24493 6.66406 2.33333 6.66406H7.66667C7.75507 6.66406 7.83986 6.69918 7.90237 6.76169C7.96488 6.82421 8 6.90899 8 6.9974C8 7.0858 7.96488 7.17059 7.90237 7.2331C7.83986 7.29561 7.75507 7.33073 7.66667 7.33073ZM5.66667 9.33073H2.33333C2.24493 9.33073 2.16014 9.29561 2.09763 9.2331C2.03512 9.17059 2 9.0858 2 8.9974C2 8.90899 2.03512 8.82421 2.09763 8.76169C2.16014 8.69918 2.24493 8.66406 2.33333 8.66406H5.66667C5.75507 8.66406 5.83986 8.69918 5.90237 8.76169C5.96488 8.82421 6 8.90899 6 8.9974C6 9.0858 5.96488 9.17059 5.90237 9.2331C5.83986 9.29561 5.75507 9.33073 5.66667 9.33073ZM5.66667 11.3307H2.33333C2.24493 11.3307 2.16014 11.2956 2.09763 11.2331C2.03512 11.1706 2 11.0858 2 10.9974C2 10.909 2.03512 10.8242 2.09763 10.7617C2.16014 10.6992 2.24493 10.6641 2.33333 10.6641H5.66667C5.75507 10.6641 5.83986 10.6992 5.90237 10.7617C5.96488 10.8242 6 10.909 6 10.9974C6 11.0858 5.96488 11.1706 5.90237 11.2331C5.83986 11.2956 5.75507 11.3307 5.66667 11.3307Z" fill="black"/>
</svg>
