<svg width="20" height="20" viewBox="0 0 20 20" fill="none" xmlns="http://www.w3.org/2000/svg">
<path d="M17.9128 6.63107V10.7878C17.9128 11.0525 17.8995 11.3173 17.8729 11.5688C17.6334 14.3753 15.9707 15.7785 12.9114 15.7785H12.4991C12.233 15.7785 11.9803 15.8977 11.834 16.1095L10.5837 17.7774C10.025 18.5187 9.13384 18.5187 8.57518 17.7774L7.32485 16.1095C7.19183 15.9374 6.8859 15.7785 6.65978 15.7785H6.24744C2.90878 15.7785 1.24609 14.9577 1.24609 10.801V6.64428C1.24609 3.59954 2.65603 1.94482 5.47593 1.70654C5.72866 1.68006 5.99468 1.66683 6.26071 1.66683H12.9513C16.2368 1.65359 17.9128 3.32157 17.9128 6.63107Z" stroke="black" stroke-width="1.2" stroke-miterlimit="10" stroke-linecap="round" stroke-linejoin="round"/>
<path d="M10.7296 6.184L10.5696 10.016H9.40959L9.24959 6.184H10.7296ZM10.0096 12.064C9.76959 12.064 9.57226 11.9947 9.41759 11.856C9.26826 11.712 9.19359 11.536 9.19359 11.328C9.19359 11.1147 9.26826 10.936 9.41759 10.792C9.57226 10.648 9.76959 10.576 10.0096 10.576C10.2443 10.576 10.4363 10.648 10.5856 10.792C10.7403 10.936 10.8176 11.1147 10.8176 11.328C10.8176 11.536 10.7403 11.712 10.5856 11.856C10.4363 11.9947 10.2443 12.064 10.0096 12.064Z" fill="black"/>
</svg>
