<svg width="20" height="18" viewBox="0 0 20 18" fill="none" xmlns="http://www.w3.org/2000/svg">
<path d="M8.01712 15.7641L7.83189 15.4486C6.44268 13.0816 2.7471 8.05333 2.70995 8.00282L2.60156 7.85554L3.99154 6.48211L7.96999 9.26016C10.4635 6.03762 12.7863 3.81981 14.3059 2.52004C15.9846 1.08415 17.0474 0.441585 17.0917 0.414931L17.1419 0.384766H19.5915L19.1767 0.754281C13.9381 5.42019 8.25497 15.3465 8.19815 15.4462L8.01712 15.7641Z" fill="url(#paint0_linear_1276_9627)"/>
<path d="M8.05094 3.12922C8.25597 3.12922 8.42219 2.963 8.42219 2.75797C8.42219 2.55293 8.25597 2.38672 8.05094 2.38672C7.8459 2.38672 7.67969 2.55293 7.67969 2.75797C7.67969 2.963 7.8459 3.12922 8.05094 3.12922Z" fill="black"/>
<path d="M8.05094 17.6878C8.25597 17.6878 8.42219 17.5216 8.42219 17.3166C8.42219 17.1115 8.25597 16.9453 8.05094 16.9453C7.8459 16.9453 7.67969 17.1115 7.67969 17.3166C7.67969 17.5216 7.8459 17.6878 8.05094 17.6878Z" fill="black"/>
<path d="M0.781406 10.4085C0.986442 10.4085 1.15266 10.2423 1.15266 10.0373C1.15266 9.83223 0.986442 9.66602 0.781406 9.66602C0.576371 9.66602 0.410156 9.83223 0.410156 10.0373C0.410156 10.2423 0.576371 10.4085 0.781406 10.4085Z" fill="black"/>
<path d="M15.3224 10.4085C15.5275 10.4085 15.6937 10.2423 15.6937 10.0373C15.6937 9.83223 15.5275 9.66602 15.3224 9.66602C15.1174 9.66602 14.9512 9.83223 14.9512 10.0373C14.9512 10.2423 15.1174 10.4085 15.3224 10.4085Z" fill="black"/>
<path d="M2.90641 15.555C3.11144 15.555 3.27766 15.3888 3.27766 15.1837C3.27766 14.9787 3.11144 14.8125 2.90641 14.8125C2.70137 14.8125 2.53516 14.9787 2.53516 15.1837C2.53516 15.3888 2.70137 15.555 2.90641 15.555Z" fill="black"/>
<path d="M2.91031 5.26594C3.11535 5.26594 3.28156 5.09972 3.28156 4.89469C3.28156 4.68965 3.11535 4.52344 2.91031 4.52344C2.70528 4.52344 2.53906 4.68965 2.53906 4.89469C2.53906 5.09972 2.70528 5.26594 2.91031 5.26594Z" fill="black"/>
<path d="M13.1935 15.5491C13.3986 15.5491 13.5648 15.3829 13.5648 15.1779C13.5648 14.9729 13.3986 14.8066 13.1935 14.8066C12.9885 14.8066 12.8223 14.9729 12.8223 15.1779C12.8223 15.3829 12.9885 15.5491 13.1935 15.5491Z" fill="black"/>
<path d="M1.7482 6.76789C1.95324 6.76789 2.11945 6.60168 2.11945 6.39664C2.11945 6.1916 1.95324 6.02539 1.7482 6.02539C1.54317 6.02539 1.37695 6.1916 1.37695 6.39664C1.37695 6.60168 1.54317 6.76789 1.7482 6.76789Z" fill="black"/>
<path d="M14.3576 14.0472C14.5626 14.0472 14.7288 13.881 14.7288 13.6759C14.7288 13.4709 14.5626 13.3047 14.3576 13.3047C14.1525 13.3047 13.9863 13.4709 13.9863 13.6759C13.9863 13.881 14.1525 14.0472 14.3576 14.0472Z" fill="black"/>
<path d="M4.41813 16.7054C4.62316 16.7054 4.78938 16.5392 4.78938 16.3341C4.78938 16.1291 4.62316 15.9629 4.41813 15.9629C4.21309 15.9629 4.04688 16.1291 4.04688 16.3341C4.04688 16.5392 4.21309 16.7054 4.41813 16.7054Z" fill="black"/>
<path d="M6.16812 3.37727C6.37316 3.37727 6.53937 3.21105 6.53937 3.00602C6.53937 2.80098 6.37316 2.63477 6.16812 2.63477C5.96309 2.63477 5.79688 2.80098 5.79688 3.00602C5.79688 3.21105 5.96309 3.37727 6.16812 3.37727Z" fill="black"/>
<path d="M9.9357 17.4398C10.1407 17.4398 10.307 17.2736 10.307 17.0685C10.307 16.8635 10.1407 16.6973 9.9357 16.6973C9.73067 16.6973 9.56445 16.8635 9.56445 17.0685C9.56445 17.2736 9.73067 17.4398 9.9357 17.4398Z" fill="black"/>
<path d="M1.0275 12.2894C1.23254 12.2894 1.39875 12.1232 1.39875 11.9181C1.39875 11.7131 1.23254 11.5469 1.0275 11.5469C0.822464 11.5469 0.65625 11.7131 0.65625 11.9181C0.65625 12.1232 0.822464 12.2894 1.0275 12.2894Z" fill="black"/>
<path d="M15.0763 8.5257C15.2814 8.5257 15.4476 8.35949 15.4476 8.15445C15.4476 7.94942 15.2814 7.7832 15.0763 7.7832C14.8713 7.7832 14.7051 7.94942 14.7051 8.15445C14.7051 8.35949 14.8713 8.5257 15.0763 8.5257Z" fill="black"/>
<path d="M1.7482 14.0472C1.95324 14.0472 2.11945 13.881 2.11945 13.6759C2.11945 13.4709 1.95324 13.3047 1.7482 13.3047C1.54317 13.3047 1.37695 13.4709 1.37695 13.6759C1.37695 13.881 1.54317 14.0472 1.7482 14.0472Z" fill="black"/>
<path d="M11.6877 16.7054C11.8927 16.7054 12.0589 16.5392 12.0589 16.3341C12.0589 16.1291 11.8927 15.9629 11.6877 15.9629C11.4826 15.9629 11.3164 16.1291 11.3164 16.3341C11.3164 16.5392 11.4826 16.7054 11.6877 16.7054Z" fill="black"/>
<path d="M4.41813 4.11164C4.62316 4.11164 4.78938 3.94543 4.78938 3.74039C4.78938 3.53536 4.62316 3.36914 4.41813 3.36914C4.21309 3.36914 4.04688 3.53536 4.04688 3.74039C4.04688 3.94543 4.21309 4.11164 4.41813 4.11164Z" fill="black"/>
<path d="M9.9357 3.37727C10.1407 3.37727 10.307 3.21105 10.307 3.00602C10.307 2.80098 10.1407 2.63477 9.9357 2.63477C9.73067 2.63477 9.56445 2.80098 9.56445 3.00602C9.56445 3.21105 9.73067 3.37727 9.9357 3.37727Z" fill="black"/>
<path d="M6.16813 17.4398C6.37316 17.4398 6.53938 17.2736 6.53938 17.0685C6.53938 16.8635 6.37316 16.6973 6.16813 16.6973C5.96309 16.6973 5.79688 16.8635 5.79688 17.0685C5.79688 17.2736 5.96309 17.4398 6.16813 17.4398Z" fill="black"/>
<path d="M15.0763 12.2894C15.2814 12.2894 15.4476 12.1232 15.4476 11.9181C15.4476 11.7131 15.2814 11.5469 15.0763 11.5469C14.8713 11.5469 14.7051 11.7131 14.7051 11.9181C14.7051 12.1232 14.8713 12.2894 15.0763 12.2894Z" fill="black"/>
<path d="M1.0275 8.5257C1.23254 8.5257 1.39875 8.35949 1.39875 8.15445C1.39875 7.94942 1.23254 7.7832 1.0275 7.7832C0.822464 7.7832 0.65625 7.94942 0.65625 8.15445C0.65625 8.35949 0.822464 8.5257 1.0275 8.5257Z" fill="black"/>
<defs>
<linearGradient id="paint0_linear_1276_9627" x1="11.0965" y1="0.384766" x2="11.0965" y2="15.7641" gradientUnits="userSpaceOnUse">
<stop stop-color="#0AC00A"/>
<stop offset="1" stop-color="#006400"/>
</linearGradient>
</defs>
</svg>
