<svg width="8" height="6" viewBox="0 0 8 6" fill="none" xmlns="http://www.w3.org/2000/svg">
<path fill-rule="evenodd" clip-rule="evenodd" d="M7.35322 0.646393C7.44695 0.740157 7.49961 0.867311 7.49961 0.999893C7.49961 1.13248 7.44695 1.25963 7.35322 1.35339L3.35322 5.35339C3.25945 5.44713 3.1323 5.49979 2.99972 5.49979C2.86713 5.49979 2.73998 5.44713 2.64622 5.35339L0.646215 3.35339C0.555136 3.25909 0.504739 3.13279 0.505878 3.00169C0.507017 2.87059 0.559602 2.74519 0.652306 2.65248C0.74501 2.55978 0.870416 2.5072 1.00151 2.50606C1.13261 2.50492 1.25891 2.55531 1.35322 2.64639L2.99972 4.29289L6.64622 0.646393C6.73998 0.552658 6.86713 0.5 6.99972 0.5C7.1323 0.5 7.25945 0.552658 7.35322 0.646393Z" fill="#006400"/>
</svg>
