<svg width="20" height="20" viewBox="0 0 20 20" fill="none" xmlns="http://www.w3.org/2000/svg">
<path d="M19.5833 5.83333C19.4728 5.83333 19.3668 5.78943 19.2887 5.71129C19.2106 5.63315 19.1667 5.52717 19.1667 5.41667V2.08333C19.1667 1.39417 18.6058 0.833333 17.9167 0.833333H14.5833C14.4728 0.833333 14.3668 0.789435 14.2887 0.711294C14.2106 0.633154 14.1667 0.527174 14.1667 0.416667C14.1667 0.30616 14.2106 0.200179 14.2887 0.122039C14.3668 0.0438987 14.4728 0 14.5833 0L17.9167 0C19.065 0 20 0.934167 20 2.08333V5.41667C20 5.52717 19.9561 5.63315 19.878 5.71129C19.7998 5.78943 19.6938 5.83333 19.5833 5.83333ZM17.9167 20H14.5833C14.4728 20 14.3668 19.9561 14.2887 19.878C14.2106 19.7998 14.1667 19.6938 14.1667 19.5833C14.1667 19.4728 14.2106 19.3668 14.2887 19.2887C14.3668 19.2106 14.4728 19.1667 14.5833 19.1667H17.9167C18.6058 19.1667 19.1667 18.6058 19.1667 17.9167V14.5833C19.1667 14.4728 19.2106 14.3668 19.2887 14.2887C19.3668 14.2106 19.4728 14.1667 19.5833 14.1667C19.6938 14.1667 19.7998 14.2106 19.878 14.2887C19.9561 14.3668 20 14.4728 20 14.5833V17.9167C20 19.0658 19.065 20 17.9167 20ZM5.41667 20H2.08333C1.531 19.9993 1.00148 19.7796 0.610925 19.3891C0.220367 18.9985 0.000661607 18.469 0 17.9167L0 14.5833C0 14.4728 0.0438987 14.3668 0.122039 14.2887C0.200179 14.2106 0.30616 14.1667 0.416667 14.1667C0.527174 14.1667 0.633154 14.2106 0.711294 14.2887C0.789435 14.3668 0.833333 14.4728 0.833333 14.5833V17.9167C0.833333 18.6058 1.39417 19.1667 2.08333 19.1667H5.41667C5.52717 19.1667 5.63315 19.2106 5.71129 19.2887C5.78943 19.3668 5.83333 19.4728 5.83333 19.5833C5.83333 19.6938 5.78943 19.7998 5.71129 19.878C5.63315 19.9561 5.52717 20 5.41667 20ZM0.416667 5.83333C0.30616 5.83333 0.200179 5.78943 0.122039 5.71129C0.0438987 5.63315 0 5.52717 0 5.41667V2.08333C0 0.934167 0.935 0 2.08333 0H5.41667C5.52717 0 5.63315 0.0438987 5.71129 0.122039C5.78943 0.200179 5.83333 0.30616 5.83333 0.416667C5.83333 0.527174 5.78943 0.633154 5.71129 0.711294C5.63315 0.789435 5.52717 0.833333 5.41667 0.833333H2.08333C1.39417 0.833333 0.833333 1.39417 0.833333 2.08333V5.41667C0.833333 5.52717 0.789435 5.63315 0.711294 5.71129C0.633154 5.78943 0.527174 5.83333 0.416667 5.83333ZM14.5833 15.8333H5.41667C4.7275 15.8333 4.16667 15.2725 4.16667 14.5833V12.0833C4.16667 11.9728 4.21057 11.8668 4.28871 11.7887C4.36685 11.7106 4.47283 11.6667 4.58333 11.6667C4.69384 11.6667 4.79982 11.7106 4.87796 11.7887C4.9561 11.8668 5 11.9728 5 12.0833V14.5833C5 14.6938 5.0439 14.7998 5.12204 14.878C5.20018 14.9561 5.30616 15 5.41667 15H14.5833C14.6938 15 14.7998 14.9561 14.878 14.878C14.9561 14.7998 15 14.6938 15 14.5833V12.0833C15 11.9728 15.0439 11.8668 15.122 11.7887C15.2002 11.7106 15.3062 11.6667 15.4167 11.6667C15.5272 11.6667 15.6332 11.7106 15.7113 11.7887C15.7894 11.8668 15.8333 11.9728 15.8333 12.0833V14.5833C15.8333 15.2725 15.2725 15.8333 14.5833 15.8333ZM15.4167 9.16667C15.3062 9.16667 15.2002 9.12277 15.122 9.04463C15.0439 8.96649 15 8.86051 15 8.75V5.41667C15 5.30616 14.9561 5.20018 14.878 5.12204C14.7998 5.0439 14.6938 5 14.5833 5H5.41667C5.30616 5 5.20018 5.0439 5.12204 5.12204C5.0439 5.20018 5 5.30616 5 5.41667V8.75C5 8.86051 4.9561 8.96649 4.87796 9.04463C4.79982 9.12277 4.69384 9.16667 4.58333 9.16667C4.47283 9.16667 4.36685 9.12277 4.28871 9.04463C4.21057 8.96649 4.16667 8.86051 4.16667 8.75V5.41667C4.16667 4.7275 4.7275 4.16667 5.41667 4.16667H14.5833C15.2725 4.16667 15.8333 4.7275 15.8333 5.41667V8.75C15.8333 8.86051 15.7894 8.96649 15.7113 9.04463C15.6332 9.12277 15.5272 9.16667 15.4167 9.16667Z" fill="black" stroke="black" stroke-width="0.6"/>
<path d="M17.0833 12.5003H2.91667C2.80616 12.5003 2.70018 12.4564 2.62204 12.3783C2.5439 12.3001 2.5 12.1942 2.5 12.0837C2.5 11.9732 2.5439 11.8672 2.62204 11.789C2.70018 11.7109 2.80616 11.667 2.91667 11.667H17.0833C17.1938 11.667 17.2998 11.7109 17.378 11.789C17.4561 11.8672 17.5 11.9732 17.5 12.0837C17.5 12.1942 17.4561 12.3001 17.378 12.3783C17.2998 12.4564 17.1938 12.5003 17.0833 12.5003Z" fill="black" stroke="black" stroke-width="0.6"/>
</svg>
