<svg width="21" height="24" viewBox="0 0 21 24" fill="none" xmlns="http://www.w3.org/2000/svg">
<path d="M16.9605 16.1435C15.8106 16.1435 14.7745 16.64 14.0555 17.43L7.58806 13.4244C7.76562 12.9705 7.85666 12.4874 7.85647 12C7.85669 11.5126 7.76566 11.0295 7.58806 10.5756L14.0555 6.5698C14.7746 7.35974 15.8106 7.85652 16.9605 7.85652C19.1266 7.85652 20.8888 6.0943 20.8888 3.92816C20.8888 1.76203 19.1266 0 16.9605 0C14.7944 0 13.0322 1.76222 13.0322 3.92835C13.0321 4.41571 13.1231 4.89879 13.3006 5.35269L6.83328 9.35834C6.11422 8.56841 5.07824 8.07162 3.92835 8.07162C1.76222 8.07162 0 9.83403 0 12C0 14.1661 1.76222 15.9283 3.92835 15.9283C5.07819 15.9283 6.11427 15.4317 6.83328 14.6416L13.3006 18.6473C13.1231 19.1012 13.0321 19.5844 13.0322 20.0718C13.0322 22.2377 14.7943 24 16.9605 24C19.1266 24 20.8888 22.2377 20.8888 20.0718C20.8888 17.9057 19.1266 16.1435 16.9605 16.1435ZM14.4646 3.92835C14.4646 2.5521 15.5843 1.43245 16.9605 1.43245C18.3367 1.43245 19.4564 2.5521 19.4564 3.92835C19.4564 5.3046 18.3367 6.42425 16.9605 6.42425C15.5842 6.42425 14.4646 5.30455 14.4646 3.92835ZM3.92835 14.4959C2.55192 14.4959 1.43226 13.3762 1.43226 12C1.43226 10.6238 2.55192 9.50408 3.92835 9.50408C5.3046 9.50408 6.42407 10.6238 6.42407 12C6.42407 13.3762 5.30455 14.4959 3.92835 14.4959ZM14.4646 20.0716C14.4646 18.6954 15.5843 17.5757 16.9605 17.5757C18.3367 17.5757 19.4564 18.6954 19.4564 20.0716C19.4564 21.4478 18.3367 22.5675 16.9605 22.5675C15.5842 22.5675 14.4646 21.4478 14.4646 20.0716V20.0716Z" fill="black"/>
</svg>
