<svg width="6" height="6" viewBox="0 0 6 6" fill="none" xmlns="http://www.w3.org/2000/svg">
<path d="M3.43223 0.877534L3.87223 1.75753C3.93223 1.88003 4.09223 1.99753 4.22723 2.02003L5.02473 2.15253C5.53473 2.23753 5.65473 2.60753 5.28723 2.97253L4.66723 3.59253C4.56223 3.69753 4.50473 3.90003 4.53723 4.04503L4.71473 4.81253C4.85473 5.42003 4.53223 5.65503 3.99473 5.33753L3.24723 4.89503C3.11223 4.81503 2.88973 4.81503 2.75223 4.89503L2.00473 5.33753C1.46973 5.65503 1.14473 5.41753 1.28473 4.81253L1.46223 4.04503C1.49473 3.90003 1.43723 3.69753 1.33223 3.59253L0.712233 2.97253C0.347233 2.60753 0.464733 2.23753 0.974733 2.15253L1.77223 2.02003C1.90473 1.99753 2.06473 1.88003 2.12473 1.75753L2.56473 0.877534C2.80473 0.400034 3.19473 0.400034 3.43223 0.877534Z" fill="black"/>
</svg>
