<svg width="24" height="24" viewBox="0 0 24 24" fill="none" xmlns="http://www.w3.org/2000/svg">
<path d="M5.27991 18.6496L5.84991 16.1796C5.97991 15.5996 5.74991 14.7896 5.32991 14.3696L2.84991 11.8896C1.38991 10.4296 1.85991 8.94965 3.89991 8.60965L7.08991 8.07965C7.61991 7.98965 8.25991 7.51965 8.49991 7.02965L10.2599 3.50965C11.2099 1.59965 12.7699 1.59965 13.7299 3.50965L15.4899 7.02965C15.5999 7.25965 15.8099 7.47965 16.0399 7.66965" stroke="black" stroke-width="1.5" stroke-linecap="round" stroke-linejoin="round"/>
<path d="M20.0995 8.61035C22.1395 8.95035 22.6195 10.4304 21.1495 11.8904L18.6695 14.3704C18.2495 14.7904 18.0195 15.6004 18.1495 16.1804L18.8595 19.2504C19.4195 21.6804 18.1295 22.6204 15.9795 21.3504L12.9895 19.5804C12.4495 19.2604 11.5595 19.2604 11.0095 19.5804L8.01953 21.3504" stroke="black" stroke-width="1.5" stroke-linecap="round" stroke-linejoin="round"/>
<path d="M22 2L2 22" stroke="black" stroke-width="1.5" stroke-linecap="round" stroke-linejoin="round"/>
</svg>
