<svg width="16" height="16" viewBox="0 0 16 16" fill="none" xmlns="http://www.w3.org/2000/svg">
<path d="M8.00008 12.3337C10.3933 12.3337 12.3334 10.3936 12.3334 8.00033C12.3334 5.60709 10.3933 3.66699 8.00008 3.66699C5.60685 3.66699 3.66675 5.60709 3.66675 8.00033C3.66675 10.3936 5.60685 12.3337 8.00008 12.3337Z" stroke="white" stroke-linecap="round" stroke-linejoin="round"/>
<path d="M12.7599 12.7597L12.6733 12.673M12.6733 3.32634L12.7599 3.23967L12.6733 3.32634ZM3.23992 12.7597L3.32659 12.673L3.23992 12.7597ZM7.99992 1.38634V1.33301V1.38634ZM7.99992 14.6663V14.613V14.6663ZM1.38659 7.99967H1.33325H1.38659ZM14.6666 7.99967H14.6133H14.6666ZM3.32659 3.32634L3.23992 3.23967L3.32659 3.32634Z" stroke="white" stroke-linecap="round" stroke-linejoin="round"/>
</svg>
