<svg width="16" height="16" viewBox="0 0 16 16" fill="none" xmlns="http://www.w3.org/2000/svg">
<path d="M14.3023 15.6875H1.67187C1.02734 15.6875 0.5 15.1602 0.5 14.5156V0.312531L13.1046 0.3125V6.00782M14.3023 15.6875C13.6435 15.6875 13.1046 15.1485 13.1046 14.4898V14.5156V8.82031M14.3023 15.6875C14.961 15.6875 15.4999 15.1485 15.4999 14.4898V3.43749H13.2608M2.45243 2.33793V4.7422M1.90556 2.24224H2.9993" stroke="black" stroke-width="0.6" stroke-miterlimit="22.9256" stroke-linecap="round" stroke-linejoin="round"/>
<path d="M5.03125 4.74219H3.9375V2.24219H5.03125M4.10941 3.49219H4.707M5.96875 4.74222V2.24219H6.59375C6.9375 2.24219 7.21875 2.52344 7.21875 2.86719C7.21875 3.21094 6.9375 3.49219 6.59375 3.49219M6.59375 3.49219H6.08594M6.59375 3.49219L7.21875 4.74222M8.15625 4.74219V2.24219L8.9375 3.17969L9.71878 2.24219V4.74219M11.6248 2.35753L11.4586 2.28872C11.1465 2.1595 10.7855 2.309 10.6563 2.62106C10.527 2.93309 10.6766 3.29413 10.9886 3.42338L11.1548 3.49219L11.3209 3.561C11.6329 3.69025 11.7825 4.05128 11.6533 4.36331C11.524 4.67537 11.163 4.82491 10.8509 4.69566L10.6848 4.62684" stroke="black" stroke-width="0.6" stroke-miterlimit="22.9256" stroke-linecap="round" stroke-linejoin="round"/>
<path d="M5.31639 6.96094H11.4123M5.31639 10.711H11.4123M5.31639 8.36718H10.0061M5.31639 12.1172H10.0061M13.1039 7.41406H13.1042M2.19141 6.96094H4.0664V8.83593H2.19141V6.96094ZM2.19141 10.711H4.0664V12.5859H2.19141V10.711Z" stroke="black" stroke-width="0.6" stroke-miterlimit="2.6131" stroke-linecap="round" stroke-linejoin="round"/>
</svg>
