<svg width="12" height="12" viewBox="0 0 12 12" fill="none" xmlns="http://www.w3.org/2000/svg">
<path d="M6.3835 1.72694C6.57135 1.54008 6.82554 1.43518 7.0905 1.43518C7.35546 1.43518 7.60965 1.54008 7.7975 1.72694L10.2725 4.20194C10.46 4.38946 10.5653 4.64377 10.5653 4.90894C10.5653 5.1741 10.46 5.42841 10.2725 5.61594C10.1798 5.70901 10.0696 5.78286 9.94821 5.83325C9.82687 5.88364 9.69677 5.90957 9.56538 5.90957C9.43399 5.90957 9.30389 5.88364 9.18254 5.83325C9.0612 5.78286 8.95099 5.70901 8.85825 5.61594L8.6815 5.43919L7.20575 6.91494C7.65075 8.11994 7.353 9.60669 6.38325 10.5657C6.33621 10.6123 6.27269 10.6384 6.2065 10.6384C6.14031 10.6384 6.07679 10.6123 6.02975 10.5657L3.9085 8.44444L2.3175 10.0354C2.27035 10.081 2.2072 10.1062 2.14165 10.1056C2.0761 10.105 2.0134 10.0787 1.96705 10.0324C1.9207 9.98604 1.8944 9.92334 1.89383 9.85779C1.89326 9.79224 1.91846 9.72909 1.964 9.68194L3.555 8.09094L1.43375 5.96969C1.41021 5.94664 1.3915 5.91912 1.37873 5.88875C1.36595 5.85838 1.35938 5.82576 1.35938 5.79281C1.35938 5.75986 1.36595 5.72725 1.37873 5.69687C1.3915 5.6665 1.41021 5.63898 1.43375 5.61594C2.3795 4.67019 3.81625 4.33169 5.08425 4.79344L6.56 3.31769L6.3835 3.14119C6.19608 2.95358 6.0908 2.69925 6.0908 2.43406C6.0908 2.16888 6.19608 1.91454 6.3835 1.72694Z" stroke="black" stroke-width="0.6"/>
<path d="M5.5 1L8 11.5" stroke="black" stroke-width="0.6" stroke-linecap="round"/>
</svg>
