<svg width="17" height="17" viewBox="0 0 17 17" fill="none" xmlns="http://www.w3.org/2000/svg">
<path d="M7.16626 9.49121C7.34528 9.49121 7.51721 9.56287 7.6438 9.68945C7.77039 9.81604 7.84204 9.98797 7.84204 10.167C7.84195 10.3458 7.77021 10.5171 7.6438 10.6436C7.51721 10.7701 7.34528 10.8418 7.16626 10.8418H5.50024C4.57467 10.8429 3.68703 11.2108 3.03247 11.8652C2.37797 12.5197 2.00925 13.4074 2.00806 14.333C2.00806 14.8796 2.45369 15.3252 3.00024 15.3252H7.14185C7.3206 15.3253 7.49192 15.3962 7.61841 15.5225C7.745 15.649 7.81665 15.821 7.81665 16C7.81665 16.179 7.745 16.351 7.61841 16.4775C7.49192 16.6038 7.3206 16.6747 7.14185 16.6748H3.00024C2.37934 16.6744 1.78401 16.4273 1.34497 15.9883C0.905928 15.5492 0.658898 14.9539 0.658447 14.333C0.658624 11.663 2.83108 9.49121 5.50024 9.49121H7.16626ZM12.1663 8.6582C14.3764 8.6582 16.175 10.4569 16.175 12.667C16.1749 14.877 14.3763 16.6748 12.1663 16.6748C9.9564 16.6746 8.15862 14.8768 8.15845 12.667C8.15845 10.457 9.95629 8.65838 12.1663 8.6582ZM10.8323 14.9541C11.2358 15.1943 11.6959 15.3226 12.1663 15.3242C12.8709 15.3234 13.5468 15.0441 14.0452 14.5459C14.5434 14.0476 14.8235 13.3716 14.8245 12.667C14.8245 12.1796 14.6845 11.7269 14.4534 11.333L10.8323 14.9541ZM12.1663 10.0088C11.4616 10.0098 10.7856 10.2898 10.2874 10.7881C9.7892 11.2864 9.50892 11.9624 9.50806 12.667C9.51009 13.1368 9.63876 13.5966 9.87817 14L13.4993 10.3789C13.1057 10.1475 12.6532 10.0088 12.1663 10.0088ZM8.00024 0.325195C10.2101 0.325372 12.0079 2.12315 12.0081 4.33301C12.0081 6.54301 10.2102 8.34162 8.00024 8.3418C5.79013 8.3418 3.99146 6.54312 3.99146 4.33301C3.99163 2.12304 5.79024 0.325195 8.00024 0.325195ZM8.00024 1.6748C6.53463 1.6748 5.34222 2.86744 5.34204 4.33301C5.34204 5.79873 6.53453 6.99121 8.00024 6.99121C9.46581 6.99103 10.6584 5.79862 10.6584 4.33301C10.6583 2.86755 9.46571 1.67498 8.00024 1.6748Z" fill="#FF2525" stroke="#FF2525" stroke-width="0.1"/>
</svg>
