<svg width="16" height="16" viewBox="0 0 16 16" fill="none" xmlns="http://www.w3.org/2000/svg">
<path d="M15.4405 8.62642C15.7617 8.26985 15.7617 7.72829 15.4406 7.37171L14.1943 5.98808L14.3894 4.13615C14.4397 3.65863 14.1211 3.22031 13.6513 3.12087L11.8294 2.73517L10.9006 1.12168C10.6607 0.705027 10.1446 0.537356 9.70565 0.733519L8.00563 1.49331L7.67188 7.99907L8.00563 14.5048L9.70568 15.2646C10.1446 15.4607 10.6608 15.2931 10.9006 14.8764L11.8294 13.263L13.6513 12.8772C14.1211 12.7778 14.4397 12.3395 14.3894 11.862L14.1943 10.01L15.4405 8.62642Z" fill="#00C42B"/>
<path d="M6.30579 0.733511C5.86688 0.537353 5.35072 0.705029 5.11088 1.12168L4.18211 2.73517L2.36015 3.12089C1.8904 3.22034 1.57175 3.65866 1.62205 4.13617L1.81713 5.98808L0.570916 7.37171C0.249746 7.72829 0.249749 8.26984 0.570922 8.62642L1.81713 10.01L1.62205 11.862C1.57175 12.3395 1.8904 12.7778 2.36015 12.8772L4.18211 13.263L5.11091 14.8764C5.35075 15.2931 5.8669 15.4608 6.30581 15.2646L8.00587 14.5048V1.49331L6.30579 0.733511Z" fill="#00C42B"/>
<path d="M11.3594 6.24956L10.6591 5.62451L8.00563 8.59739L7.67188 9.3362L8.00563 10.007L11.3594 6.24956Z" fill="#F7F0EB"/>
<path d="M5.21837 7.29102L4.55469 7.95473L7.34513 10.7452L8.00703 10.0036V8.59404L7.30639 9.379L5.21837 7.29102Z" fill="#FFFBF5"/>
</svg>
