<svg width="17" height="16" viewBox="0 0 17 16" fill="none" xmlns="http://www.w3.org/2000/svg">
<path d="M8.85398 13.6134H4.64065C2.53398 13.6134 1.83398 12.2134 1.83398 10.8067V5.19339C1.83398 3.08672 2.53398 2.38672 4.64065 2.38672H8.85398C10.9607 2.38672 11.6607 3.08672 11.6607 5.19339V10.8067C11.6607 12.9134 10.954 13.6134 8.85398 13.6134Z" stroke="black" stroke-linecap="round" stroke-linejoin="round"/>
<path d="M13.5135 11.4001L11.6602 10.1001V5.89342L13.5135 4.59342C14.4202 3.96009 15.1668 4.34675 15.1668 5.46009V10.5401C15.1668 11.6534 14.4202 12.0401 13.5135 11.4001Z" stroke="black" stroke-linecap="round" stroke-linejoin="round"/>
<path d="M8.16602 7.3335C8.7183 7.3335 9.16602 6.88578 9.16602 6.3335C9.16602 5.78121 8.7183 5.3335 8.16602 5.3335C7.61373 5.3335 7.16602 5.78121 7.16602 6.3335C7.16602 6.88578 7.61373 7.3335 8.16602 7.3335Z" stroke="black" stroke-linecap="round" stroke-linejoin="round"/>
</svg>
