<svg width="22" height="22" viewBox="0 0 22 22" fill="none" xmlns="http://www.w3.org/2000/svg">
<path d="M19.3868 5.65591C19.011 5.45425 18.2227 5.24341 17.1502 5.99508L15.8027 6.94841C15.7018 4.09758 14.4643 2.97925 11.4577 2.97925H5.95768C2.82268 2.97925 1.60352 4.19841 1.60352 7.33341V14.6667C1.60352 16.7751 2.74935 19.0209 5.95768 19.0209H11.4577C14.4643 19.0209 15.7018 17.9026 15.8027 15.0517L17.1502 16.0051C17.7185 16.4084 18.2135 16.5367 18.6077 16.5367C18.9468 16.5367 19.2127 16.4359 19.3868 16.3442C19.7627 16.1517 20.3952 15.6292 20.3952 14.3184V7.68175C20.3952 6.37091 19.7627 5.84841 19.3868 5.65591ZM10.0827 10.4317C9.13852 10.4317 8.35935 9.66175 8.35935 8.70841C8.35935 7.75508 9.13852 6.98508 10.0827 6.98508C11.0268 6.98508 11.806 7.75508 11.806 8.70841C11.806 9.66175 11.0268 10.4317 10.0827 10.4317Z" fill="black"/>
</svg>
