<svg width="14" height="14" viewBox="0 0 14 14" fill="none" xmlns="http://www.w3.org/2000/svg">
<path fill-rule="evenodd" clip-rule="evenodd" d="M11.7566 8.04235L8.0443 11.7547C7.96231 11.8367 7.91624 11.9479 7.91624 12.0638C7.91624 12.1798 7.96231 12.291 8.0443 12.373C8.1263 12.455 8.23751 12.5011 8.35347 12.5011C8.46943 12.5011 8.58064 12.455 8.66264 12.373L12.375 8.66068C12.457 8.57869 12.503 8.46748 12.503 8.35152C12.503 8.23556 12.457 8.12435 12.375 8.04235C12.293 7.96035 12.1818 7.91429 12.0658 7.91429C11.9498 7.91429 11.8386 7.96035 11.7566 8.04235ZM6.70964 11.8194H1.72214C1.69119 11.8194 1.66152 11.8071 1.63964 11.7853C1.61776 11.7634 1.60547 11.7337 1.60547 11.7028V10.8569C1.60547 10.3722 1.95139 9.94518 2.48455 9.58235C3.43655 8.93252 4.97714 8.52302 6.70964 8.52302C6.82567 8.52302 6.93695 8.47692 7.01899 8.39488C7.10104 8.31283 7.14714 8.20155 7.14714 8.08552C7.14714 7.96948 7.10104 7.8582 7.01899 7.77616C6.93695 7.69411 6.82567 7.64802 6.70964 7.64802C4.7718 7.64802 3.05622 8.13277 1.99105 8.85902C1.17847 9.41318 0.730469 10.1173 0.730469 10.8563V11.7028C0.730623 11.9657 0.835171 12.2178 1.02113 12.4036C1.20708 12.5895 1.45923 12.6938 1.72214 12.6938L6.70964 12.6944C6.82567 12.6944 6.93695 12.6483 7.01899 12.5663C7.10104 12.4842 7.14714 12.373 7.14714 12.2569C7.14714 12.1409 7.10104 12.0296 7.01899 11.9476C6.93695 11.8655 6.82567 11.8194 6.70964 11.8194ZM6.70964 0.728516C4.93864 0.728516 3.5013 2.16585 3.5013 3.93685C3.5013 5.70785 4.93864 7.14518 6.70964 7.14518C8.48064 7.14518 9.91797 5.70785 9.91797 3.93685C9.91797 2.16585 8.48064 0.728516 6.70964 0.728516ZM6.70964 1.60352C7.99764 1.60352 9.04297 2.64885 9.04297 3.93685C9.04297 5.22485 7.99764 6.27018 6.70964 6.27018C5.42164 6.27018 4.3763 5.22485 4.3763 3.93685C4.3763 2.64885 5.42164 1.60352 6.70964 1.60352Z" fill="black"/>
<path fill-rule="evenodd" clip-rule="evenodd" d="M10.2109 7.14453C8.52044 7.14453 7.14844 8.51653 7.14844 10.207C7.14844 11.8975 8.52044 13.2695 10.2109 13.2695C11.9014 13.2695 13.2734 11.8975 13.2734 10.207C13.2734 8.51653 11.9014 7.14453 10.2109 7.14453ZM10.2109 8.01953C11.4184 8.01953 12.3984 8.99953 12.3984 10.207C12.3984 11.4145 11.4184 12.3945 10.2109 12.3945C9.00344 12.3945 8.02344 11.4145 8.02344 10.207C8.02344 8.99953 9.00344 8.01953 10.2109 8.01953Z" fill="black"/>
</svg>
