<svg width="80" height="80" viewBox="0 0 80 80" fill="none" xmlns="http://www.w3.org/2000/svg">
<g clip-path="url(#clip0_5433_2830)">
<path d="M40 4.6875C48.0506 4.6875 55.7183 7.39859 61.895 12.2905L59.5928 14.5927C59.285 14.9004 59.069 15.2878 58.969 15.7114C58.869 16.1351 58.8889 16.5782 59.0266 16.9911C59.1642 17.404 59.4141 17.7705 59.7483 18.0494C60.0825 18.3283 60.4877 18.5086 60.9186 18.5702L69.6686 19.8202C70.0288 19.8716 70.396 19.8385 70.7412 19.7234C71.0863 19.6083 71.4 19.4144 71.6572 19.157C71.9145 18.8998 72.1084 18.5861 72.2235 18.2409C72.3385 17.8957 72.3716 17.5285 72.3202 17.1683L71.0702 8.41828C71.0086 7.98742 70.8282 7.58222 70.5494 7.24808C70.2705 6.91394 69.904 6.66405 69.4911 6.52641C69.0782 6.38878 68.6352 6.36884 68.2116 6.46882C67.788 6.5688 67.4006 6.78476 67.0928 7.0925L65.2295 8.95578C58.1612 3.19813 49.3067 0 40 0C29.3156 0 19.2708 4.16078 11.7156 11.7156C4.16063 19.2708 0 29.3156 0 40C0 41.2944 1.04937 42.3438 2.34375 42.3438C3.63813 42.3438 4.6875 41.2944 4.6875 40C4.6875 20.5286 20.5286 4.6875 40 4.6875ZM77.6562 37.6562C76.3619 37.6562 75.3125 38.7056 75.3125 40C75.3125 59.4714 59.4714 75.3125 40 75.3125C31.9494 75.3125 24.2817 72.6014 18.105 67.7095L20.4072 65.4073C20.715 65.0996 20.931 64.7122 21.031 64.2885C21.131 63.8649 21.1111 63.4218 20.9734 63.0089C20.8358 62.596 20.5859 62.2295 20.2517 61.9506C19.9175 61.6717 19.5123 61.4914 19.0814 61.4298L10.3314 60.1798C9.97121 60.1286 9.60402 60.1618 9.25887 60.2769C8.91372 60.3919 8.60005 60.5857 8.34266 60.8428C8.08533 61.1001 7.89145 61.4137 7.77638 61.7589C7.6613 62.1041 7.6282 62.4714 7.67969 62.8316L8.92969 71.5816C8.99127 72.0124 9.1716 72.4176 9.45049 72.7518C9.72938 73.0859 10.0958 73.3358 10.5087 73.4734C10.9216 73.6111 11.3647 73.631 11.7883 73.531C12.2119 73.431 12.5993 73.2151 12.907 72.9073L14.7703 71.0441C21.8387 76.8019 30.6933 80 40 80C50.6844 80 60.7292 75.8392 68.2844 68.2844C75.8394 60.7292 80 50.6844 80 40C80 38.7056 78.9506 37.6562 77.6562 37.6562Z" fill="white"/>
<path d="M54.0703 23.9062H50.3038L47.1625 16.5766C46.9815 16.1551 46.6809 15.796 46.2979 15.5436C45.915 15.2912 45.4665 15.1565 45.0078 15.1562H35.0078C34.0703 15.1562 33.2234 15.7156 32.8531 16.5766L29.7119 23.9062H25.9453C22.0688 23.9062 18.9141 27.0609 18.9141 30.9375V51.5625C18.9141 55.4391 22.0688 58.5938 25.9453 58.5938H54.0703C57.9469 58.5938 61.1016 55.4391 61.1016 51.5625V30.9375C61.1016 27.0609 57.9469 23.9062 54.0703 23.9062ZM40.0078 52.3438C33.8908 52.3438 28.9141 47.367 28.9141 41.25C28.9141 35.133 33.8908 30.1562 40.0078 30.1562C46.1248 30.1562 51.1016 35.133 51.1016 41.25C51.1016 47.367 46.1248 52.3438 40.0078 52.3438Z" fill="white"/>
<path d="M39.9922 47.6562C43.5303 47.6562 46.3984 44.7881 46.3984 41.25C46.3984 37.7119 43.5303 34.8438 39.9922 34.8438C36.4541 34.8438 33.5859 37.7119 33.5859 41.25C33.5859 44.7881 36.4541 47.6562 39.9922 47.6562Z" fill="white"/>
</g>
<defs>
<clipPath id="clip0_5433_2830">
<rect width="80" height="80" fill="white"/>
</clipPath>
</defs>
</svg>
