<svg width="19" height="18" viewBox="0 0 19 18" fill="none" xmlns="http://www.w3.org/2000/svg">
<path d="M9.5 0C4.53741 0 0.5 4.03741 0.5 9C0.5 13.9626 4.53741 18 9.5 18C14.4626 18 18.5 13.9626 18.5 9C18.5 4.03741 14.4627 0 9.5 0ZM9.5 17.027C7.29521 17.027 5.2953 16.1333 3.84318 14.6894C3.2605 14.1102 2.76969 13.4453 2.38771 12.7179C1.80392 11.6057 1.47299 10.3408 1.47299 9C1.47299 4.57389 5.07389 0.972986 9.5 0.972986C11.5994 0.972986 13.5128 1.78348 14.9446 3.1076C15.687 3.79404 16.3001 4.6184 16.7421 5.53982C17.245 6.58815 17.527 7.76175 17.527 9C17.527 13.4261 13.9261 17.027 9.5 17.027Z" fill="black"/>
<path d="M6.56088 7.96648C7.09824 7.96648 7.53386 7.53086 7.53386 6.99349C7.53386 6.45613 7.09824 6.02051 6.56088 6.02051C6.02351 6.02051 5.58789 6.45613 5.58789 6.99349C5.58789 7.53086 6.02351 7.96648 6.56088 7.96648Z" fill="black"/>
<path d="M12.5804 7.96648C13.1178 7.96648 13.5534 7.53086 13.5534 6.99349C13.5534 6.45613 13.1178 6.02051 12.5804 6.02051C12.043 6.02051 11.6074 6.45613 11.6074 6.99349C11.6074 7.53086 12.043 7.96648 12.5804 7.96648Z" fill="black"/>
<path d="M9.48363 13.9865C11.366 13.9865 13.17 13.0239 14.2029 11.4255L13.3856 10.8975C12.4371 12.3651 10.7022 13.1842 8.96503 12.9838C7.61124 12.8277 6.35932 12.0477 5.61601 10.8975L4.79883 11.4255C5.69823 12.8175 7.21402 13.7613 8.8535 13.9504C9.06397 13.9747 9.27414 13.9865 9.48363 13.9865Z" fill="black"/>
</svg>
