<svg width="18" height="22" viewBox="0 0 18 22" fill="none" xmlns="http://www.w3.org/2000/svg">
<path d="M5.23828 12.0004H12.7633C12.9008 12.0004 13.0133 11.8879 13.0133 11.7504V11.3679C13.0133 10.9179 12.7133 10.5404 12.3008 10.4154C12.3033 10.4004 12.3108 10.3854 12.3108 10.3679V9.90289C12.3108 9.70539 12.2333 9.52789 12.1083 9.39539C12.4608 9.08789 12.9658 8.43789 12.9658 7.23539C12.9658 6.03289 11.7208 4.99789 10.6233 4.12539C10.0583 3.67539 9.47578 3.21289 9.29828 2.85789C9.5179 2.8259 9.72707 2.7433 9.9093 2.61661C10.0915 2.48992 10.2418 2.32261 10.3483 2.12789C9.00078 2.60789 8.13078 0.767891 9.33578 0.0253911C7.52828 -0.242109 6.98328 2.31789 8.71828 2.82289C8.56078 3.18289 7.96078 3.66039 7.37828 4.12539C6.28078 4.99789 5.03578 5.98789 5.03578 7.23539C5.03578 8.48289 5.54078 9.08789 5.89328 9.39539C5.76828 9.53039 5.69078 9.70789 5.69078 9.90289C5.69078 9.92039 5.68328 10.4204 5.70078 10.4154C5.29078 10.5404 4.98828 10.9179 4.98828 11.3679V11.7504C4.98828 11.8879 5.10078 12.0004 5.23828 12.0004Z" fill="white"/>
<path d="M13.75 20.5H4.25C4.11193 20.5 4 20.6119 4 20.75V21.75C4 21.8881 4.11193 22 4.25 22H13.75C13.8881 22 14 21.8881 14 21.75V20.75C14 20.6119 13.8881 20.5 13.75 20.5Z" fill="white"/>
<path d="M12.75 12.2506H5.25C5.1125 12.2506 5 12.3631 5 12.5006C4.9975 13.7656 5 16.4531 5 17.7331V20.0006C5 20.1381 5.1125 20.2506 5.25 20.2506H12.75C12.8875 20.2506 13 20.1381 13 20.0006V12.5006C13 12.3631 12.8875 12.2506 12.75 12.2506ZM12.475 17.7781C12.2175 18.5481 11.1975 18.6731 10.875 19.3881C10.5425 18.6506 9.4575 18.5281 9.25 17.6981V14.8056C9.2925 14.6431 9.37 14.4981 9.475 14.3681C9.89 13.8881 10.6025 13.7056 10.875 13.1131C11.17 13.7581 11.9925 13.9131 12.37 14.4981C12.4275 14.5931 12.47 14.6956 12.5 14.8031V17.6956C12.4925 17.7231 12.4825 17.7506 12.475 17.7756V17.7781ZM7.235 19.2106C7.195 19.2681 7.16 19.3281 7.125 19.3856C6.7925 18.6481 5.7075 18.5256 5.5 17.6956V14.8031C5.5425 14.6406 5.62 14.4956 5.725 14.3656C6.14 13.8856 6.8525 13.7031 7.125 13.1106C7.4575 13.8481 8.5425 13.9706 8.75 14.8006V17.6931C8.72 17.8006 8.6775 17.9031 8.62 17.9981C8.29 18.5306 7.56 18.6931 7.235 19.2081V19.2106ZM3.7375 15.5006H0.5C0.3625 15.5006 0.25 15.6131 0.25 15.7506C0.25 15.8881 0.3625 16.0006 0.5 16.0006H3.7375C4.065 15.9956 4.0675 15.5056 3.7375 15.5006ZM0.73 12.6406L3.6175 14.2206C3.905 14.3731 4.145 13.9456 3.8575 13.7831L0.97 12.2031C0.68 12.0506 0.4425 12.4781 0.73 12.6406ZM3.6175 17.2806L0.73 18.8606C0.445 19.0231 0.68 19.4531 0.97 19.2981L3.8575 17.7181C4.1425 17.5556 3.91 17.1256 3.6175 17.2806ZM17.5 15.5006H14.2625C14.125 15.5006 14.0125 15.6131 14.0125 15.7506C14.0125 15.8881 14.125 16.0006 14.2625 16.0006H17.5C17.8275 15.9956 17.83 15.5056 17.5 15.5006ZM14.2625 14.2506C14.3025 14.2506 14.345 14.2406 14.3825 14.2206L17.27 12.6406C17.555 12.4781 17.3225 12.0481 17.03 12.2031L14.1425 13.7831C13.915 13.8981 14.015 14.2631 14.2625 14.2531V14.2506ZM17.27 18.8606L14.3825 17.2806C14.0925 17.1281 13.855 17.5556 14.1425 17.7181L17.03 19.2981C17.3175 19.4506 17.5575 19.0231 17.27 18.8606Z" fill="white"/>
</svg>
