<svg width="14" height="14" viewBox="0 0 14 14" fill="none" xmlns="http://www.w3.org/2000/svg">
<path d="M12.5397 4.64202V7.55171C12.5397 7.73704 12.5304 7.92237 12.5118 8.09843C12.3442 10.0629 11.1803 11.0452 9.03877 11.0452H8.75013C8.56391 11.0452 8.38701 11.1286 8.28459 11.2769L7.40935 12.4445C7.01829 12.9634 6.39447 12.9634 6.00341 12.4445L5.12818 11.2769C5.03507 11.1564 4.82091 11.0452 4.66263 11.0452H4.37399C2.03693 11.0452 0.873047 10.4707 0.873047 7.56098V4.65126C0.873047 2.51995 1.86 1.36164 3.83393 1.19485C4.01084 1.17631 4.19706 1.16705 4.38328 1.16705H9.0667C11.3665 1.15778 12.5397 2.32537 12.5397 4.64202Z" stroke="black" stroke-miterlimit="10" stroke-linecap="round" stroke-linejoin="round"/>
<path d="M7.63839 3.91002L7.49839 7.26302H6.48339L6.34339 3.91002H7.63839ZM7.00839 9.05502C6.79839 9.05502 6.62573 8.99436 6.49039 8.87302C6.35973 8.74702 6.29439 8.59302 6.29439 8.41102C6.29439 8.22436 6.35973 8.06802 6.49039 7.94202C6.62573 7.81602 6.79839 7.75302 7.00839 7.75302C7.21373 7.75302 7.38173 7.81602 7.51239 7.94202C7.64773 8.06802 7.71539 8.22436 7.71539 8.41102C7.71539 8.59302 7.64773 8.74702 7.51239 8.87302C7.38173 8.99436 7.21373 9.05502 7.00839 9.05502Z" fill="black"/>
</svg>
