<svg width="25" height="24" viewBox="0 0 25 24" fill="none" xmlns="http://www.w3.org/2000/svg">
<path d="M19.97 18.33C19.97 18.69 19.89 19.06 19.72 19.42C19.55 19.78 19.33 20.12 19.04 20.44C18.55 20.98 18.01 21.37 17.4 21.62C16.8 21.87 16.15 22 15.45 22C14.43 22 13.34 21.76 12.19 21.27C11.04 20.78 9.89 20.12 8.75 19.29C7.6 18.45 6.51 17.52 5.47 16.49C4.44 15.45 3.51 14.36 2.68 13.22C1.86 12.08 1.2 10.94 0.72 9.81C0.24 8.67 0 7.58 0 6.54C0 5.86 0.12 5.21 0.36 4.61C0.6 4 0.98 3.44 1.51 2.94C2.15 2.31 2.85 2 3.59 2C3.87 2 4.15 2.06 4.4 2.18C4.66 2.3 4.89 2.48 5.07 2.74L7.39 6.01C7.57 6.26 7.7 6.49 7.79 6.71C7.88 6.92 7.93 7.13 7.93 7.32C7.93 7.56 7.86 7.8 7.72 8.03C7.59 8.26 7.4 8.5 7.16 8.74L6.4 9.53C6.29 9.64 6.24 9.77 6.24 9.93C6.24 10.01 6.25 10.08 6.27 10.16C6.3 10.24 6.33 10.3 6.35 10.36C6.53 10.69 6.84 11.12 7.28 11.64C7.73 12.16 8.21 12.69 8.73 13.22C9.27 13.75 9.79 14.24 10.32 14.69C10.84 15.13 11.27 15.43 11.61 15.61C11.66 15.63 11.72 15.66 11.79 15.69C11.87 15.72 11.95 15.73 12.04 15.73C12.21 15.73 12.34 15.67 12.45 15.56L13.21 14.81C13.46 14.56 13.7 14.37 13.93 14.25C14.16 14.11 14.39 14.04 14.64 14.04C14.83 14.04 15.03 14.08 15.25 14.17C15.47 14.26 15.7 14.39 15.95 14.56L19.26 16.91C19.52 17.09 19.7 17.3 19.81 17.55C19.91 17.8 19.97 18.05 19.97 18.33Z" fill="url(#paint0_linear_331_6255)"/>
<path d="M22.97 18.33C22.97 18.69 22.89 19.06 22.72 19.42C22.55 19.78 22.33 20.12 22.04 20.44C21.55 20.98 21.01 21.37 20.4 21.62C19.8 21.87 19.15 22 18.45 22C17.43 22 16.34 21.76 15.19 21.27C14.04 20.78 12.89 20.12 11.75 19.29C10.6 18.45 9.51 17.52 8.47 16.49C7.44 15.45 6.51 14.36 5.68 13.22C4.86 12.08 4.2 10.94 3.72 9.81C3.24 8.67 3 7.58 3 6.54C3 5.86 3.12 5.21 3.36 4.61C3.6 4 3.98 3.44 4.51 2.94C5.15 2.31 5.85 2 6.59 2C6.87 2 7.15 2.06 7.4 2.18C7.66 2.3 7.89 2.48 8.07 2.74L10.39 6.01C10.57 6.26 10.7 6.49 10.79 6.71C10.88 6.92 10.93 7.13 10.93 7.32C10.93 7.56 10.86 7.8 10.72 8.03C10.59 8.26 10.4 8.5 10.16 8.74L9.4 9.53C9.29 9.64 9.24 9.77 9.24 9.93C9.24 10.01 9.25 10.08 9.27 10.16C9.3 10.24 9.33 10.3 9.35 10.36C9.53 10.69 9.84 11.12 10.28 11.64C10.73 12.16 11.21 12.69 11.73 13.22C12.27 13.75 12.79 14.24 13.32 14.69C13.84 15.13 14.27 15.43 14.61 15.61C14.66 15.63 14.72 15.66 14.79 15.69C14.87 15.72 14.95 15.73 15.04 15.73C15.21 15.73 15.34 15.67 15.45 15.56L16.21 14.81C16.46 14.56 16.7 14.37 16.93 14.25C17.16 14.11 17.39 14.04 17.64 14.04C17.83 14.04 18.03 14.08 18.25 14.17C18.47 14.26 18.7 14.39 18.95 14.56L22.26 16.91C22.52 17.09 22.7 17.3 22.81 17.55C22.91 17.8 22.97 18.05 22.97 18.33Z" stroke="black" stroke-width="1.5" stroke-miterlimit="10"/>
<defs>
<linearGradient id="paint0_linear_331_6255" x1="9.985" y1="2" x2="9.985" y2="22" gradientUnits="userSpaceOnUse">
<stop stop-color="#FFEDAB"/>
<stop offset="1" stop-color="#FCC604"/>
</linearGradient>
</defs>
</svg>
