<svg width="24" height="24" viewBox="0 0 24 24" fill="none" xmlns="http://www.w3.org/2000/svg">
<path d="M15 22H5C1 22 0 21 0 17V9C0 5 1 4 5 4H15C19 4 20 5 20 9V17C20 21 19 22 15 22Z" fill="url(#paint0_linear_331_8400)"/>
<path d="M17 21H7C3 21 2 20 2 16V8C2 4 3 3 7 3H17C21 3 22 4 22 8V16C22 20 21 21 17 21Z" stroke="black" stroke-width="1.5" stroke-linecap="round" stroke-linejoin="round"/>
<path d="M14 8H19" stroke="black" stroke-width="1.5" stroke-linecap="round" stroke-linejoin="round"/>
<path d="M15 12H19" stroke="black" stroke-width="1.5" stroke-linecap="round" stroke-linejoin="round"/>
<path d="M17 16H19" stroke="black" stroke-width="1.5" stroke-linecap="round" stroke-linejoin="round"/>
<path d="M8.49994 11.2899C9.49958 11.2899 10.3099 10.4796 10.3099 9.47992C10.3099 8.48029 9.49958 7.66992 8.49994 7.66992C7.50031 7.66992 6.68994 8.48029 6.68994 9.47992C6.68994 10.4796 7.50031 11.2899 8.49994 11.2899Z" stroke="black" stroke-width="1.5" stroke-linecap="round" stroke-linejoin="round"/>
<path d="M12 16.3298C11.86 14.8798 10.71 13.7398 9.26 13.6098C8.76 13.5598 8.25 13.5598 7.74 13.6098C6.29 13.7498 5.14 14.8798 5 16.3298" stroke="black" stroke-width="1.5" stroke-linecap="round" stroke-linejoin="round"/>
<defs>
<linearGradient id="paint0_linear_331_8400" x1="10" y1="4" x2="10" y2="22" gradientUnits="userSpaceOnUse">
<stop stop-color="#FFEDAB"/>
<stop offset="1" stop-color="#FCC604"/>
</linearGradient>
</defs>
</svg>
