<svg width="10" height="10" viewBox="0 0 10 10" fill="none" xmlns="http://www.w3.org/2000/svg">
<path d="M5.21953 8.50788H2.5862C1.26953 8.50788 0.832031 7.63288 0.832031 6.75371V3.24538C0.832031 1.92871 1.26953 1.49121 2.5862 1.49121H5.21953C6.5362 1.49121 6.9737 1.92871 6.9737 3.24538V6.75371C6.9737 8.07038 6.53203 8.50788 5.21953 8.50788Z" fill="#737373" stroke="#737373" stroke-linecap="round" stroke-linejoin="round"/>
<path d="M8.1349 7.12506L6.97656 6.31255V3.68339L8.1349 2.87089C8.70156 2.47505 9.16823 2.71672 9.16823 3.41255V6.58756C9.16823 7.28339 8.70156 7.52506 8.1349 7.12506Z" fill="#737373" stroke="#737373" stroke-linecap="round" stroke-linejoin="round"/>
<path d="M3 6H5M3 6V4V6Z" stroke="white" stroke-width="0.5" stroke-linecap="round" stroke-linejoin="round"/>
<path d="M5.71213 3.71213C5.82929 3.59497 5.82929 3.40503 5.71213 3.28787C5.59497 3.17071 5.40503 3.17071 5.28787 3.28787L5.71213 3.71213ZM3 6L3.21213 6.21213L5.71213 3.71213L5.5 3.5L5.28787 3.28787L2.78787 5.78787L3 6Z" fill="white"/>
</svg>
