<svg width="10" height="10" viewBox="0 0 10 10" fill="none" xmlns="http://www.w3.org/2000/svg">
<path d="M9.15433 7.63717C9.15433 7.78717 9.121 7.94134 9.05016 8.09134C8.97933 8.24134 8.88766 8.38301 8.76683 8.51634C8.56266 8.74134 8.33766 8.90384 8.0835 9.00801C7.8335 9.11217 7.56266 9.16634 7.271 9.16634C6.846 9.16634 6.39183 9.06634 5.91266 8.86217C5.4335 8.65801 4.95433 8.38301 4.47933 8.03718C4.00016 7.68718 3.546 7.29967 3.11266 6.87051C2.6835 6.43717 2.296 5.98301 1.95016 5.50801C1.6085 5.03301 1.3335 4.55801 1.1335 4.08717C0.933496 3.61217 0.833496 3.15801 0.833496 2.72467C0.833496 2.44134 0.883496 2.17051 0.983496 1.92051C1.0835 1.66634 1.24183 1.43301 1.46266 1.22467C1.72933 0.962175 2.021 0.833008 2.32933 0.833008C2.446 0.833008 2.56266 0.858008 2.66683 0.908008C2.77516 0.958008 2.871 1.03301 2.946 1.14134L3.91266 2.50384C3.98766 2.60801 4.04183 2.70384 4.07933 2.79551C4.11683 2.88301 4.13766 2.97051 4.13766 3.04967C4.13766 3.14967 4.1085 3.24967 4.05016 3.34551C3.996 3.44134 3.91683 3.54134 3.81683 3.64134L3.50016 3.97051C3.45433 4.01634 3.4335 4.07051 3.4335 4.13717C3.4335 4.17051 3.43766 4.19967 3.446 4.23301C3.4585 4.26634 3.471 4.29134 3.47933 4.31634C3.55433 4.45384 3.6835 4.63301 3.86683 4.84967C4.05433 5.06634 4.25433 5.28717 4.471 5.50801C4.696 5.72884 4.91266 5.93301 5.1335 6.12051C5.35016 6.30384 5.52933 6.42884 5.671 6.50384C5.69183 6.51217 5.71683 6.52467 5.746 6.53717C5.77933 6.54967 5.81266 6.55384 5.85016 6.55384C5.921 6.55384 5.97516 6.52884 6.021 6.48301L6.33766 6.17051C6.44183 6.06634 6.54183 5.98717 6.63766 5.93717C6.7335 5.87884 6.82933 5.84967 6.9335 5.84967C7.01266 5.84967 7.096 5.86634 7.18766 5.90384C7.27933 5.94134 7.37516 5.99551 7.47933 6.06634L8.8585 7.04551C8.96683 7.12051 9.04183 7.20801 9.08766 7.31217C9.12933 7.41634 9.15433 7.52051 9.15433 7.63717Z" fill="#FF2525" stroke="#FF2525" stroke-miterlimit="10"/>
<path d="M6.75 3.25H8.75M6.75 3.25V1.25V3.25Z" stroke="#FF2525" stroke-linecap="round" stroke-linejoin="round"/>
</svg>
